{"glyphs":{"0":{"ha":796,"x_min":24,"x_max":771,"o":"m 761 58 q 698 33 743 40 q 610 28 653 25 q 626 -12 613 18 q 640 -49 636 -36 q 649 -78 644 -61 q 652 -105 654 -94 q 642 -122 650 -115 q 624 -128 633 -128 q 591 -115 610 -128 q 560 -90 572 -103 q 525 -54 547 -78 q 479 -12 488 -15 q 325 -51 349 -81 q 324 -11 310 -35 q 131 103 211 11 q 121 101 125 101 q 113 103 117 101 q 100 110 104 104 q 104 135 92 121 q 100 142 103 138 q 33 206 33 175 q 46 233 33 221 q 51 238 47 235 q 25 388 25 310 q 131 674 25 556 q 385 792 236 792 q 639 674 533 792 q 744 388 744 556 q 669 142 744 251 q 675 142 674 142 q 708 132 696 136 q 738 120 721 128 q 763 103 754 113 q 771 79 771 93 q 761 58 771 67 m 194 210 q 189 225 196 218 q 167 242 182 235 q 167 241 167 242 q 168 240 168 240 q 168 233 168 239 q 168 231 168 233 q 168 228 168 229 q 164 207 167 218 q 157 188 163 199 l 153 178 l 149 168 q 146 167 147 167 q 146 169 144 168 l 150 179 l 153 189 q 157 208 157 201 q 160 229 160 219 q 159 231 160 229 q 158 233 158 233 q 158 239 158 239 q 157 243 158 240 q 157 246 157 246 q 132 250 144 250 q 133 246 133 247 q 134 242 133 244 q 135 240 135 240 q 135 238 135 240 q 135 235 135 236 q 133 214 136 225 q 131 193 133 206 l 126 182 l 124 172 q 122 172 124 171 q 121 174 119 172 l 122 183 l 125 194 q 128 214 126 207 q 126 235 128 225 q 125 239 126 235 q 125 241 125 239 q 125 244 125 243 q 124 249 124 246 q 122 249 122 249 q 122 250 122 250 q 85 242 103 249 q 84 240 85 240 q 83 238 83 239 l 83 236 l 83 233 q 85 224 83 229 q 90 204 86 214 q 99 186 93 197 l 103 178 l 108 168 q 108 166 110 167 q 106 167 107 165 l 100 175 l 93 183 q 83 201 88 194 q 76 222 79 213 q 75 233 75 228 l 74 236 q 63 229 68 233 q 57 224 60 226 q 47 206 47 214 q 122 147 47 181 q 125 143 124 146 q 122 133 125 138 q 118 128 122 132 q 111 118 110 121 q 131 117 114 115 q 154 125 147 119 l 156 125 q 142 136 154 128 q 138 139 139 139 q 135 143 136 140 q 136 149 132 147 q 194 210 189 183 m 269 528 q 250 509 269 528 q 228 433 231 489 q 259 333 225 376 q 342 288 293 290 q 430 324 392 285 q 472 420 468 364 q 441 519 475 476 q 357 565 407 563 q 269 528 307 568 m 604 50 q 689 54 646 47 q 746 74 732 61 q 749 79 749 76 q 669 119 749 100 q 646 126 653 124 q 631 131 639 128 q 619 140 622 135 q 618 150 617 144 q 624 181 618 157 q 626 286 640 267 q 617 293 624 292 q 588 283 604 294 q 560 259 571 271 q 529 225 549 247 q 496 189 506 197 q 421 183 483 178 q 350 182 357 190 q 410 100 340 169 q 422 86 418 90 q 426 74 428 82 q 389 28 426 61 q 342 -37 331 -24 q 471 7 354 -54 q 479 10 475 10 q 540 -39 494 10 q 628 -104 613 -115 q 606 -22 638 -97 q 590 43 583 33 q 604 50 596 50 m 532 83 q 529 81 532 83 q 519 78 526 78 q 506 83 511 78 q 501 97 501 89 q 506 109 501 104 q 519 114 511 114 q 532 109 526 114 q 538 97 538 104 q 532 83 538 89 m 553 129 q 551 127 553 129 q 542 125 549 125 q 532 129 536 125 q 528 140 528 133 q 532 150 528 146 q 542 154 536 154 q 553 150 549 154 q 557 140 557 146 q 553 129 557 133 m 574 173 q 574 167 574 173 q 561 161 574 161 q 549 173 549 161 q 561 185 549 185 q 574 173 574 185 m 589 206 q 589 201 589 206 q 578 196 589 196 q 568 206 568 196 q 578 217 568 217 q 589 206 589 217 m 607 244 q 607 239 607 244 q 598 235 607 235 q 589 244 589 235 q 598 253 589 253 q 607 244 607 253 m 549 85 q 546 92 549 85 q 556 104 543 99 q 576 97 569 110 q 569 78 582 83 q 549 85 556 72 m 590 83 q 587 89 590 83 q 596 99 585 94 q 612 93 607 104 q 606 77 617 82 q 590 83 594 72 m 629 81 q 627 86 629 81 q 634 94 625 90 q 647 90 643 99 q 642 76 651 81 q 629 81 633 72 m 672 79 q 670 83 672 79 q 676 91 668 88 q 688 86 685 94 q 683 74 692 78 q 672 79 675 71 m 524 61 q 529 67 524 61 q 544 64 533 72 q 547 44 556 56 q 527 41 539 32 q 524 61 515 50 m 541 25 q 545 30 541 25 q 558 27 549 35 q 561 10 568 19 q 544 8 554 0 q 541 25 533 15 m 559 -10 q 562 -7 559 -10 q 573 -9 565 -3 q 574 -24 581 -15 q 560 -25 568 -32 q 559 -10 553 -18 m 578 -62 q 575 -60 578 -62 q 576 -49 571 -57 q 590 -47 582 -42 q 592 -60 597 -53 q 578 -62 586 -68 m 465 72 q 468 78 465 72 q 484 78 471 85 q 490 58 497 71 q 471 52 483 46 q 465 72 458 58 m 435 49 q 438 55 435 49 q 451 54 440 60 q 457 38 463 49 q 440 33 451 26 q 435 49 429 39 m 406 27 q 408 32 406 27 q 419 31 410 36 q 424 17 429 26 q 410 13 419 8 q 406 27 401 18 m 372 3 q 374 7 372 3 q 385 7 376 11 q 389 -6 393 3 q 376 -10 385 -14 q 372 3 368 -6 m 463 115 q 464 122 463 115 q 478 129 464 129 q 492 115 493 129 q 477 101 492 100 q 463 115 463 101 m 457 133 q 457 127 457 133 q 444 122 457 121 q 432 134 432 122 q 444 146 432 146 q 457 133 457 146 m 401 153 q 401 159 401 153 q 412 163 401 164 q 422 152 422 163 q 412 142 422 142 q 401 153 401 143 m 373 167 q 373 172 373 167 q 383 176 374 176 q 391 167 392 176 q 381 158 390 158 q 373 167 372 158 z "},"1":{"ha":500,"x_min":21,"x_max":479,"o":"m 368 442 q 367 446 368 442 q 374 453 365 450 q 385 448 382 456 q 379 438 388 440 q 368 442 371 435 m 456 489 q 474 474 469 486 q 468 451 478 461 q 375 361 385 392 q 376 315 371 347 q 389 257 381 282 l 397 232 q 388 211 399 219 q 365 210 378 203 q 331 233 350 221 l 335 79 q 310 23 335 46 q 249 -5 285 0 q 177 -3 213 -10 q 117 26 142 3 q 93 83 93 50 l 104 222 q 103 232 101 226 q 104 238 104 235 l 115 378 q 83 410 104 392 q 47 440 63 429 l 32 451 q 26 474 22 461 q 43 489 31 486 q 124 493 86 489 l 126 529 q 51 571 79 532 q 36 632 33 599 q 61 689 39 665 q 33 735 36 715 q 38 758 31 747 q 58 771 46 769 q 64 772 61 772 q 67 772 65 772 q 88 788 74 785 q 93 789 90 789 q 100 788 96 789 q 119 800 107 799 q 124 801 121 801 q 140 796 132 801 q 157 806 147 803 q 163 806 160 806 q 183 797 175 806 q 193 801 188 801 q 197 801 196 801 q 211 797 204 801 q 222 781 219 792 q 268 769 247 781 q 317 686 318 743 l 322 513 q 326 507 325 510 q 371 494 339 499 q 429 489 403 489 l 456 489 m 189 779 q 169 665 203 717 q 205 715 197 681 q 210 774 213 749 q 203 786 208 782 q 196 788 200 788 q 189 779 190 786 m 172 656 q 197 663 189 656 q 204 688 206 671 q 172 656 192 665 m 160 790 q 147 782 150 789 q 160 668 163 728 q 178 781 193 719 q 160 790 174 793 m 138 779 q 122 786 131 788 q 110 775 113 785 q 149 665 113 719 q 138 779 153 726 m 90 774 q 78 760 79 772 q 139 664 88 710 q 100 772 103 725 q 90 774 96 775 m 47 738 q 65 706 49 726 q 103 672 82 686 q 133 658 118 661 q 68 757 79 701 q 61 757 64 758 q 47 738 44 754 m 106 649 q 129 649 113 644 q 97 664 114 653 q 96 665 97 664 q 106 649 99 653 m 355 310 q 345 335 355 310 q 339 373 335 360 q 389 415 343 386 q 429 460 435 444 q 399 474 425 474 q 347 472 372 475 q 306 478 321 469 q 281 538 294 486 q 250 590 267 590 q 219 538 233 590 q 194 478 206 486 q 153 472 179 469 q 101 474 128 475 q 71 460 75 474 q 110 415 65 444 q 160 373 156 386 q 144 310 164 360 q 139 250 125 260 q 194 274 153 240 q 250 308 236 308 q 306 274 264 308 q 361 250 347 240 q 355 310 375 260 m 258 383 q 255 381 258 383 q 245 378 253 378 q 232 383 238 378 q 226 397 226 389 q 232 410 226 404 q 245 415 238 415 q 258 410 253 415 q 263 397 263 404 q 258 383 263 389 m 181 418 q 183 424 181 418 q 198 424 186 431 q 204 406 210 418 q 187 400 199 394 q 181 418 175 406 m 142 434 q 144 439 142 434 q 155 439 146 443 q 160 426 164 435 q 147 421 156 417 q 142 434 138 425 m 103 449 q 105 453 103 449 q 115 453 107 457 q 119 442 122 450 q 108 438 115 435 q 103 449 100 442 m 290 424 q 297 426 290 424 q 308 415 303 428 q 300 399 313 403 q 283 407 288 394 q 290 424 278 419 m 328 426 q 327 430 328 426 q 334 438 325 435 q 347 432 343 442 q 341 419 350 422 q 328 426 332 417 m 266 349 q 262 354 266 349 q 269 367 258 360 q 287 364 279 375 q 284 345 294 353 q 266 349 274 338 m 297 315 q 294 318 297 315 q 299 328 292 322 q 313 326 307 335 q 310 313 318 318 q 297 315 303 307 m 324 283 q 322 286 324 283 q 326 294 319 289 q 338 292 333 299 q 336 281 343 286 q 324 283 329 276 m 208 343 q 203 347 208 343 q 207 362 199 351 q 226 363 215 372 q 227 344 236 354 q 208 343 218 335 m 183 309 q 179 312 183 309 q 181 323 175 315 q 195 324 188 331 q 197 310 203 318 q 183 309 190 303 m 159 276 q 156 279 159 276 q 158 288 153 282 q 169 289 163 294 q 170 277 175 283 q 159 276 165 271 m 258 448 q 258 441 258 448 q 244 436 257 435 q 232 451 231 438 q 247 463 233 464 q 258 448 260 461 m 257 494 q 256 490 257 494 q 246 485 256 485 q 238 496 236 486 q 249 505 239 506 q 257 494 258 504 m 258 536 q 257 532 258 536 q 249 528 257 528 q 241 538 240 529 q 250 545 242 546 q 258 536 258 544 z "},"2":{"ha":572,"x_min":11,"x_max":560,"o":"m 463 156 q 537 99 515 138 q 538 28 558 60 q 461 -4 517 -4 l 367 -4 l 374 -26 q 365 -47 375 -39 q 344 -47 356 -54 q 276 -6 308 -22 l 194 -6 q 164 -24 181 -14 q 139 -42 147 -35 l 129 -47 q 108 -47 118 -54 q 100 -26 97 -39 q 106 -6 103 -18 q 60 19 81 -1 q 29 65 39 39 q 54 163 11 122 l 33 178 q 28 199 24 188 q 44 213 32 211 q 115 217 82 213 q 239 381 188 289 q 278 526 290 474 q 207 546 267 581 q 144 535 176 529 q 90 569 111 542 q 57 626 68 596 q 56 690 46 657 q 100 742 67 724 q 318 776 197 797 q 479 678 424 757 q 515 447 542 588 q 497 392 511 421 q 508 388 503 392 q 519 372 518 383 q 526 369 524 372 q 533 358 532 367 q 531 342 536 350 q 493 306 517 319 q 465 283 483 283 l 464 283 q 449 288 456 283 q 439 297 443 290 q 361 217 406 257 l 429 213 q 445 199 442 211 q 440 178 449 188 q 419 163 432 172 q 463 156 450 161 m 449 301 q 465 294 457 294 q 479 304 474 294 q 449 301 464 299 m 513 360 q 451 308 492 319 q 492 318 472 304 q 521 347 511 332 q 524 356 524 351 q 521 360 522 358 q 513 360 517 363 m 503 378 q 492 379 497 382 q 447 314 476 344 q 508 365 489 325 q 503 378 511 374 m 486 382 q 481 392 486 389 q 469 393 475 396 q 440 317 446 363 q 486 382 471 347 m 458 400 q 446 399 451 404 q 435 321 428 368 q 463 396 443 369 q 458 400 461 399 m 419 400 q 415 377 415 394 q 419 342 415 360 q 429 321 424 329 q 439 401 421 368 q 436 406 438 404 q 419 400 426 411 m 413 340 q 410 328 408 333 q 424 318 413 322 q 413 340 417 326 q 413 340 413 340 m 342 38 q 332 63 342 38 q 326 101 322 88 q 376 143 331 114 q 417 189 422 172 q 386 203 413 201 q 334 201 360 204 q 292 207 308 197 q 267 268 281 215 q 237 321 254 321 q 206 268 219 321 q 181 207 192 215 q 139 201 164 197 q 87 203 114 204 q 56 189 60 201 q 96 143 50 172 q 146 101 142 114 q 131 38 150 88 q 125 -23 111 -12 q 181 1 139 -33 q 236 36 222 36 q 292 1 250 36 q 349 -23 335 -33 q 342 38 363 -12 m 372 179 q 376 178 375 181 q 375 174 376 175 l 239 119 l 338 -1 q 336 -6 339 -4 q 332 -6 333 -8 l 229 111 l 142 -6 q 137 -6 139 -8 q 136 -1 135 -4 l 218 118 l 92 174 q 90 178 89 175 q 94 181 92 182 l 222 131 l 232 288 q 236 291 232 292 q 240 288 240 290 l 235 131 l 372 179 m 272 99 q 266 99 272 99 q 260 110 261 99 q 271 121 260 121 q 282 110 282 121 q 272 99 282 100 m 312 136 q 316 136 312 136 q 320 128 319 136 q 313 120 321 121 q 304 128 304 119 q 312 136 304 136 m 346 147 q 346 150 346 147 q 351 153 346 153 q 357 147 357 153 q 351 142 357 142 q 346 147 346 142 m 297 68 q 293 67 297 68 q 288 75 289 67 q 294 85 286 83 q 304 78 303 86 q 297 68 306 69 m 315 39 q 315 42 315 39 q 319 46 314 44 q 326 42 325 47 q 322 35 328 36 q 315 39 317 33 m 221 83 q 219 88 221 83 q 228 96 218 93 q 241 88 238 99 q 234 75 244 78 q 221 83 224 72 m 253 49 q 252 53 253 49 q 259 59 251 57 q 269 53 267 61 q 264 44 272 46 q 253 49 256 42 m 290 17 q 290 19 290 17 q 294 24 289 22 q 301 20 299 25 q 297 13 303 15 q 290 17 292 11 m 195 51 q 193 55 195 51 q 199 61 192 58 q 210 57 207 64 q 206 47 214 50 q 195 51 199 43 m 172 17 q 170 20 172 17 q 174 24 169 22 q 181 22 179 26 q 178 15 183 17 q 172 17 174 13 m 266 155 q 264 150 266 155 q 252 148 263 144 q 245 162 242 151 q 259 169 249 172 q 266 155 269 165 m 262 201 q 261 197 262 201 q 252 196 260 193 q 247 206 244 199 q 256 211 249 214 q 262 201 264 208 m 258 245 q 257 243 258 245 q 251 242 256 240 q 247 249 246 243 q 254 252 249 254 q 258 245 260 250 m 303 169 q 302 165 303 169 q 294 163 301 161 q 288 172 286 164 q 297 178 289 179 q 303 169 304 176 m 344 181 q 343 178 344 181 q 338 176 343 175 q 333 182 332 176 q 339 187 333 188 q 344 181 344 186 m 195 121 q 200 121 195 121 q 206 110 206 121 q 194 99 206 99 q 184 110 183 100 q 195 121 185 121 m 162 128 q 161 124 162 128 q 153 120 161 119 q 146 128 146 121 q 154 136 146 136 q 162 128 163 136 m 108 147 q 108 150 108 147 q 114 153 108 153 q 119 147 119 153 q 114 142 119 142 q 108 147 108 142 m 174 85 q 178 84 174 85 q 181 75 182 83 q 171 68 179 67 q 164 78 163 69 q 174 85 165 86 m 154 39 q 153 36 154 39 q 148 35 153 33 q 144 42 143 36 q 150 46 144 47 q 154 39 156 44 m 216 162 q 218 157 216 162 q 210 148 219 151 q 197 155 200 144 q 203 169 193 165 q 216 162 213 172 m 219 206 q 220 202 219 206 q 213 196 221 199 q 203 201 206 193 q 208 211 200 208 q 219 206 217 214 m 221 249 q 222 246 221 249 q 217 242 222 243 q 210 245 213 240 q 214 252 208 250 q 221 249 219 254 m 174 172 q 174 168 174 172 q 167 163 175 164 q 158 169 160 161 q 165 178 157 176 q 174 172 172 179 m 129 182 q 130 179 129 182 q 125 176 131 176 q 118 181 119 175 q 122 187 117 186 q 129 182 128 188 z "},"3":{"ha":660,"x_min":22,"x_max":638,"o":"m 600 213 q 633 163 638 182 q 622 146 632 151 q 572 147 608 138 q 479 54 539 92 q 461 43 471 43 q 285 -4 372 -4 q 74 43 172 -4 q 26 121 24 76 q 74 197 28 165 q 168 206 121 228 q 193 190 172 204 q 237 167 214 175 q 290 160 260 158 q 310 163 300 161 q 243 181 247 161 q 259 208 242 192 q 329 261 276 224 q 369 292 360 283 q 271 324 347 339 q 208 346 238 317 q 193 404 179 375 q 217 473 203 425 q 239 558 231 521 l 247 596 q 110 615 158 606 q 75 662 85 619 q 75 744 65 704 q 110 783 85 783 l 271 783 q 274 801 271 794 q 296 818 279 818 q 304 817 300 818 q 308 814 307 815 q 321 817 314 817 q 328 815 325 817 q 336 811 332 814 q 344 814 340 814 q 353 813 349 814 q 365 803 361 810 q 369 803 367 803 q 378 801 375 803 q 393 788 389 797 q 394 788 394 788 q 400 786 397 788 q 404 783 403 785 l 424 783 q 501 747 474 783 q 520 692 519 722 q 504 636 521 661 l 382 486 q 422 490 401 489 q 474 485 442 492 q 532 464 507 479 q 578 413 557 449 q 606 326 600 378 q 600 213 614 265 m 289 721 q 304 713 292 714 q 289 733 296 719 q 289 733 289 733 q 289 721 286 725 m 296 736 q 310 717 301 724 q 304 801 292 763 q 300 806 303 804 q 285 797 289 808 q 285 772 282 790 q 296 736 288 753 m 313 800 q 315 718 299 765 q 331 800 315 769 q 325 804 328 803 q 313 800 317 807 m 338 799 q 322 714 319 763 q 356 792 347 751 q 349 801 356 799 q 338 799 342 804 m 363 789 q 331 713 354 750 q 382 778 369 732 q 375 790 383 788 q 363 789 368 793 m 333 700 q 352 696 343 694 q 365 708 361 697 q 333 700 350 699 m 336 707 q 376 726 358 707 q 400 761 393 744 q 400 771 403 767 q 396 775 399 774 q 389 772 393 776 q 336 707 375 728 m 613 161 q 615 165 615 163 q 599 189 617 174 q 556 224 582 204 q 515 264 515 253 q 518 274 514 269 l 521 276 q 576 342 581 332 q 492 321 565 353 q 469 326 481 317 q 436 360 457 336 q 386 403 396 407 q 390 357 383 397 q 393 290 400 304 q 339 247 389 282 q 263 185 269 197 q 376 185 278 178 q 401 186 397 186 l 403 186 q 411 183 407 186 q 418 172 415 181 q 422 158 421 164 q 428 136 424 151 q 460 61 443 64 q 479 115 468 60 q 499 171 489 161 q 563 168 511 183 q 613 161 606 156 m 441 257 q 443 259 441 257 q 452 261 446 261 q 463 257 458 261 q 468 246 468 253 q 463 235 468 239 q 452 231 458 231 q 441 235 446 231 q 436 246 436 239 q 441 257 436 253 m 389 233 q 390 239 389 233 q 402 244 390 244 q 413 231 414 243 q 399 220 411 219 q 389 233 388 221 m 352 219 q 352 223 352 219 q 362 227 353 228 q 370 217 371 226 q 360 209 369 208 q 352 219 351 210 m 313 204 q 314 207 313 204 q 320 210 314 210 q 326 203 326 210 q 319 198 325 197 q 313 204 313 199 m 502 284 q 503 278 502 284 q 492 270 504 272 q 478 280 481 268 q 488 294 476 292 q 502 284 500 296 m 533 308 q 534 303 533 308 q 526 297 535 299 q 515 303 517 294 q 523 315 514 313 q 533 308 532 317 m 441 210 q 443 215 441 210 q 457 217 446 221 q 463 201 468 213 q 447 194 458 190 q 441 210 436 199 m 447 167 q 448 171 447 167 q 458 172 450 175 q 463 160 467 169 q 451 155 460 151 q 447 167 443 158 m 450 122 q 451 125 450 122 q 458 125 453 128 q 461 117 464 122 q 453 113 458 111 q 450 122 447 115 m 481 218 q 477 223 481 218 q 483 235 474 228 q 499 234 492 243 q 498 217 507 225 q 481 218 489 208 m 521 203 q 518 206 521 203 q 522 215 515 210 q 535 214 529 221 q 534 201 542 207 q 521 203 526 196 m 563 184 q 561 186 563 184 q 564 192 560 189 q 572 192 568 196 q 572 183 576 188 q 563 184 567 179 m 438 296 q 444 296 438 296 q 449 283 450 296 q 437 272 449 271 q 425 284 425 272 q 438 296 425 296 m 422 331 q 426 331 422 331 q 430 322 431 331 q 420 313 429 313 q 412 323 411 314 q 422 331 413 332 m 411 364 q 411 361 411 364 q 405 358 411 358 q 399 365 399 358 q 405 370 399 371 q 411 364 411 369 z "},"4":{"ha":761,"x_min":21,"x_max":739,"o":"m 717 319 q 735 305 731 318 q 729 282 739 292 q 639 199 656 231 l 640 128 l 657 63 q 653 45 658 53 q 638 38 647 38 q 570 -10 624 3 q 465 -8 517 -24 q 404 46 413 8 l 394 40 q 372 42 383 33 q 364 63 361 50 q 386 157 381 117 l 274 157 q 221 149 256 149 q 214 149 218 149 q 213 128 218 135 q 201 122 208 122 q 180 128 193 122 q 160 142 167 135 q 154 154 154 149 q 156 158 154 157 l 118 160 q 67 175 90 160 q 33 216 43 190 q 27 269 22 242 q 50 317 32 297 l 293 575 q 318 601 297 599 l 319 601 l 467 758 q 515 787 486 781 q 570 781 543 793 q 613 745 597 769 q 628 692 629 721 l 636 324 l 717 319 m 457 618 q 449 610 451 617 q 431 496 464 547 q 465 545 457 511 q 469 604 474 579 q 464 617 469 613 q 457 618 460 619 m 433 486 q 458 494 449 486 q 464 518 467 501 q 433 486 453 496 m 419 621 q 407 613 411 619 q 419 499 424 560 q 438 611 454 550 q 419 621 433 624 m 397 610 q 382 617 392 618 q 369 606 372 615 q 410 496 374 550 q 397 610 414 557 m 351 604 q 339 590 340 603 q 400 494 347 540 q 360 603 363 557 q 351 604 356 606 m 321 588 q 308 568 306 585 q 326 537 310 557 q 363 503 342 517 q 393 489 379 492 q 329 588 340 532 q 321 588 325 589 m 389 481 q 357 494 374 483 q 356 496 357 494 q 365 479 358 483 q 389 481 374 475 m 440 472 l 279 325 l 442 346 q 447 354 444 350 l 486 514 l 479 507 q 468 483 478 493 q 444 472 458 475 q 440 472 443 472 m 275 174 q 279 188 281 178 q 272 210 279 197 q 272 209 272 210 q 269 204 272 208 q 267 203 268 204 q 267 201 267 201 q 251 188 260 194 q 236 178 247 183 l 228 174 l 219 169 q 218 169 218 168 q 218 172 218 171 l 226 176 l 235 182 q 249 193 243 188 q 260 206 256 199 q 262 208 261 207 q 263 209 263 208 q 263 211 263 210 q 265 213 264 213 q 267 217 265 215 q 268 218 268 218 l 268 219 q 253 235 261 228 q 251 232 253 233 q 250 228 251 232 q 247 224 247 224 q 235 208 242 217 q 221 196 229 204 l 213 192 l 206 186 q 203 186 204 185 q 204 189 203 188 l 211 194 l 218 200 q 231 213 226 208 q 240 228 236 221 q 243 231 240 228 q 244 233 243 232 q 244 235 244 235 q 246 239 244 236 q 246 240 246 239 q 215 254 232 250 q 215 254 215 254 q 213 253 214 254 l 211 251 l 210 250 q 206 243 208 246 q 199 226 201 235 q 194 210 197 219 l 193 200 l 193 192 q 192 190 193 190 q 190 192 190 190 l 190 200 l 190 210 q 193 228 192 221 q 199 246 196 238 q 204 254 201 250 l 204 257 l 206 257 q 193 258 199 258 q 186 257 190 258 q 169 250 175 256 q 190 169 157 233 q 190 165 192 167 q 183 158 188 160 q 178 158 182 158 q 168 154 168 157 q 181 143 168 150 q 201 136 193 136 q 199 151 203 139 q 197 154 197 154 q 197 158 197 157 q 201 163 197 163 q 275 174 257 158 m 615 140 q 606 165 615 140 q 600 203 596 190 q 649 246 604 217 q 690 290 694 275 q 659 305 686 304 q 607 303 632 306 q 565 308 582 300 q 541 369 554 317 q 510 421 528 421 q 480 369 493 421 q 456 308 467 317 q 414 303 439 300 q 363 305 389 306 q 332 290 336 304 q 372 246 326 275 q 421 203 417 217 q 406 140 425 190 q 400 81 386 90 q 456 105 414 71 q 510 139 497 139 q 565 105 524 139 q 621 81 607 71 q 615 140 635 90 m 518 214 q 515 211 518 214 q 506 208 513 208 q 493 214 499 208 q 488 227 488 219 q 493 240 488 235 q 506 246 499 246 q 518 240 513 246 q 524 227 524 235 q 518 214 524 219 m 442 249 q 444 255 442 249 q 459 256 447 261 q 465 238 471 250 q 448 231 460 225 q 442 249 436 236 m 403 265 q 405 269 403 265 q 415 269 407 274 q 419 256 424 265 q 407 251 415 247 q 403 265 399 256 m 365 280 q 366 284 365 280 q 376 284 368 288 q 380 273 383 281 q 369 269 376 265 q 365 280 361 272 m 551 254 q 558 256 551 254 q 568 246 564 258 q 560 229 572 233 q 543 238 547 225 q 551 254 539 250 m 589 256 q 588 261 589 256 q 595 269 586 265 q 608 263 604 272 q 601 250 611 253 q 589 256 592 247 m 629 273 q 628 277 629 273 q 634 283 626 281 q 644 278 642 286 q 640 268 647 271 q 629 273 632 265 m 526 179 q 522 185 526 179 q 529 198 518 190 q 548 195 540 206 q 544 176 556 185 q 526 179 533 168 m 558 145 q 555 149 558 145 q 560 159 551 153 q 574 157 568 165 q 572 143 579 149 q 558 145 564 138 m 585 114 q 583 117 585 114 q 588 126 581 121 q 599 124 594 131 q 597 112 604 117 q 585 114 590 107 m 469 174 q 464 178 469 174 q 467 192 458 182 q 486 194 476 203 q 488 175 496 185 q 469 174 479 165 m 444 140 q 440 143 444 140 q 442 153 436 146 q 456 155 449 161 q 458 141 464 149 q 444 140 451 133 m 419 107 q 416 110 419 107 q 418 119 413 113 q 430 120 424 125 q 431 108 436 115 q 419 107 425 101 m 518 278 q 517 272 518 278 q 503 267 517 265 q 492 281 490 268 q 506 293 493 294 q 518 278 519 292 m 517 325 q 517 320 517 325 q 507 316 517 315 q 498 326 497 317 q 508 335 499 336 q 517 325 518 335 m 517 367 q 517 363 517 367 q 508 359 517 358 q 501 368 500 360 q 510 376 503 376 q 517 367 518 375 z "},"5":{"ha":693,"x_min":15,"x_max":668,"o":"m 657 93 q 594 67 639 75 q 507 63 549 60 q 522 21 510 53 q 536 -14 532 -1 q 545 -43 540 -26 q 548 -70 550 -60 q 538 -87 546 -81 q 519 -93 529 -93 q 487 -81 506 -93 q 456 -56 468 -68 q 421 -19 443 -43 q 385 17 394 8 q 372 13 374 14 q 347 7 360 10 q 221 -17 243 -43 q 214 3 214 -8 q 32 83 88 19 q 33 135 17 103 q 81 185 50 168 q 126 186 111 203 q 179 165 146 171 q 247 165 213 160 q 229 229 214 208 q 263 243 238 242 q 319 240 289 244 q 351 238 340 239 q 360 269 357 253 q 316 360 364 317 q 211 375 268 403 q 208 371 208 372 q 171 347 197 357 q 138 332 154 336 q 140 314 143 321 q 129 306 138 307 q 85 313 110 301 q 78 317 81 315 q 69 329 71 322 q 71 340 68 335 q 43 382 43 357 l 43 689 q 65 749 43 724 q 118 782 86 775 q 193 810 147 807 q 194 810 193 810 q 196 810 196 810 l 197 810 q 267 783 242 810 l 450 783 q 497 761 478 783 q 521 708 517 739 q 521 645 525 676 q 498 593 517 614 q 450 572 479 572 l 229 596 l 229 533 q 383 533 304 549 q 542 432 481 515 q 583 238 604 349 q 565 176 578 206 q 568 176 567 176 q 571 175 569 176 q 605 166 593 169 q 634 155 617 163 q 659 137 651 147 q 667 114 667 126 q 657 93 667 101 m 197 381 q 200 397 201 386 q 186 421 197 408 q 185 420 186 421 q 185 418 185 419 q 183 415 185 417 q 183 414 183 414 q 181 408 181 408 q 168 390 176 400 q 154 375 164 383 l 146 368 l 138 361 q 135 361 136 360 q 136 364 135 363 l 143 371 l 150 378 q 163 394 158 388 q 174 413 169 403 q 174 415 174 413 q 175 417 175 417 q 176 419 175 417 q 176 421 176 421 q 178 426 176 424 q 178 428 178 428 q 158 443 168 438 q 157 439 157 439 q 156 435 157 438 q 156 433 156 433 q 154 428 154 429 q 144 408 150 419 q 132 392 140 401 l 125 383 l 117 376 q 115 376 117 375 q 115 378 114 376 l 121 386 l 128 394 q 138 413 135 406 q 146 431 143 422 q 147 433 146 432 q 147 435 147 435 q 147 438 147 436 q 149 440 147 439 q 149 446 149 443 q 149 447 149 447 q 110 454 131 454 q 108 451 108 453 l 107 450 l 107 447 q 103 439 104 443 q 100 419 101 429 q 100 399 100 411 l 100 389 l 101 379 q 100 376 101 376 q 99 378 99 376 l 96 389 l 94 399 q 93 419 93 411 q 94 440 93 431 q 97 451 96 446 l 99 454 q 86 453 92 454 q 78 450 82 451 q 61 438 65 446 q 106 354 51 415 q 106 349 107 351 q 100 340 104 343 q 94 338 99 339 q 83 331 83 335 q 101 323 85 328 q 125 319 117 318 l 126 319 q 118 336 126 324 q 117 339 117 339 q 115 344 115 342 q 119 350 114 349 q 197 381 181 358 m 224 669 l 225 671 q 211 682 224 674 q 207 683 208 683 q 204 688 206 685 q 206 694 201 692 q 264 754 258 728 q 258 771 265 763 q 236 786 251 779 q 236 785 236 785 q 238 779 236 785 q 238 776 238 778 q 238 774 238 774 q 233 751 236 764 q 226 732 232 744 l 222 722 l 218 713 q 215 712 217 711 q 215 714 214 713 l 218 724 l 222 733 q 226 753 225 746 q 228 774 229 764 q 228 776 228 775 q 228 778 228 778 q 228 783 228 783 q 226 788 228 785 q 226 790 226 790 q 201 794 214 794 q 203 791 203 792 q 203 788 203 790 q 204 786 204 786 q 204 783 204 785 q 204 781 204 781 q 203 758 204 769 q 199 738 203 750 l 196 728 l 193 718 q 190 716 192 715 q 189 718 189 717 l 192 729 l 194 739 q 197 760 196 751 q 196 779 197 769 q 194 785 196 779 q 194 786 194 785 q 193 789 194 788 q 192 793 193 790 q 192 794 192 793 q 153 786 172 793 q 153 785 153 786 q 153 783 153 785 l 153 781 l 153 778 q 154 768 153 774 q 160 750 156 760 q 167 731 161 742 l 172 722 l 178 714 q 176 711 178 713 q 175 711 175 710 l 168 719 l 163 729 q 153 747 156 740 q 146 767 149 757 q 143 778 144 772 l 143 781 q 132 774 138 778 q 126 768 129 771 q 117 750 117 760 q 190 692 117 726 q 194 688 193 690 q 192 678 194 682 q 188 674 190 676 q 181 663 179 665 q 200 663 183 660 q 224 669 217 665 m 500 85 q 586 89 543 82 q 642 108 629 96 q 646 114 646 111 q 565 154 646 135 q 542 160 550 158 q 526 166 535 163 q 515 174 518 169 q 514 185 513 178 q 519 215 515 192 q 524 321 536 301 q 513 326 519 326 q 484 317 501 329 q 456 294 467 306 q 426 260 444 282 q 392 224 403 232 q 318 218 381 213 q 247 217 253 225 q 306 133 238 204 q 318 121 315 125 q 324 108 324 115 q 285 63 322 96 q 238 -3 226 11 q 368 42 251 -19 q 375 44 371 44 q 438 -6 390 44 q 525 -69 510 -81 q 501 13 533 -62 q 488 78 479 68 q 500 85 492 85 m 428 118 q 426 115 428 118 q 416 113 424 113 q 403 118 408 113 q 397 131 397 124 q 403 143 397 138 q 416 149 408 149 q 428 143 424 149 q 433 131 433 138 q 428 118 433 124 m 449 164 q 447 162 449 164 q 439 160 444 160 q 429 164 433 160 q 425 174 425 168 q 429 185 425 181 q 439 189 433 189 q 449 185 444 189 q 454 174 454 181 q 449 164 454 168 m 469 207 q 469 201 469 207 q 457 194 469 194 q 444 207 444 194 q 457 219 444 219 q 469 207 469 219 m 464 241 q 464 246 464 241 q 474 251 464 251 q 485 241 485 251 q 474 231 485 231 q 464 241 464 231 m 503 278 q 503 273 503 278 q 494 268 503 268 q 485 278 485 268 q 494 288 485 288 q 503 278 503 288 m 446 120 q 443 127 446 120 q 453 139 440 133 q 472 131 467 144 q 465 113 478 118 q 446 120 451 107 m 485 118 q 483 124 485 118 q 492 134 481 129 q 508 128 503 139 q 501 112 513 117 q 485 118 490 107 m 525 116 q 523 120 525 116 q 531 129 521 125 q 544 124 540 133 q 539 111 549 115 q 525 116 529 107 m 567 114 q 566 118 567 114 q 572 126 564 122 q 584 121 581 129 q 579 109 588 113 q 567 114 571 106 m 421 96 q 425 101 421 96 q 441 99 429 107 q 444 78 453 90 q 424 76 435 67 q 421 96 413 85 m 438 60 q 442 65 438 60 q 456 62 446 69 q 458 44 465 54 q 440 42 450 35 q 438 60 431 50 m 455 24 q 458 28 455 24 q 469 26 461 32 q 472 11 478 19 q 457 10 465 3 q 455 24 449 17 m 475 -28 q 472 -25 475 -28 q 474 -15 468 -22 q 486 -12 479 -7 q 488 -26 493 -18 q 475 -28 482 -33 m 361 106 q 365 113 361 106 q 381 113 368 119 q 386 92 393 106 q 367 86 379 79 q 361 106 354 93 m 331 84 q 334 89 331 84 q 349 89 338 94 q 353 72 360 83 q 336 67 347 61 q 331 84 325 74 m 302 62 q 305 66 302 62 q 316 66 307 71 q 320 52 325 61 q 306 48 315 43 q 302 62 297 53 m 268 38 q 270 42 268 38 q 281 42 272 46 q 285 29 289 38 q 272 25 281 21 q 268 38 264 29 m 359 150 q 359 157 359 150 q 374 164 360 164 q 388 149 389 164 q 373 135 388 135 q 359 150 358 136 m 353 168 q 353 162 353 168 q 340 156 353 156 q 328 169 328 157 q 342 181 329 181 q 353 168 354 181 m 298 188 q 298 192 298 188 q 308 197 299 197 q 318 187 318 197 q 308 177 318 176 q 298 188 297 178 m 269 202 q 269 207 269 202 q 278 211 269 211 q 288 202 288 211 q 278 193 288 193 q 269 202 269 193 z "},"6":{"ha":697,"x_min":21,"x_max":672,"o":"m 601 418 q 671 260 671 357 q 600 81 672 151 q 382 0 521 0 l 381 0 q 149 89 231 0 q 68 400 51 193 l 31 429 q 26 449 22 438 q 42 464 31 461 q 75 464 57 464 q 156 669 96 588 q 361 792 236 781 q 447 756 421 797 q 451 668 474 714 q 368 617 428 622 q 315 591 340 615 q 276 526 290 567 q 307 481 293 490 q 317 475 310 478 q 401 486 365 486 q 499 474 454 486 q 506 510 499 499 q 525 521 513 521 q 536 518 532 521 q 540 515 539 517 q 549 517 544 517 q 560 514 554 517 q 565 508 563 511 q 571 508 568 508 q 582 506 576 508 q 590 494 588 501 l 592 494 q 603 492 597 494 q 614 475 613 486 q 621 474 618 475 q 629 463 628 469 q 626 444 631 453 q 601 418 617 431 m 128 288 q 118 263 128 288 q 122 228 108 238 q 178 252 136 218 q 235 286 221 286 q 290 252 249 286 q 346 228 332 218 q 340 288 360 238 q 325 352 321 339 q 375 394 329 365 q 415 440 421 424 q 384 453 411 453 q 332 451 357 454 q 290 458 307 449 q 265 519 279 467 q 235 571 251 571 q 204 519 218 571 q 179 458 190 467 q 137 451 163 449 q 85 453 111 454 q 54 440 58 453 q 94 394 49 424 q 144 352 140 365 q 128 288 149 339 m 382 188 q 434 201 414 188 q 450 242 454 214 q 418 285 446 267 q 350 310 390 303 q 358 272 353 293 q 367 238 363 250 l 371 224 q 363 205 374 213 q 342 203 353 197 q 235 260 265 260 q 228 258 232 260 q 292 208 242 228 q 382 188 342 188 m 506 432 q 518 421 507 425 q 508 443 511 431 q 508 444 508 444 q 506 432 504 436 m 514 444 q 525 424 518 432 q 535 504 515 471 q 531 508 533 507 q 515 504 521 514 q 510 481 511 497 q 514 444 510 464 m 542 501 q 531 424 524 471 q 558 499 539 472 q 554 504 557 501 q 542 501 547 507 m 564 496 q 536 419 542 465 q 581 486 565 451 q 576 497 582 493 q 564 496 569 500 m 588 482 q 543 417 571 447 q 603 468 583 429 q 597 482 606 476 q 588 482 592 485 m 544 404 q 560 398 551 397 q 575 407 568 399 q 544 404 558 401 m 547 411 q 588 421 568 407 q 617 450 607 435 q 618 460 619 456 q 615 464 617 463 q 607 463 613 465 q 547 411 588 424 m 329 246 l 226 363 l 139 246 q 135 245 138 243 q 135 250 132 247 l 217 369 l 90 425 q 88 430 86 426 q 93 432 89 433 l 221 382 l 231 538 q 234 542 231 542 q 238 538 238 542 l 233 382 l 371 431 q 374 428 374 431 q 372 425 375 426 l 238 369 l 335 250 q 335 245 338 247 q 329 246 332 243 m 269 350 q 264 350 269 350 q 258 360 258 350 q 269 371 258 371 q 280 360 279 371 q 269 350 281 350 m 310 388 q 314 388 310 388 q 318 379 318 388 q 310 371 318 371 q 301 379 301 371 q 310 388 301 388 m 344 399 q 344 401 344 399 q 350 404 344 404 q 356 399 356 404 q 350 393 356 393 q 344 399 344 393 m 295 319 q 291 319 295 319 q 286 326 288 318 q 292 335 285 333 q 301 328 300 336 q 295 319 303 321 m 313 290 q 313 293 313 290 q 318 297 313 296 q 324 292 324 297 q 319 285 325 286 q 313 290 314 285 m 226 347 q 231 348 226 347 q 239 340 236 350 q 231 326 242 329 q 218 333 221 324 q 226 347 215 343 m 252 299 q 251 303 252 299 q 258 309 250 307 q 267 303 265 311 q 262 294 269 296 q 252 299 254 292 m 288 268 q 287 271 288 268 q 292 275 286 274 q 299 271 297 276 q 294 264 300 265 q 288 268 289 263 m 194 301 q 192 305 194 301 q 197 312 190 308 q 208 308 204 315 q 204 297 211 300 q 194 301 197 294 m 169 268 q 168 271 169 268 q 172 276 167 274 q 179 273 176 278 q 176 265 182 268 q 169 268 171 263 m 263 414 q 266 409 263 414 q 258 399 268 404 q 244 404 249 394 q 249 419 239 414 q 263 414 258 424 m 260 451 q 258 447 260 451 q 249 446 257 443 q 244 456 242 449 q 255 461 247 464 q 260 451 263 458 m 256 496 q 255 493 256 496 q 249 492 254 490 q 245 499 243 494 q 252 503 247 504 q 256 496 257 501 m 301 419 q 301 415 301 419 q 292 413 300 411 q 285 422 283 414 q 295 429 288 431 q 301 419 303 428 m 342 431 q 341 428 342 431 q 335 426 340 425 q 331 433 329 428 q 338 437 332 438 q 342 431 343 436 m 193 371 q 199 371 193 371 q 203 360 204 371 q 192 350 203 350 q 182 360 182 350 q 193 371 182 371 m 160 378 q 160 375 160 378 q 151 371 160 371 q 144 379 143 371 q 152 387 144 388 q 160 378 160 386 m 107 399 q 107 401 107 399 q 113 404 107 404 q 118 399 118 404 q 113 393 118 393 q 107 399 107 393 m 172 335 q 175 334 172 335 q 178 326 179 333 q 169 319 176 318 q 163 328 161 321 q 172 335 164 336 m 152 290 q 152 288 152 290 q 146 285 151 285 q 142 292 140 286 q 148 297 143 297 q 152 290 153 296 m 215 413 q 216 408 215 413 q 208 399 218 403 q 194 406 197 396 q 201 419 190 415 q 215 413 211 422 m 217 456 q 218 452 217 456 q 212 446 219 449 q 201 451 204 443 q 206 461 199 458 q 217 456 214 464 m 219 499 q 220 497 219 499 q 215 492 221 494 q 208 496 210 490 q 212 503 207 501 q 219 499 217 504 m 172 422 q 173 418 172 422 q 166 413 174 414 q 156 419 158 411 q 163 429 154 428 q 172 422 171 431 m 127 433 q 127 430 127 433 q 122 426 128 428 q 116 431 117 425 q 121 437 115 436 q 127 433 126 438 z "},"7":{"ha":529,"x_min":17,"x_max":517,"o":"m 488 742 q 497 654 515 700 l 442 461 q 450 456 446 458 q 453 454 451 456 l 454 453 q 489 393 488 426 q 478 368 489 376 q 417 354 461 354 q 411 354 414 354 l 410 350 q 408 333 413 339 q 404 329 407 332 l 386 265 l 456 261 q 474 247 469 260 q 468 225 478 235 q 375 133 385 165 q 376 88 371 119 q 389 31 381 56 l 397 6 q 388 -16 399 -8 q 365 -18 378 -24 q 301 24 333 6 q 230 -12 272 -4 q 147 -8 188 -19 l 135 -18 q 111 -16 122 -24 q 103 6 100 -8 q 104 8 103 6 q 39 69 60 32 q 36 149 18 107 l 63 200 l 32 225 q 26 247 22 235 q 43 261 31 260 q 96 264 68 261 l 271 596 l 111 615 q 56 633 78 615 q 31 676 35 651 q 31 726 26 701 q 58 768 36 751 q 111 783 79 785 l 226 783 q 244 793 235 790 q 249 793 247 793 q 253 793 251 793 q 274 810 260 807 q 279 810 276 810 q 286 808 282 810 q 306 822 293 819 q 310 822 307 822 q 326 818 318 822 q 343 826 333 825 q 349 826 346 826 q 369 818 361 826 q 379 824 374 822 q 383 824 382 824 q 397 818 390 824 q 410 797 408 811 q 411 783 411 792 q 488 742 460 782 m 375 800 q 356 686 389 738 q 390 735 382 701 q 396 796 399 769 q 389 807 394 803 q 382 808 385 810 q 375 800 376 808 m 358 676 q 383 684 375 676 q 390 708 392 692 q 358 676 378 688 m 346 813 q 333 803 336 811 q 346 689 349 750 q 364 803 379 740 q 346 813 358 814 m 322 801 q 308 807 317 808 q 296 796 299 806 q 335 686 299 740 q 322 801 339 747 m 276 794 q 264 782 265 793 q 325 685 274 731 q 286 794 289 747 q 276 794 281 796 m 233 758 q 251 727 235 747 q 289 693 268 707 q 319 679 304 683 q 254 778 265 724 q 247 778 250 779 q 233 758 231 775 m 315 671 q 283 685 299 674 q 282 686 282 685 q 292 669 285 674 q 315 671 299 665 m 429 233 q 399 247 425 246 q 347 245 372 249 q 306 251 321 242 q 281 312 294 260 q 250 364 267 364 q 219 312 233 364 q 194 251 206 260 q 153 245 179 242 q 101 247 128 249 q 71 233 75 246 q 110 188 65 217 q 160 146 156 158 q 144 83 164 133 q 139 22 125 32 q 194 47 153 13 q 250 81 236 81 q 306 47 264 81 q 361 22 347 13 q 355 83 375 32 q 339 146 335 133 q 389 188 343 158 q 429 233 435 217 m 442 429 q 431 414 438 421 q 415 401 425 408 l 408 396 l 400 392 q 398 392 399 390 q 399 393 397 393 l 406 399 l 413 406 q 425 418 421 413 q 436 432 432 425 q 438 436 436 432 q 438 438 438 436 q 440 440 439 439 q 442 444 440 442 q 442 446 442 446 q 410 460 426 456 q 408 458 408 458 l 407 457 l 406 454 q 401 447 403 451 q 394 432 397 440 q 390 414 392 425 l 389 406 l 388 396 q 386 395 388 394 q 385 397 385 396 l 385 406 l 386 415 q 389 433 388 426 q 394 451 390 443 q 399 460 396 456 l 400 461 l 400 463 q 389 463 394 463 q 382 463 385 463 q 365 456 369 461 q 386 374 353 438 q 385 369 386 372 q 378 364 383 365 q 374 363 376 364 q 363 360 363 363 q 376 349 364 356 q 397 342 389 342 q 393 356 399 343 q 393 360 393 358 q 392 364 392 361 q 397 368 393 368 q 469 379 451 364 q 475 392 475 383 q 468 415 475 403 q 467 414 468 414 q 464 410 467 414 q 463 408 464 410 q 461 406 463 407 q 447 393 456 400 q 432 383 442 389 l 424 378 l 415 374 q 413 375 414 374 q 414 376 413 376 l 422 382 l 429 386 q 443 397 439 393 q 456 411 451 404 q 457 413 456 411 q 458 414 458 414 q 459 415 458 414 q 460 418 460 417 q 463 422 461 419 q 463 424 463 424 q 449 440 457 433 q 447 438 447 438 q 445 433 447 436 q 442 429 443 429 m 232 182 q 235 185 232 182 q 245 188 238 188 q 258 182 253 188 q 263 169 263 176 q 258 157 263 163 q 245 151 253 151 q 232 157 238 151 q 226 169 226 163 q 232 182 226 176 m 181 191 q 183 197 181 191 q 198 197 186 203 q 204 180 210 192 q 187 174 199 168 q 181 191 175 179 m 142 208 q 144 212 142 208 q 155 213 146 217 q 160 199 164 208 q 147 194 156 190 q 142 208 138 199 m 103 222 q 105 226 103 222 q 115 226 107 229 q 119 215 122 222 q 108 212 115 208 q 103 222 100 215 m 290 197 q 297 199 290 197 q 308 189 303 201 q 300 172 313 176 q 283 179 288 167 q 290 197 278 192 m 341 192 q 336 191 341 192 q 328 198 332 189 q 334 210 325 207 q 347 205 343 214 q 341 192 350 196 m 384 222 q 386 218 384 222 q 379 210 388 214 q 368 215 371 207 q 373 226 365 224 q 384 222 381 229 m 266 122 q 262 127 266 122 q 269 140 258 132 q 287 137 279 147 q 284 119 294 126 q 266 122 274 111 m 297 88 q 294 92 297 88 q 299 101 292 96 q 313 99 307 107 q 310 85 318 92 q 297 88 303 79 m 324 56 q 322 59 324 56 q 326 67 319 63 q 338 65 333 72 q 336 53 343 58 q 324 56 329 49 m 208 116 q 203 120 208 116 q 207 135 199 125 q 226 136 215 144 q 227 117 236 128 q 208 116 218 107 m 183 83 q 179 86 183 83 q 181 96 175 89 q 195 97 188 103 q 197 83 203 90 q 183 83 190 76 m 158 50 q 155 53 158 50 q 157 62 151 56 q 169 63 163 68 q 170 51 175 57 q 158 50 165 44 m 258 220 q 258 214 258 220 q 244 208 257 207 q 232 223 231 210 q 247 235 233 236 q 258 220 260 233 m 257 267 q 256 262 257 267 q 246 258 256 257 q 238 269 236 260 q 249 278 239 279 q 257 267 258 276 m 258 310 q 257 306 258 310 q 249 302 257 301 q 241 311 240 303 q 250 319 242 319 q 258 310 258 318 z "},"8":{"ha":638,"x_min":24,"x_max":613,"o":"m 613 360 q 601 339 613 347 q 511 310 579 317 q 515 261 515 286 q 444 75 517 149 q 325 11 394 26 q 321 8 322 10 q 335 -11 335 -1 q 329 -24 335 -18 q 286 -35 313 -35 q 278 -35 282 -35 q 265 -28 269 -33 q 272 1 256 -15 q 263 6 268 3 q 92 81 160 8 q 25 261 25 153 q 88 436 25 365 q 47 567 47 493 q 90 703 46 644 q 82 724 82 714 q 96 753 82 739 q 172 783 124 781 q 174 783 174 783 q 175 783 175 783 l 178 783 q 200 781 189 783 q 269 790 233 790 q 429 726 365 790 q 494 568 493 663 q 494 565 494 567 q 494 561 494 563 q 486 457 501 532 q 481 432 482 438 q 515 421 488 429 q 550 412 538 415 q 579 401 563 408 q 604 383 596 393 q 613 360 613 372 m 294 668 q 238 649 258 668 q 219 593 219 629 q 297 517 219 517 q 354 536 333 517 q 372 592 372 556 q 294 668 371 668 m 161 636 q 180 635 163 633 q 204 643 197 638 q 190 654 203 647 q 186 657 188 657 q 183 661 185 658 q 185 668 182 665 q 243 728 238 701 q 239 744 244 736 q 217 760 232 753 q 217 758 217 760 q 217 753 217 757 q 217 747 217 747 q 213 725 215 736 q 207 706 211 718 l 203 696 l 197 686 q 196 685 197 685 q 194 688 194 686 l 199 697 l 201 707 q 207 726 206 719 q 208 747 208 738 q 208 751 208 747 q 207 757 207 757 q 206 761 207 758 q 206 764 206 764 q 182 768 193 768 q 182 764 182 765 q 183 761 182 764 q 183 759 183 760 q 183 756 183 758 q 183 754 183 754 q 183 732 185 743 q 179 711 182 724 l 176 701 l 172 690 q 170 690 172 689 q 169 692 168 690 l 172 701 l 174 713 q 176 732 176 725 q 175 753 176 743 q 175 757 175 753 q 174 760 175 758 q 174 763 174 761 q 172 767 172 764 q 171 768 172 767 q 133 760 151 767 q 133 758 133 758 q 132 757 133 758 l 132 754 l 132 751 q 133 742 132 747 q 139 724 135 733 q 147 704 142 715 l 151 696 l 157 688 q 157 685 158 686 q 154 685 156 683 l 149 693 l 143 701 q 132 721 136 713 q 125 740 128 731 q 124 751 124 746 l 124 754 q 111 747 117 751 q 106 742 108 744 q 96 724 96 732 q 171 665 96 700 q 174 661 174 664 q 171 651 174 656 q 167 647 171 650 q 161 636 158 639 m 169 226 q 199 175 175 193 q 258 157 222 157 q 319 178 296 157 q 346 244 346 200 q 346 246 346 244 q 346 247 346 247 q 321 268 328 265 q 169 226 196 203 m 360 72 q 354 89 361 81 q 332 104 347 97 q 332 103 332 103 q 333 97 332 103 q 333 95 333 97 q 333 92 333 93 q 329 69 332 82 q 322 50 328 63 l 318 40 l 314 31 q 311 30 313 29 q 311 32 310 31 l 314 42 l 318 51 q 322 71 321 64 q 324 92 325 82 q 324 94 324 93 q 324 97 324 96 q 324 101 324 101 q 322 106 324 103 q 322 108 322 108 q 297 113 310 113 q 299 110 299 110 q 299 106 299 108 q 300 103 300 104 q 300 101 300 103 q 300 99 300 99 q 299 76 300 89 q 294 56 299 68 l 292 46 l 289 36 q 286 34 288 33 q 285 36 285 35 l 288 47 l 290 57 q 292 78 292 69 q 292 97 293 89 q 290 103 292 97 q 290 104 290 103 q 289 107 290 106 q 288 111 289 108 q 288 113 288 113 q 249 104 268 111 q 249 103 249 104 q 249 101 249 103 l 249 99 l 249 96 q 250 86 249 92 q 256 68 251 78 q 263 49 257 61 l 268 40 l 274 32 q 272 30 274 31 q 271 29 271 29 l 264 38 l 258 47 q 249 65 251 58 q 242 85 244 75 q 239 96 240 90 l 239 99 l 239 100 q 228 92 233 96 q 222 86 225 89 q 213 68 213 78 q 286 10 213 44 q 290 6 289 8 q 288 -4 290 0 q 283 -8 286 -6 q 276 -19 275 -17 q 296 -19 279 -22 q 319 -12 313 -17 l 321 -11 q 307 0 319 -8 q 303 1 304 1 q 300 6 301 3 q 301 13 297 10 q 360 72 354 47 m 588 354 q 590 360 590 357 q 510 400 590 381 q 488 406 494 404 q 472 412 481 408 q 461 420 464 415 q 458 431 458 425 q 464 461 460 438 q 468 567 482 547 q 458 572 465 572 q 428 563 446 575 q 401 540 411 551 q 371 506 390 528 q 338 469 347 478 q 263 464 325 458 q 192 463 197 471 q 251 379 182 450 q 264 367 260 371 q 268 354 268 361 q 231 308 268 342 q 183 243 172 257 q 313 288 196 226 q 321 290 317 290 q 382 240 336 290 q 469 176 454 165 q 447 258 479 183 q 432 324 424 314 q 446 331 438 331 q 531 335 488 328 q 588 354 574 342 m 174 283 q 215 325 185 297 q 217 326 217 325 q 218 326 218 326 q 194 313 204 321 q 174 283 181 301 m 374 364 q 371 361 374 364 q 360 358 368 358 q 348 364 353 358 q 343 376 343 369 q 348 389 343 383 q 360 394 353 394 q 374 389 368 394 q 379 376 379 383 q 374 364 379 369 m 394 410 q 392 408 394 410 q 384 406 390 406 q 374 410 378 406 q 369 420 369 414 q 374 431 369 426 q 384 435 378 435 q 394 431 390 435 q 399 420 399 426 q 394 410 399 414 m 414 453 q 414 447 414 453 q 402 440 414 440 q 390 453 390 440 q 402 465 390 465 q 414 453 414 465 m 410 487 q 410 492 410 487 q 420 497 410 497 q 431 487 431 497 q 420 476 431 476 q 410 487 410 476 m 449 524 q 449 519 449 524 q 440 514 449 514 q 431 524 431 514 q 440 533 431 533 q 449 524 449 533 m 391 366 q 388 373 391 366 q 398 385 385 379 q 417 377 411 390 q 410 358 424 364 q 391 366 397 353 m 431 364 q 428 369 431 364 q 437 380 425 375 q 453 374 449 385 q 447 358 458 363 q 431 364 436 353 m 471 362 q 469 366 471 362 q 476 375 467 371 q 489 370 485 379 q 484 357 493 361 q 471 362 475 353 m 513 360 q 511 364 513 360 q 518 372 510 368 q 530 367 526 375 q 525 355 533 358 q 513 360 517 351 m 366 342 q 370 347 366 342 q 386 344 375 353 q 389 324 397 335 q 369 322 381 313 q 366 342 357 331 m 383 306 q 386 310 383 306 q 400 308 390 315 q 402 290 410 300 q 385 288 394 281 q 383 306 375 296 m 400 270 q 403 274 400 270 q 415 272 407 278 q 416 257 422 265 q 401 256 410 249 q 400 270 393 263 m 419 218 q 416 221 419 218 q 418 231 413 224 q 431 233 424 239 q 432 220 438 228 q 419 218 426 213 m 306 352 q 309 359 306 352 q 326 358 313 365 q 332 338 339 351 q 313 332 325 325 q 306 352 300 339 m 276 329 q 279 335 276 329 q 293 335 282 340 q 299 318 304 329 q 282 313 293 307 q 276 329 271 318 m 247 308 q 249 312 247 308 q 260 312 251 317 q 265 298 269 307 q 251 294 261 289 q 247 308 242 299 m 214 283 q 216 288 214 283 q 226 288 218 292 q 230 275 235 283 q 217 271 225 267 q 214 283 210 275 m 324 408 q 331 406 324 408 q 332 390 338 403 q 313 382 326 376 q 306 401 300 388 q 324 408 311 414 m 299 414 q 299 408 299 414 q 286 402 299 401 q 274 415 274 403 q 286 426 274 426 q 299 414 299 426 m 243 433 q 243 438 243 433 q 253 443 243 443 q 263 433 264 443 q 253 423 263 422 q 243 433 243 424 m 215 448 q 215 452 215 448 q 224 457 215 457 q 233 448 233 457 q 223 439 232 439 q 215 448 214 439 z "},"9":{"ha":696,"x_min":24,"x_max":674,"o":"m 617 344 q 669 281 674 303 q 658 264 667 269 q 600 267 643 254 q 533 143 576 197 q 439 60 489 89 q 349 17 389 32 q 278 0 308 3 q 207 20 233 -3 q 178 75 181 43 q 197 137 175 107 q 258 174 218 167 q 258 176 258 176 q 271 203 256 194 q 278 204 274 204 q 283 206 281 206 q 293 214 286 211 q 300 216 296 215 q 308 217 304 217 q 315 222 311 221 q 322 225 319 225 q 338 222 331 226 q 342 225 339 224 q 365 282 358 250 q 279 297 283 278 q 281 308 278 303 q 236 306 254 304 q 77 382 129 317 q 25 554 25 447 q 92 732 24 672 q 256 792 161 792 q 274 791 263 792 q 321 784 286 790 q 388 767 356 778 q 460 733 419 757 q 531 678 500 710 q 586 594 561 646 q 618 478 611 542 q 625 474 622 475 q 631 460 631 468 q 621 436 631 450 q 621 386 622 411 q 617 344 621 367 m 256 611 q 249 610 253 613 q 196 543 235 564 q 235 562 218 543 q 260 599 253 581 q 260 608 263 604 q 256 611 258 611 m 149 557 q 164 549 151 551 q 149 569 156 557 q 149 571 149 571 q 149 557 146 561 m 156 572 q 169 553 161 560 q 164 639 151 600 q 160 642 163 640 q 144 633 149 646 q 144 608 142 626 q 156 572 147 589 m 172 638 q 175 554 160 601 q 190 638 175 607 q 185 642 188 640 q 172 638 176 644 m 197 635 q 182 551 179 599 q 217 628 207 589 q 208 638 215 635 q 197 635 201 640 m 224 626 q 190 549 214 586 q 242 614 231 569 q 235 628 244 624 q 224 626 228 629 m 225 544 q 193 536 210 536 q 213 533 204 531 q 225 544 221 535 m 204 521 q 308 478 236 486 q 404 496 379 471 q 408 533 400 525 q 355 580 396 561 q 272 604 314 599 q 271 594 272 599 q 239 550 261 568 q 214 521 233 525 q 208 521 211 521 q 204 521 207 521 m 310 114 q 328 114 317 110 q 304 125 317 117 q 304 125 304 125 q 310 114 306 117 m 308 131 q 331 121 321 122 q 285 193 292 153 q 279 193 282 193 q 269 179 268 192 q 283 156 271 171 q 308 131 294 142 m 292 196 q 335 124 299 158 q 308 204 310 169 q 301 206 306 206 q 292 196 293 204 m 343 125 q 336 208 346 169 q 325 213 332 214 q 315 206 318 213 q 343 125 317 165 m 343 210 q 350 126 354 171 q 365 208 376 164 q 351 217 363 218 q 343 210 346 215 m 360 117 q 378 122 371 117 q 383 140 385 128 q 360 117 374 125 m 358 125 q 384 160 378 135 q 389 203 390 185 q 383 213 388 208 q 379 214 382 214 q 374 207 375 213 q 358 125 383 161 m 649 279 q 651 283 651 281 q 635 307 653 292 q 592 342 618 322 q 550 382 551 371 q 554 392 550 388 l 557 393 q 613 460 615 450 q 528 439 600 471 q 505 443 517 433 q 471 478 493 453 q 421 521 432 524 q 426 474 419 515 q 429 408 435 421 q 375 364 425 400 q 297 301 306 314 q 411 303 314 294 q 438 304 433 304 q 447 301 443 304 q 453 290 450 299 q 458 275 457 282 q 463 254 460 268 q 496 179 479 182 q 515 233 504 179 q 535 288 525 278 q 597 286 546 300 q 649 279 640 274 m 476 374 q 478 377 476 374 q 488 379 481 379 q 499 374 494 379 q 503 363 503 369 q 499 352 503 357 q 488 347 494 347 q 476 352 481 347 q 472 363 472 357 q 476 374 472 369 m 424 351 q 425 357 424 351 q 438 362 425 363 q 449 349 450 361 q 435 338 447 336 q 424 351 424 339 m 388 335 q 389 340 388 335 q 398 344 389 344 q 406 334 407 343 q 397 326 406 325 q 388 335 388 326 m 349 322 q 349 325 349 322 q 355 327 349 328 q 360 321 361 326 q 354 315 360 315 q 349 322 349 315 m 538 401 q 539 395 538 401 q 528 387 540 389 q 515 397 517 385 q 524 412 513 410 q 538 401 536 414 m 569 424 q 570 420 569 424 q 562 414 571 415 q 551 422 553 413 q 559 432 550 431 q 569 424 568 433 m 476 328 q 478 333 476 328 q 492 334 481 339 q 499 318 503 329 q 483 312 494 307 q 476 328 472 317 m 481 285 q 483 289 481 285 q 493 290 485 293 q 499 278 501 286 q 487 273 496 269 q 481 285 478 276 m 485 239 q 486 242 485 239 q 493 242 488 244 q 497 235 499 240 q 489 231 494 229 q 485 239 483 233 m 517 336 q 513 341 517 336 q 518 353 508 346 q 535 351 528 361 q 534 334 543 342 q 517 336 525 326 m 557 319 q 554 323 557 319 q 558 333 551 326 q 571 332 565 339 q 569 319 576 325 q 557 319 563 313 m 599 301 q 597 303 599 301 q 599 310 594 306 q 608 309 604 314 q 608 301 613 304 q 599 301 603 297 m 473 413 q 479 413 473 413 q 485 401 485 413 q 472 390 485 389 q 460 402 460 390 q 473 413 461 414 m 456 449 q 461 449 456 449 q 465 440 465 449 q 456 431 465 431 q 447 440 447 431 q 456 449 447 450 m 447 481 q 446 478 447 481 q 440 476 446 475 q 435 482 435 476 q 441 488 435 488 q 447 481 447 488 z "},"\u000b":{"ha":732,"x_min":69,"x_max":663,"o":"m 69 972 l 663 972 l 663 0 l 69 0 l 69 972 m 108 944 l 365 515 l 624 944 l 108 944 m 349 486 l 99 903 l 99 68 l 349 486 m 367 457 l 110 29 l 624 29 l 367 457 m 383 486 l 635 65 l 635 906 l 383 486 z "},"\f":{"ha":732,"x_min":69,"x_max":663,"o":"m 69 972 l 663 972 l 663 0 l 69 0 l 69 972 m 108 944 l 365 515 l 624 944 l 108 944 m 349 486 l 99 903 l 99 68 l 349 486 m 367 457 l 110 29 l 624 29 l 367 457 m 383 486 l 635 65 l 635 906 l 383 486 z "},"¤":{"ha":732,"x_min":69,"x_max":663,"o":"m 69 972 l 663 972 l 663 0 l 69 0 l 69 972 m 108 944 l 365 515 l 624 944 l 108 944 m 349 486 l 99 903 l 99 68 l 349 486 m 367 457 l 110 29 l 624 29 l 367 457 m 383 486 l 635 65 l 635 906 l 383 486 z "},"¦":{"ha":732,"x_min":69,"x_max":663,"o":"m 69 972 l 663 972 l 663 0 l 69 0 l 69 972 m 108 944 l 365 515 l 624 944 l 108 944 m 349 486 l 99 903 l 99 68 l 349 486 m 367 457 l 110 29 l 624 29 l 367 457 m 383 486 l 635 65 l 635 906 l 383 486 z "},"¨":{"ha":732,"x_min":69,"x_max":663,"o":"m 69 972 l 663 972 l 663 0 l 69 0 l 69 972 m 108 944 l 365 515 l 624 944 l 108 944 m 349 486 l 99 903 l 99 68 l 349 486 m 367 457 l 110 29 l 624 29 l 367 457 m 383 486 l 635 65 l 635 906 l 383 486 z "},"ª":{"ha":732,"x_min":69,"x_max":663,"o":"m 69 972 l 663 972 l 663 0 l 69 0 l 69 972 m 108 944 l 365 515 l 624 944 l 108 944 m 349 486 l 99 903 l 99 68 l 349 486 m 367 457 l 110 29 l 624 29 l 367 457 m 383 486 l 635 65 l 635 906 l 383 486 z "},"¬":{"ha":732,"x_min":69,"x_max":663,"o":"m 69 972 l 663 972 l 663 0 l 69 0 l 69 972 m 108 944 l 365 515 l 624 944 l 108 944 m 349 486 l 99 903 l 99 68 l 349 486 m 367 457 l 110 29 l 624 29 l 367 457 m 383 486 l 635 65 l 635 906 l 383 486 z "},"¯":{"ha":732,"x_min":69,"x_max":663,"o":"m 69 972 l 663 972 l 663 0 l 69 0 l 69 972 m 108 944 l 365 515 l 624 944 l 108 944 m 349 486 l 99 903 l 99 68 l 349 486 m 367 457 l 110 29 l 624 29 l 367 457 m 383 486 l 635 65 l 635 906 l 383 486 z "},"´":{"ha":732,"x_min":69,"x_max":663,"o":"m 69 972 l 663 972 l 663 0 l 69 0 l 69 972 m 108 944 l 365 515 l 624 944 l 108 944 m 349 486 l 99 903 l 99 68 l 349 486 m 367 457 l 110 29 l 624 29 l 367 457 m 383 486 l 635 65 l 635 906 l 383 486 z "},"µ":{"ha":732,"x_min":69,"x_max":663,"o":"m 69 972 l 663 972 l 663 0 l 69 0 l 69 972 m 108 944 l 365 515 l 624 944 l 108 944 m 349 486 l 99 903 l 99 68 l 349 486 m 367 457 l 110 29 l 624 29 l 367 457 m 383 486 l 635 65 l 635 906 l 383 486 z "},"¶":{"ha":732,"x_min":69,"x_max":663,"o":"m 69 972 l 663 972 l 663 0 l 69 0 l 69 972 m 108 944 l 365 515 l 624 944 l 108 944 m 349 486 l 99 903 l 99 68 l 349 486 m 367 457 l 110 29 l 624 29 l 367 457 m 383 486 l 635 65 l 635 906 l 383 486 z "},"¸":{"ha":732,"x_min":69,"x_max":663,"o":"m 69 972 l 663 972 l 663 0 l 69 0 l 69 972 m 108 944 l 365 515 l 624 944 l 108 944 m 349 486 l 99 903 l 99 68 l 349 486 m 367 457 l 110 29 l 624 29 l 367 457 m 383 486 l 635 65 l 635 906 l 383 486 z "},"º":{"ha":732,"x_min":69,"x_max":663,"o":"m 69 972 l 663 972 l 663 0 l 69 0 l 69 972 m 108 944 l 365 515 l 624 944 l 108 944 m 349 486 l 99 903 l 99 68 l 349 486 m 367 457 l 110 29 l 624 29 l 367 457 m 383 486 l 635 65 l 635 906 l 383 486 z "},"¼":{"ha":732,"x_min":69,"x_max":663,"o":"m 69 972 l 663 972 l 663 0 l 69 0 l 69 972 m 108 944 l 365 515 l 624 944 l 108 944 m 349 486 l 99 903 l 99 68 l 349 486 m 367 457 l 110 29 l 624 29 l 367 457 m 383 486 l 635 65 l 635 906 l 383 486 z "},"½":{"ha":732,"x_min":69,"x_max":663,"o":"m 69 972 l 663 972 l 663 0 l 69 0 l 69 972 m 108 944 l 365 515 l 624 944 l 108 944 m 349 486 l 99 903 l 99 68 l 349 486 m 367 457 l 110 29 l 624 29 l 367 457 m 383 486 l 635 65 l 635 906 l 383 486 z "},"¾":{"ha":732,"x_min":69,"x_max":663,"o":"m 69 972 l 663 972 l 663 0 l 69 0 l 69 972 m 108 944 l 365 515 l 624 944 l 108 944 m 349 486 l 99 903 l 99 68 l 349 486 m 367 457 l 110 29 l 624 29 l 367 457 m 383 486 l 635 65 l 635 906 l 383 486 z "},"Æ":{"ha":732,"x_min":69,"x_max":663,"o":"m 69 972 l 663 972 l 663 0 l 69 0 l 69 972 m 108 944 l 365 515 l 624 944 l 108 944 m 349 486 l 99 903 l 99 68 l 349 486 m 367 457 l 110 29 l 624 29 l 367 457 m 383 486 l 635 65 l 635 906 l 383 486 z "},"Ð":{"ha":732,"x_min":69,"x_max":663,"o":"m 69 972 l 663 972 l 663 0 l 69 0 l 69 972 m 108 944 l 365 515 l 624 944 l 108 944 m 349 486 l 99 903 l 99 68 l 349 486 m 367 457 l 110 29 l 624 29 l 367 457 m 383 486 l 635 65 l 635 906 l 383 486 z "},"Þ":{"ha":732,"x_min":69,"x_max":663,"o":"m 69 972 l 663 972 l 663 0 l 69 0 l 69 972 m 108 944 l 365 515 l 624 944 l 108 944 m 349 486 l 99 903 l 99 68 l 349 486 m 367 457 l 110 29 l 624 29 l 367 457 m 383 486 l 635 65 l 635 906 l 383 486 z "},"æ":{"ha":732,"x_min":69,"x_max":663,"o":"m 69 972 l 663 972 l 663 0 l 69 0 l 69 972 m 108 944 l 365 515 l 624 944 l 108 944 m 349 486 l 99 903 l 99 68 l 349 486 m 367 457 l 110 29 l 624 29 l 367 457 m 383 486 l 635 65 l 635 906 l 383 486 z "},"ð":{"ha":732,"x_min":69,"x_max":663,"o":"m 69 972 l 663 972 l 663 0 l 69 0 l 69 972 m 108 944 l 365 515 l 624 944 l 108 944 m 349 486 l 99 903 l 99 68 l 349 486 m 367 457 l 110 29 l 624 29 l 367 457 m 383 486 l 635 65 l 635 906 l 383 486 z "},"þ":{"ha":732,"x_min":69,"x_max":663,"o":"m 69 972 l 663 972 l 663 0 l 69 0 l 69 972 m 108 944 l 365 515 l 624 944 l 108 944 m 349 486 l 99 903 l 99 68 l 349 486 m 367 457 l 110 29 l 624 29 l 367 457 m 383 486 l 635 65 l 635 906 l 383 486 z "},"―":{"ha":732,"x_min":69,"x_max":663,"o":"m 69 972 l 663 972 l 663 0 l 69 0 l 69 972 m 108 944 l 365 515 l 624 944 l 108 944 m 349 486 l 99 903 l 99 68 l 349 486 m 367 457 l 110 29 l 624 29 l 367 457 m 383 486 l 635 65 l 635 906 l 383 486 z "},"‖":{"ha":732,"x_min":69,"x_max":663,"o":"m 69 972 l 663 972 l 663 0 l 69 0 l 69 972 m 108 944 l 365 515 l 624 944 l 108 944 m 349 486 l 99 903 l 99 68 l 349 486 m 367 457 l 110 29 l 624 29 l 367 457 m 383 486 l 635 65 l 635 906 l 383 486 z "},"‗":{"ha":732,"x_min":69,"x_max":663,"o":"m 69 972 l 663 972 l 663 0 l 69 0 l 69 972 m 108 944 l 365 515 l 624 944 l 108 944 m 349 486 l 99 903 l 99 68 l 349 486 m 367 457 l 110 29 l 624 29 l 367 457 m 383 486 l 635 65 l 635 906 l 383 486 z "},"‚":{"ha":732,"x_min":69,"x_max":663,"o":"m 69 972 l 663 972 l 663 0 l 69 0 l 69 972 m 108 944 l 365 515 l 624 944 l 108 944 m 349 486 l 99 903 l 99 68 l 349 486 m 367 457 l 110 29 l 624 29 l 367 457 m 383 486 l 635 65 l 635 906 l 383 486 z "},"‛":{"ha":732,"x_min":69,"x_max":663,"o":"m 69 972 l 663 972 l 663 0 l 69 0 l 69 972 m 108 944 l 365 515 l 624 944 l 108 944 m 349 486 l 99 903 l 99 68 l 349 486 m 367 457 l 110 29 l 624 29 l 367 457 m 383 486 l 635 65 l 635 906 l 383 486 z "},"‟":{"ha":732,"x_min":69,"x_max":663,"o":"m 69 972 l 663 972 l 663 0 l 69 0 l 69 972 m 108 944 l 365 515 l 624 944 l 108 944 m 349 486 l 99 903 l 99 68 l 349 486 m 367 457 l 110 29 l 624 29 l 367 457 m 383 486 l 635 65 l 635 906 l 383 486 z "},"\u0000":{"ha":0,"x_min":0,"x_max":0,"o":""},"\n":{"ha":0,"x_min":0,"x_max":0,"o":""},"\r":{"ha":0,"x_min":0,"x_max":0,"o":""}," ":{"ha":347,"x_min":0,"x_max":0,"o":""},"!":{"ha":363,"x_min":22,"x_max":339,"o":"m 213 19 q 203 10 213 19 q 166 0 193 0 q 119 19 139 0 q 100 66 100 39 q 119 112 100 93 q 166 131 139 131 q 213 112 193 131 q 232 66 232 93 q 213 19 232 39 m 283 321 q 325 285 313 299 q 336 261 338 272 q 328 247 335 251 q 275 251 315 240 q 239 257 243 261 q 229 226 235 253 l 228 215 q 219 188 228 200 q 199 165 211 165 q 196 167 197 165 q 190 168 193 167 q 132 172 160 158 q 104 215 104 185 l 103 263 q 25 275 29 258 q 38 297 24 283 q 93 339 51 310 q 99 343 94 340 l 85 665 q 79 672 81 668 q 79 697 74 682 q 75 746 68 728 q 82 756 76 751 q 131 786 89 778 q 213 783 174 794 q 251 749 251 772 l 238 408 q 300 414 285 428 q 306 403 306 410 q 257 342 306 388 q 283 321 261 336 m 179 724 q 172 721 175 725 q 128 665 161 683 q 161 681 146 665 q 182 713 176 697 q 182 719 183 717 q 179 724 181 722 m 153 667 q 126 660 139 660 q 142 656 135 654 q 153 667 149 658 m 160 736 q 150 735 156 738 q 122 671 143 701 q 167 725 157 688 q 160 736 168 733 m 144 738 q 139 745 144 743 q 129 743 133 747 q 115 672 113 713 q 144 738 138 704 m 107 744 q 110 675 96 715 q 122 744 110 718 q 118 749 121 747 q 107 744 111 750 m 83 742 q 93 690 76 724 q 106 674 99 679 q 101 746 90 713 q 97 749 99 747 q 83 742 88 751 m 88 676 q 100 669 90 672 q 88 688 93 676 q 88 689 88 689 q 88 676 85 681 m 319 260 q 322 264 321 261 q 308 282 322 269 q 274 310 294 294 q 242 342 242 333 q 244 349 242 346 l 246 351 q 290 404 293 396 q 224 386 281 413 q 178 417 210 381 q 139 453 147 454 q 143 415 138 447 q 144 363 150 372 q 101 328 142 356 q 40 278 46 288 q 131 279 53 272 q 151 281 147 281 q 163 272 160 281 q 172 240 167 263 q 197 181 185 182 q 214 224 204 179 q 228 267 221 260 q 279 265 238 276 q 319 260 313 256 m 179 326 q 179 333 179 326 q 192 339 179 339 q 204 326 204 339 q 192 314 204 314 q 179 326 179 314 m 141 317 q 141 322 141 317 q 151 326 142 326 q 160 315 161 325 q 150 306 160 306 q 141 317 140 307 m 112 305 q 112 309 112 305 q 120 312 113 313 q 127 304 128 311 q 119 297 126 297 q 112 305 111 297 m 81 294 q 81 296 81 294 q 85 298 81 299 q 90 292 90 297 q 85 288 90 288 q 81 294 81 289 m 231 357 q 232 352 231 357 q 224 346 233 347 q 213 354 214 344 q 220 365 211 364 q 231 357 229 367 m 256 376 q 257 372 256 376 q 250 367 257 368 q 242 374 243 367 q 248 382 240 381 q 256 376 256 383 m 183 298 q 184 302 183 298 q 195 303 186 307 q 201 291 204 300 q 188 285 197 282 q 183 298 179 289 m 186 264 q 188 267 186 264 q 196 268 189 271 q 200 259 203 265 q 190 255 197 253 q 186 264 183 257 m 190 228 q 191 230 190 228 q 196 231 192 232 q 199 224 200 229 q 192 222 197 219 q 190 228 188 224 m 215 305 q 211 309 215 305 q 216 319 208 313 q 230 317 224 325 q 228 303 236 310 q 215 305 221 297 m 247 292 q 244 295 247 292 q 247 303 242 299 q 258 301 253 307 q 257 291 263 296 q 247 292 251 286 m 280 278 q 278 280 280 278 q 281 285 276 282 q 288 284 285 288 q 287 277 290 281 q 280 278 283 274 m 180 367 q 184 367 180 367 q 189 357 189 367 q 179 348 189 347 q 170 358 169 349 q 180 367 171 367 m 167 395 q 170 395 167 395 q 174 388 174 394 q 166 381 174 381 q 159 388 158 381 q 167 395 160 396 m 158 420 q 158 418 158 420 q 153 416 158 415 q 149 422 149 417 q 153 426 149 426 q 158 420 158 425 z "},"\"":{"ha":315,"x_min":25,"x_max":290,"o":"m 43 746 q 52 756 43 746 q 88 765 61 765 q 132 746 114 765 q 150 699 150 726 q 141 668 150 693 q 124 621 132 643 l 114 600 q 75 574 103 574 q 60 578 67 574 q 37 599 43 583 q 38 632 31 615 l 44 650 q 25 699 25 669 q 43 746 25 726 m 183 746 q 192 756 183 746 q 227 765 201 765 q 272 746 253 765 q 290 699 290 726 q 281 668 290 693 q 263 621 272 643 l 254 600 q 215 574 243 574 q 199 578 207 574 q 177 599 183 583 q 176 632 171 615 l 185 650 q 165 699 165 669 q 183 746 165 726 z "},"”":{"ha":315,"x_min":25,"x_max":290,"o":"m 43 746 q 52 756 43 746 q 88 765 61 765 q 132 746 114 765 q 150 699 150 726 q 141 668 150 693 q 124 621 132 643 l 114 600 q 75 574 103 574 q 60 578 67 574 q 37 599 43 583 q 38 632 31 615 l 44 650 q 25 699 25 669 q 43 746 25 726 m 183 746 q 192 756 183 746 q 227 765 201 765 q 272 746 253 765 q 290 699 290 726 q 281 668 290 693 q 263 621 272 643 l 254 600 q 215 574 243 574 q 199 578 207 574 q 177 599 183 583 q 176 632 171 615 l 185 650 q 165 699 165 669 q 183 746 165 726 z "},"#":{"ha":793,"x_min":14,"x_max":769,"o":"m 701 376 q 625 382 671 379 q 622 308 622 347 l 650 308 q 714 283 688 308 q 740 220 740 257 q 714 157 740 183 q 650 131 688 131 q 649 130 650 131 q 649 129 649 129 q 633 100 646 107 q 625 97 629 97 q 625 87 625 92 q 626 78 625 82 q 626 73 626 75 q 626 69 626 71 q 626 67 626 68 q 573 17 628 32 q 462 18 518 3 q 404 67 406 33 q 407 140 404 78 l 336 143 q 339 122 338 132 q 342 103 340 111 q 344 87 343 94 q 345 74 344 79 q 347 64 346 68 q 348 58 347 60 q 349 56 349 56 q 331 17 351 33 q 278 -6 311 0 q 213 -12 246 -12 q 156 -1 181 -12 q 128 31 131 11 q 122 150 125 51 l 92 151 q 33 195 50 154 q 33 274 15 236 q 92 308 50 313 l 121 308 q 125 419 122 367 q 101 421 122 419 q 51 458 64 424 q 56 525 39 493 q 107 554 72 557 l 135 554 q 143 618 139 589 q 146 635 142 626 q 167 732 154 689 q 221 767 175 765 q 304 744 267 769 q 333 686 342 719 q 329 669 331 679 q 333 657 332 664 q 325 583 339 619 q 328 554 331 567 l 458 554 q 515 760 483 679 q 544 785 522 779 q 592 786 567 792 q 639 768 617 781 q 672 736 661 756 q 676 697 683 717 q 640 554 654 640 l 701 554 q 744 535 726 554 q 765 489 761 515 q 765 437 769 463 q 744 393 761 411 q 701 376 726 375 m 306 668 q 299 660 300 668 q 279 546 313 597 q 315 595 307 561 q 319 656 322 629 q 313 667 318 663 q 306 668 310 669 m 282 536 q 307 544 299 536 q 314 568 315 553 q 282 536 301 547 m 269 672 q 257 663 260 671 q 269 549 272 610 q 288 663 303 600 q 269 672 283 674 m 247 661 q 231 667 240 669 q 219 656 222 665 q 258 546 222 600 q 247 661 263 607 m 200 654 q 188 642 189 653 q 249 544 197 590 q 210 654 213 607 q 200 654 206 656 m 171 638 q 157 618 154 635 q 175 587 158 607 q 213 553 192 567 q 243 540 228 543 q 178 638 189 583 q 171 638 175 639 m 239 531 q 207 544 224 533 q 206 546 207 544 q 215 529 208 533 q 239 531 222 525 m 465 209 q 455 234 465 209 q 449 272 444 260 q 499 314 453 285 q 539 360 544 343 q 508 374 535 372 q 456 372 482 375 q 415 378 431 368 q 390 438 404 386 q 360 490 376 490 q 329 438 343 490 q 304 378 315 386 q 263 372 289 368 q 211 374 238 375 q 181 360 185 372 q 220 314 175 343 q 269 272 265 285 q 254 209 274 260 q 249 149 235 158 q 304 173 263 139 q 360 207 346 207 q 415 173 374 207 q 471 149 457 139 q 465 209 485 158 m 544 142 q 551 122 543 129 q 571 115 558 115 q 544 142 554 125 m 540 215 q 544 165 538 193 q 574 124 551 138 q 558 219 546 167 q 551 226 556 226 q 546 225 549 226 q 540 215 542 222 m 567 221 q 582 126 554 169 q 593 222 579 176 q 582 229 590 228 q 567 221 571 232 m 628 110 q 636 124 633 114 q 635 124 636 124 q 608 111 621 114 q 628 110 621 107 m 658 200 q 604 118 650 154 q 631 131 617 121 q 661 158 647 142 q 676 185 675 175 q 665 201 679 199 q 658 200 661 201 m 640 215 q 632 214 636 215 q 600 122 629 175 q 650 204 643 161 q 640 215 650 214 m 624 217 q 614 225 622 224 q 601 219 606 226 q 590 124 588 175 q 624 217 622 169 m 342 308 q 344 311 342 308 q 355 314 347 314 q 367 308 363 314 q 372 296 372 303 q 367 283 372 289 q 355 278 363 278 q 342 283 347 278 q 336 296 336 289 q 342 308 336 303 m 290 317 q 293 323 290 317 q 308 324 296 329 q 315 306 321 318 q 297 300 308 294 q 290 317 285 306 m 251 334 q 253 339 251 334 q 265 338 256 343 q 269 325 274 333 q 256 321 265 317 q 251 334 247 325 m 213 349 q 215 352 213 349 q 224 352 217 356 q 228 342 232 349 q 217 338 225 335 q 213 349 210 342 m 400 323 q 406 325 400 323 q 417 315 413 328 q 410 298 422 303 q 392 306 397 293 q 400 323 388 318 m 438 324 q 436 329 438 324 q 444 337 435 333 q 456 331 453 340 q 451 319 460 322 q 438 324 442 315 m 478 342 q 476 346 478 342 q 483 353 475 350 q 494 347 492 356 q 489 336 497 339 q 478 342 481 333 m 376 248 q 372 253 376 248 q 378 266 368 258 q 397 263 389 274 q 394 245 404 253 q 376 248 383 238 m 407 214 q 404 218 407 214 q 409 228 401 222 q 422 226 417 233 q 420 212 428 218 q 407 214 413 206 m 434 182 q 432 185 434 182 q 436 194 429 189 q 448 192 443 199 q 446 180 453 185 q 434 182 439 175 m 318 242 q 313 247 318 242 q 317 261 308 251 q 335 263 325 271 q 337 244 346 254 q 318 242 328 233 m 292 209 q 289 212 292 209 q 291 222 285 215 q 305 223 297 229 q 306 210 313 217 q 292 209 300 203 m 269 176 q 266 178 269 176 q 267 188 263 181 q 278 189 272 194 q 280 177 285 183 q 269 176 275 171 m 368 347 q 367 340 368 347 q 353 335 367 333 q 342 349 340 336 q 356 361 343 363 q 368 347 369 360 m 367 393 q 366 388 367 393 q 356 384 365 383 q 347 395 346 385 q 358 404 349 406 q 367 393 368 403 m 367 436 q 367 432 367 436 q 358 428 367 428 q 350 436 350 428 q 358 444 350 444 q 367 436 367 444 z "},"$":{"ha":704,"x_min":14,"x_max":683,"o":"m 660 254 q 678 240 674 253 q 672 218 682 226 q 642 194 658 208 q 639 175 640 185 q 581 75 624 113 l 601 -3 q 592 -24 603 -15 q 569 -25 582 -32 q 488 25 525 8 q 425 11 460 17 q 425 -39 425 -17 q 406 -67 426 -58 q 364 -69 385 -76 q 342 -39 343 -61 q 340 -24 342 -32 l 339 -25 q 316 -24 326 -32 q 307 -3 306 -15 q 310 4 308 0 q 114 47 226 8 q 90 85 94 54 q 92 154 85 115 q 114 230 100 193 q 148 289 128 267 q 186 304 168 311 q 235 285 193 301 q 307 257 276 268 q 376 274 361 261 q 401 307 388 281 q 340 328 378 315 q 297 342 301 340 q 125 417 174 385 q 26 596 15 488 q 158 746 36 699 q 158 750 158 750 q 163 774 156 764 q 183 788 171 785 q 188 788 185 788 q 192 788 189 788 q 213 804 197 801 q 218 804 215 804 q 224 804 221 804 q 243 817 232 814 q 249 817 246 817 q 264 813 257 817 q 282 821 271 819 q 283 821 282 821 l 281 844 q 307 868 282 861 q 357 868 332 875 q 382 844 382 861 q 381 785 381 819 q 428 786 406 786 q 470 785 450 786 q 505 784 490 785 q 529 783 519 783 q 539 783 539 783 q 586 738 574 785 q 581 644 599 690 q 525 601 563 599 q 349 603 388 611 q 288 573 299 590 q 298 540 278 556 q 354 514 318 525 q 644 254 631 432 l 660 254 m 297 671 q 322 679 313 671 q 329 703 331 688 q 297 671 317 682 m 321 803 q 313 796 315 803 q 294 681 328 733 q 329 730 321 696 q 333 790 338 764 q 328 801 333 797 q 321 803 324 804 m 229 665 q 253 665 238 660 q 221 681 238 669 q 219 681 221 681 q 229 665 224 668 m 226 689 q 257 675 243 678 q 193 772 204 718 q 185 774 189 774 q 172 753 169 771 q 190 723 174 743 q 226 689 206 703 m 203 776 q 264 679 211 725 q 224 789 228 742 q 215 790 219 790 q 203 776 204 788 m 274 681 q 261 796 278 742 q 246 802 256 804 q 233 792 236 800 q 274 681 238 735 m 271 797 q 283 683 288 744 q 303 797 318 735 q 283 807 297 810 q 271 797 275 806 m 559 76 q 549 101 559 76 q 543 139 539 126 q 593 181 547 151 q 633 226 639 210 q 603 240 629 239 q 551 238 576 240 q 510 244 525 235 q 485 303 499 251 q 454 356 471 356 q 424 303 438 356 q 399 244 410 251 q 358 238 383 235 q 306 240 332 240 q 275 226 279 239 q 315 181 269 210 q 364 139 360 151 q 349 76 368 126 q 343 15 329 25 q 399 40 357 6 q 454 74 440 74 q 510 40 468 74 q 565 15 551 6 q 559 76 579 25 m 462 149 q 459 147 462 149 q 449 144 457 144 q 436 149 442 144 q 431 162 431 154 q 436 175 431 169 q 449 181 442 181 q 462 175 457 181 q 467 162 467 169 q 462 149 467 154 m 385 184 q 388 190 385 184 q 403 190 390 196 q 409 173 415 185 q 391 167 403 161 q 385 184 379 172 m 346 200 q 348 204 346 200 q 359 204 350 208 q 364 192 368 200 q 351 188 360 183 q 346 200 342 192 m 308 215 q 309 219 308 215 q 319 219 311 222 q 323 208 326 215 q 312 204 319 200 q 308 215 304 208 m 494 189 q 501 191 494 189 q 512 181 507 193 q 504 165 517 169 q 487 172 492 160 q 494 189 482 185 m 533 191 q 531 195 533 191 q 538 203 529 200 q 551 198 547 207 q 545 185 554 189 q 533 191 536 182 m 572 208 q 571 211 572 208 q 578 218 569 215 q 589 213 586 221 q 583 203 592 206 q 572 208 575 200 m 470 115 q 466 120 470 115 q 473 133 463 125 q 491 130 483 140 q 488 112 499 119 q 470 115 478 104 m 501 81 q 499 85 501 81 q 503 94 496 89 q 517 92 511 100 q 515 78 522 83 q 501 81 507 72 m 528 49 q 526 52 528 49 q 531 60 524 56 q 542 58 538 65 q 540 47 547 51 q 528 49 533 42 m 413 108 q 408 113 413 108 q 411 127 403 117 q 430 129 419 138 q 431 110 440 121 q 413 108 422 100 m 387 74 q 383 77 387 74 q 385 88 379 81 q 399 90 392 96 q 401 76 407 83 q 387 74 394 68 m 363 42 q 360 45 363 42 q 362 53 357 47 q 373 55 367 60 q 374 44 379 50 q 363 42 369 38 m 463 213 q 462 207 463 213 q 448 201 461 200 q 436 216 435 203 q 451 228 438 229 q 463 213 464 226 m 461 260 q 460 255 461 260 q 450 251 460 250 q 442 261 440 251 q 453 270 443 271 q 461 260 463 269 m 462 301 q 461 297 462 301 q 453 294 461 293 q 445 303 444 296 q 454 310 446 311 q 462 301 463 310 z "},"%":{"ha":822,"x_min":24,"x_max":797,"o":"m 315 436 q 199 388 267 388 q 74 443 124 388 q 25 585 25 499 q 81 735 25 679 q 197 783 129 783 q 322 728 272 783 q 371 586 371 672 q 315 436 372 493 m 156 586 q 167 510 157 542 q 199 479 178 479 q 221 492 213 479 q 240 585 240 521 q 229 660 240 629 q 197 692 218 692 q 175 679 185 692 q 156 586 156 650 m 622 392 q 747 336 697 392 q 796 194 796 281 q 740 44 797 101 q 624 -4 692 -4 q 529 25 571 -4 q 467 104 488 54 q 435 57 456 57 q 432 57 433 57 q 408 75 418 60 q 394 105 399 90 q 385 146 390 119 q 375 182 378 176 q 374 182 374 182 l 283 24 q 235 3 268 1 q 175 33 203 6 q 160 88 147 60 l 218 200 q 222 210 219 204 l 469 689 q 474 704 471 696 q 467 761 460 742 q 490 778 474 778 q 499 776 494 778 q 503 774 500 775 q 515 778 508 778 q 523 776 519 778 q 531 772 526 775 q 539 774 535 774 q 547 772 543 774 q 557 765 553 771 q 633 734 601 765 q 646 665 664 703 l 472 357 q 551 375 529 381 q 622 392 585 392 m 483 681 q 499 672 486 675 q 483 693 489 681 q 482 694 483 694 q 483 681 481 685 m 528 660 q 546 656 538 654 q 560 668 554 658 q 528 660 544 660 m 590 735 q 583 733 588 736 q 531 667 569 688 q 570 685 553 667 q 594 722 588 704 q 594 732 596 728 q 590 735 593 735 m 557 750 q 524 672 549 710 q 576 738 564 693 q 568 751 578 747 q 557 750 563 753 m 532 758 q 517 675 513 722 q 550 751 542 713 q 543 761 550 758 q 532 758 536 764 m 506 761 q 510 678 493 725 q 524 761 510 731 q 519 765 522 764 q 506 761 511 768 m 478 757 q 478 731 475 750 q 490 696 482 713 q 504 676 496 683 q 499 763 486 724 q 494 765 497 764 q 478 757 483 769 m 536 182 q 588 175 579 169 q 590 179 590 176 q 574 203 592 188 q 531 238 557 218 q 489 278 490 267 q 493 288 489 283 l 496 289 q 551 356 554 346 q 467 335 539 367 q 444 339 456 329 q 410 374 432 349 q 360 417 371 421 q 365 369 358 411 q 368 304 374 317 q 314 260 364 296 q 236 199 244 211 q 350 199 253 192 q 376 200 371 200 q 385 197 382 200 q 392 186 389 194 q 397 172 396 178 q 401 150 399 165 q 435 75 418 78 q 454 129 443 74 q 474 183 464 174 q 536 182 485 196 m 638 144 q 657 208 657 164 q 646 259 657 238 q 614 281 635 281 q 593 272 601 281 q 574 226 578 257 q 608 176 611 196 q 597 160 606 165 q 585 156 592 157 q 615 135 597 135 q 638 144 628 135 m 438 249 q 435 247 438 249 q 426 244 433 244 q 415 249 419 244 q 411 260 411 253 q 415 271 411 267 q 426 275 419 275 q 438 271 433 275 q 442 260 442 267 q 438 249 442 253 m 363 247 q 364 252 363 247 q 376 258 364 258 q 388 244 389 257 q 374 233 386 232 q 363 247 363 235 m 327 233 q 327 237 327 233 q 337 241 328 242 q 345 231 346 240 q 335 222 344 221 q 327 233 326 224 m 288 217 q 288 220 288 217 q 294 224 288 224 q 299 217 300 224 q 293 211 299 211 q 288 217 288 211 m 477 298 q 478 292 477 298 q 467 284 479 286 q 453 294 456 282 q 463 308 451 306 q 477 298 475 310 m 508 322 q 509 317 508 322 q 501 310 510 313 q 490 317 492 308 q 498 328 489 326 q 508 322 507 331 m 415 224 q 417 229 415 224 q 431 231 419 235 q 438 215 442 226 q 422 208 433 203 q 415 224 411 213 m 420 181 q 422 185 420 181 q 432 185 424 189 q 438 174 440 182 q 426 169 435 165 q 420 181 417 172 m 424 135 q 425 138 424 135 q 432 138 426 140 q 435 131 438 136 q 428 127 433 125 q 424 135 422 129 m 456 232 q 451 237 456 232 q 457 249 447 242 q 474 247 467 257 q 473 230 482 238 q 456 232 464 222 m 496 216 q 493 220 496 216 q 497 229 490 224 q 510 228 504 235 q 508 215 515 221 q 496 216 501 208 m 538 198 q 535 200 538 198 q 538 206 533 203 q 547 205 543 210 q 547 197 551 200 q 538 198 542 193 m 412 310 q 418 310 412 310 q 424 297 424 310 q 411 285 424 285 q 399 298 399 286 q 412 310 400 310 m 395 345 q 400 345 395 345 q 404 335 404 344 q 395 327 404 326 q 386 337 386 328 q 395 345 386 346 m 385 377 q 385 374 385 377 q 379 372 385 371 q 374 378 374 372 q 380 384 374 385 q 385 377 386 383 z "},"&":{"ha":715,"x_min":15,"x_max":690,"o":"m 689 196 q 679 174 689 183 q 632 153 665 161 q 626 81 646 122 q 571 24 606 40 q 560 -4 572 4 q 542 -11 551 -11 q 454 51 514 -11 q 296 0 371 0 q 124 40 186 0 q 26 214 39 94 q 107 396 15 313 q 101 399 103 397 q 92 411 93 404 q 111 433 89 425 q 71 525 58 497 q 79 536 74 531 q 133 697 72 629 q 240 767 178 746 q 361 783 303 788 q 538 693 482 775 q 565 542 586 624 q 383 383 542 446 q 422 346 394 372 q 432 356 426 349 q 467 395 454 382 q 500 421 479 408 q 539 431 521 433 q 564 415 554 428 q 571 339 579 393 q 583 343 578 342 q 644 314 617 357 q 654 238 671 271 q 689 196 689 221 m 272 568 q 281 524 268 540 q 374 560 326 533 q 418 606 422 588 q 378 631 413 629 q 310 613 344 632 q 272 568 276 594 m 149 401 q 140 418 149 404 q 139 421 139 421 q 138 425 138 424 q 142 431 138 431 q 219 463 203 440 q 222 478 224 468 q 208 503 219 490 q 208 501 208 501 q 207 500 207 500 q 206 494 207 500 q 203 490 203 490 q 190 472 199 481 q 176 457 186 465 l 168 450 l 160 443 q 158 443 158 442 q 158 446 157 444 l 165 453 l 172 460 q 186 476 182 469 q 196 494 192 485 q 197 497 196 494 q 197 499 197 499 q 199 503 199 503 q 200 508 200 506 q 200 510 200 510 q 181 525 190 519 q 179 521 179 521 q 178 517 179 519 q 178 515 178 515 q 176 510 176 511 q 167 490 172 500 q 154 474 163 483 l 147 465 l 139 458 q 138 458 139 457 q 138 460 136 458 l 143 468 l 150 476 q 161 494 157 488 q 168 513 165 504 q 169 515 168 514 q 169 517 169 517 q 170 519 169 518 q 171 522 171 521 q 171 526 171 524 q 171 529 171 528 q 132 536 153 536 q 131 533 132 535 l 129 532 l 129 529 q 125 521 126 525 q 122 501 124 511 q 122 481 122 493 l 122 471 l 124 461 q 123 458 125 458 q 121 460 121 458 l 119 469 l 117 481 q 115 501 115 493 q 118 522 115 513 q 119 533 118 528 l 121 536 q 108 535 114 536 q 100 532 104 533 q 85 519 88 528 q 128 435 74 497 q 128 431 129 433 q 122 422 126 425 q 117 419 121 421 q 106 413 106 417 q 124 404 107 408 q 149 401 140 400 m 200 279 q 237 224 207 249 q 289 206 267 200 q 301 211 294 207 q 251 311 232 285 q 260 318 254 315 q 217 349 228 353 q 201 326 206 343 q 200 279 196 308 m 664 190 q 668 196 668 193 q 588 236 668 217 q 565 242 572 240 q 550 248 558 244 q 539 256 542 251 q 536 267 536 260 q 542 297 538 274 q 546 403 560 383 q 535 408 542 408 q 506 399 524 411 q 478 376 489 388 q 449 342 467 364 q 415 306 425 314 q 340 300 403 294 q 269 299 275 307 q 329 215 260 286 q 342 203 338 207 q 346 190 346 197 q 307 144 344 178 q 261 79 249 93 q 390 124 274 63 q 397 126 394 126 q 460 76 413 126 q 547 13 532 1 q 525 94 556 19 q 510 160 501 149 q 522 167 514 167 q 608 170 565 163 q 664 190 651 178 m 451 199 q 448 197 451 199 q 438 194 446 194 q 425 199 431 194 q 419 212 419 204 q 425 225 419 219 q 438 231 431 231 q 451 225 446 231 q 456 212 456 219 q 451 199 456 204 m 472 246 q 470 244 472 246 q 462 242 468 242 q 451 246 456 242 q 447 256 447 250 q 451 267 447 263 q 462 271 456 271 q 472 267 468 271 q 476 256 476 263 q 472 246 476 250 m 492 289 q 492 283 492 289 q 479 276 492 276 q 467 289 467 276 q 479 301 467 301 q 492 289 492 301 m 507 323 q 507 318 507 323 q 497 313 507 313 q 488 323 488 313 q 497 333 488 333 q 507 323 507 333 m 525 359 q 525 355 525 359 q 516 350 525 350 q 507 359 507 350 q 516 368 507 368 q 525 359 525 368 m 468 202 q 465 209 468 202 q 476 221 463 215 q 494 213 489 226 q 487 194 500 200 q 468 202 474 189 m 508 200 q 505 206 508 200 q 514 216 503 211 q 531 210 525 221 q 524 194 536 199 q 508 200 513 189 m 547 198 q 545 202 547 198 q 553 211 543 207 q 567 206 563 215 q 561 193 571 197 q 547 198 551 189 m 590 196 q 588 200 590 196 q 594 208 586 204 q 607 203 603 211 q 603 191 611 194 q 590 196 594 188 m 444 178 q 448 183 444 178 q 464 180 453 189 q 466 160 475 171 q 446 158 457 149 q 444 178 435 167 m 460 142 q 464 147 460 142 q 478 144 468 151 q 480 126 488 136 q 463 124 472 117 q 460 142 453 132 m 477 106 q 480 110 477 106 q 492 108 483 114 q 494 93 500 101 q 479 91 488 85 q 477 106 471 97 m 497 54 q 494 57 497 54 q 496 67 490 60 q 508 69 501 75 q 510 56 515 64 q 497 54 504 49 m 383 188 q 387 195 383 188 q 403 194 390 201 q 409 174 415 188 q 390 168 403 161 q 383 188 376 175 m 354 165 q 357 171 354 165 q 371 171 360 176 q 376 154 382 165 q 359 149 369 143 q 354 165 349 154 m 324 144 q 327 148 324 144 q 338 148 329 153 q 342 134 347 143 q 328 130 338 125 q 324 144 319 135 m 292 119 q 294 124 292 119 q 303 124 296 128 q 307 111 311 119 q 295 107 303 103 q 292 119 288 111 m 382 231 q 382 239 382 231 q 397 246 382 246 q 410 231 411 246 q 396 217 410 217 q 382 231 382 217 m 376 250 q 375 244 376 250 q 363 238 375 238 q 351 250 350 238 q 364 263 351 263 q 376 250 376 263 m 320 269 q 320 274 320 269 q 331 279 321 279 q 341 269 342 279 q 330 259 340 258 q 320 269 319 260 m 292 284 q 292 289 292 284 q 301 293 292 293 q 310 284 310 293 q 301 275 310 275 q 292 284 292 275 z "},"'":{"ha":176,"x_min":25,"x_max":151,"o":"m 43 746 q 52 756 43 746 q 88 765 61 765 q 132 746 114 765 q 150 699 150 726 q 141 668 150 693 q 124 621 132 643 l 114 600 q 75 574 103 574 q 60 578 67 574 q 37 599 43 583 q 38 632 31 615 l 44 650 q 25 699 25 669 q 43 746 25 726 z "},"’":{"ha":176,"x_min":25,"x_max":151,"o":"m 43 746 q 52 756 43 746 q 88 765 61 765 q 132 746 114 765 q 150 699 150 726 q 141 668 150 693 q 124 621 132 643 l 114 600 q 75 574 103 574 q 60 578 67 574 q 37 599 43 583 q 38 632 31 615 l 44 650 q 25 699 25 669 q 43 746 25 726 z "},"(":{"ha":506,"x_min":17,"x_max":481,"o":"m 479 56 q 472 39 479 46 q 454 29 465 33 q 456 -58 472 -11 q 396 -106 439 -106 q 204 -40 286 -106 q 138 -46 151 -61 q 156 10 121 -25 q 54 399 54 140 q 54 400 54 399 q 54 401 54 401 q 50 404 51 403 q 43 414 44 408 q 54 429 42 424 q 54 432 54 431 q 54 435 54 433 q 26 501 17 481 q 46 517 32 513 q 60 521 51 519 q 146 785 76 690 q 396 903 233 903 q 445 871 428 903 q 463 801 463 839 q 445 733 463 764 q 396 701 428 701 q 356 692 378 701 q 342 681 350 686 q 353 667 353 674 q 349 657 353 661 q 315 649 336 649 q 310 649 313 649 q 300 654 303 650 q 208 392 214 569 q 261 156 206 249 q 282 178 268 163 q 308 208 299 197 q 334 228 318 218 q 364 236 350 238 q 383 224 376 233 q 383 129 397 203 q 379 111 379 115 q 406 103 383 108 q 441 93 429 97 q 466 78 453 89 q 479 56 479 68 m 267 742 q 260 728 260 735 q 317 683 260 710 q 318 679 318 682 q 317 672 319 675 q 314 668 317 671 q 308 661 307 663 q 324 660 311 658 q 342 665 336 663 l 342 667 q 332 675 342 668 q 329 676 329 676 q 326 679 328 678 q 328 685 325 682 q 372 731 368 711 q 368 743 374 738 q 351 756 363 750 q 351 754 351 756 q 351 750 351 754 q 351 746 351 746 q 349 729 351 738 q 344 714 347 724 l 340 706 l 338 699 q 335 698 336 697 q 335 700 335 699 l 338 707 l 340 715 q 344 731 343 724 q 346 746 346 739 q 345 749 346 746 q 344 753 344 753 q 344 757 344 754 q 343 758 343 757 q 343 758 343 758 q 325 763 333 761 q 325 758 325 760 q 326 754 325 758 q 326 753 326 754 q 326 750 326 751 q 326 733 326 743 q 322 718 325 728 l 321 710 l 318 703 q 316 701 317 701 q 315 703 315 701 l 317 711 l 319 718 q 321 735 321 728 q 319 750 321 743 q 319 753 319 751 q 319 754 319 753 q 319 756 319 754 q 318 757 318 757 q 317 761 318 758 q 317 763 317 761 q 288 756 301 761 l 288 754 q 288 753 288 754 l 288 751 l 288 749 q 288 742 288 746 q 292 728 289 735 q 299 713 294 721 l 301 706 l 306 700 q 306 698 307 699 q 304 699 304 697 l 299 704 l 294 711 q 288 725 290 719 q 282 740 283 733 q 281 749 281 744 l 281 751 q 271 746 275 749 q 267 742 268 744 m 142 453 q 143 465 144 458 q 132 483 140 474 q 132 482 132 482 q 131 478 132 482 q 128 475 129 475 q 119 461 125 468 q 108 449 115 456 l 101 443 l 96 438 q 94 438 94 438 q 94 440 93 439 l 100 446 l 106 451 q 115 464 111 458 q 122 478 119 471 q 123 479 122 478 q 124 481 124 481 q 124 482 124 481 q 125 485 125 483 q 126 488 125 486 q 126 488 126 488 q 126 490 126 489 q 111 501 119 497 q 110 497 111 499 q 110 493 110 497 q 108 492 108 493 q 108 490 108 490 q 100 475 106 482 q 90 461 97 469 l 85 456 l 79 450 q 78 449 79 449 q 78 451 76 450 l 83 457 l 88 464 q 96 478 93 472 q 101 492 100 485 q 103 496 101 492 q 103 497 103 496 q 103 499 103 499 q 104 503 104 501 q 104 504 104 504 q 74 510 89 510 q 72 508 74 508 l 72 507 l 71 504 q 69 497 69 501 q 67 483 67 490 q 67 467 65 476 l 67 460 l 68 451 q 67 450 68 450 q 65 451 65 450 l 64 460 l 63 467 q 61 483 61 476 q 63 499 61 492 q 65 507 64 503 l 65 510 q 56 508 60 510 q 50 507 53 508 q 38 497 40 503 q 71 432 29 481 q 71 429 72 431 q 67 422 69 425 q 63 421 65 422 q 54 415 54 418 q 67 409 56 413 q 86 407 79 406 q 81 418 88 408 q 79 422 79 421 q 78 425 78 424 q 81 429 78 429 q 142 453 129 436 m 461 51 q 463 56 463 53 q 401 86 463 71 q 384 91 389 89 q 372 96 379 93 q 363 101 365 99 q 363 110 361 104 q 367 133 363 115 q 369 214 379 199 q 361 219 367 218 q 294 167 342 222 q 269 139 276 146 q 211 136 260 131 q 157 135 161 140 q 203 71 150 124 q 213 61 210 64 q 215 51 217 57 q 186 15 215 42 q 150 -35 142 -24 q 250 0 161 -46 q 256 1 253 1 q 303 -36 268 1 q 371 -85 358 -94 q 353 -22 378 -81 q 342 28 336 19 q 351 32 344 33 q 417 36 385 31 q 461 51 450 42 m 300 68 q 300 61 300 68 q 286 54 300 54 q 272 68 272 54 q 286 82 272 82 q 300 68 300 82 m 315 101 q 315 96 315 101 q 304 90 315 90 q 293 101 293 90 q 304 113 293 113 q 315 101 315 113 m 328 127 q 328 123 328 127 q 318 118 328 118 q 308 127 308 118 q 318 136 308 136 q 328 127 328 136 m 340 153 q 340 149 340 153 q 332 144 340 144 q 324 153 324 144 q 332 161 324 161 q 340 153 340 161 m 354 181 q 354 177 354 181 q 347 174 354 174 q 340 181 340 174 q 347 188 340 188 q 354 181 354 188 m 310 60 q 308 65 310 60 q 315 74 306 69 q 330 69 325 79 q 324 54 335 58 q 310 60 314 50 m 340 58 q 338 63 340 58 q 345 71 336 67 q 358 66 354 75 q 353 53 361 57 q 340 58 344 50 m 371 57 q 369 60 371 57 q 375 67 368 64 q 385 63 382 71 q 381 53 389 56 q 371 57 374 50 m 404 55 q 403 58 404 55 q 408 64 401 61 q 417 60 414 67 q 413 51 419 54 q 404 55 407 49 m 290 42 q 294 46 290 42 q 306 43 297 50 q 308 28 315 36 q 292 26 301 19 q 290 42 283 33 m 304 14 q 307 17 304 14 q 317 15 310 21 q 319 2 325 10 q 306 1 313 -6 q 304 14 299 7 m 317 -13 q 320 -10 317 -13 q 328 -12 322 -7 q 330 -23 335 -17 q 319 -24 325 -29 q 317 -13 313 -19 m 332 -53 q 329 -51 332 -53 q 331 -43 326 -49 q 340 -42 335 -37 q 342 -51 346 -46 q 332 -53 338 -57 m 245 49 q 248 55 245 49 q 260 54 250 60 q 265 39 269 49 q 250 34 260 29 q 245 49 240 39 m 222 32 q 224 36 222 32 q 235 36 226 40 q 239 24 243 32 q 226 19 235 15 q 222 32 218 24 m 199 15 q 201 19 199 15 q 210 19 203 22 q 213 8 217 15 q 203 5 210 1 q 199 15 196 8 m 174 -3 q 176 0 174 -3 q 183 -1 178 3 q 186 -10 189 -4 q 177 -13 183 -17 q 174 -3 171 -10 m 244 83 q 244 89 244 83 q 256 94 244 94 q 266 82 267 93 q 254 72 265 71 q 244 83 243 72 m 239 97 q 239 92 239 97 q 229 88 239 88 q 220 97 219 88 q 230 106 221 107 q 239 97 239 106 m 196 112 q 196 116 196 112 q 204 119 196 119 q 213 111 213 119 q 204 103 213 103 q 196 112 196 104 m 174 124 q 175 127 174 124 q 182 130 175 131 q 188 122 189 129 q 181 116 188 115 q 174 124 174 117 z "},")":{"ha":494,"x_min":17,"x_max":478,"o":"m 233 68 q 233 61 233 68 q 219 54 233 54 q 206 68 206 54 q 219 82 206 82 q 233 68 233 82 m 213 101 q 213 96 213 101 q 201 90 213 90 q 190 101 190 90 q 201 113 190 113 q 213 101 213 113 m 188 118 q 183 118 188 118 q 178 127 178 118 q 188 136 178 136 q 197 127 197 136 q 188 118 197 118 m 182 153 q 182 149 182 153 q 174 144 182 144 q 167 153 167 144 q 174 161 167 161 q 182 153 182 161 m 167 181 q 167 177 167 181 q 159 174 167 174 q 151 181 151 174 q 159 188 151 188 q 167 181 167 188 m 181 54 q 176 56 181 54 q 176 69 171 58 q 190 74 181 79 q 196 60 200 69 q 181 54 192 50 m 149 66 q 151 70 149 66 q 161 71 153 75 q 166 58 169 67 q 153 53 163 50 q 149 66 144 57 m 121 63 q 122 67 121 63 q 131 67 124 71 q 135 57 139 64 q 125 53 132 50 q 121 63 118 56 m 90 60 q 92 64 90 60 q 99 64 93 67 q 103 55 106 61 q 94 51 100 49 q 90 60 88 54 m 197 28 q 194 32 197 28 q 199 43 190 36 q 215 42 208 50 q 213 26 222 33 q 197 28 204 19 m 188 2 q 185 6 188 2 q 189 15 182 10 q 202 14 196 21 q 201 1 208 7 q 188 2 193 -6 m 177 -23 q 175 -20 177 -23 q 178 -12 172 -17 q 190 -13 185 -7 q 188 -24 194 -19 q 177 -23 182 -29 m 164 -51 q 162 -49 164 -51 q 165 -42 160 -46 q 175 -43 171 -37 q 174 -53 179 -49 q 164 -51 168 -57 m 242 39 q 239 44 242 39 q 246 54 236 49 q 261 49 256 60 q 257 34 267 39 q 242 39 247 29 m 267 24 q 265 28 267 24 q 271 36 263 32 q 284 32 279 40 q 280 19 289 24 q 267 24 271 15 m 306 15 q 308 12 306 15 q 303 5 310 8 q 292 8 296 1 q 296 19 289 15 q 306 15 303 22 m 332 -3 q 333 -7 332 -3 q 329 -13 335 -10 q 320 -10 324 -17 q 323 -1 317 -4 q 332 -3 329 3 m 240 82 q 240 88 240 82 q 251 94 240 93 q 263 83 263 94 q 251 72 263 72 q 240 82 240 71 m 267 97 q 267 101 267 97 q 276 106 267 106 q 286 97 286 107 q 277 88 286 88 q 267 97 268 88 m 294 111 q 293 115 294 111 q 301 119 293 119 q 310 112 310 119 q 302 103 310 104 q 294 111 294 103 m 318 122 q 318 126 318 122 q 325 130 318 129 q 332 124 332 131 q 325 116 332 117 q 318 122 318 115 m 438 347 q 451 331 453 342 q 444 321 450 325 q 439 318 442 319 q 431 315 436 317 q 344 17 419 119 q 368 -46 386 -24 q 296 -37 354 -62 q 151 -101 235 -87 q 140 -103 144 -103 q 136 -103 138 -103 q 92 -106 114 -106 q 33 -56 50 -106 q 32 42 17 -7 q 26 56 26 47 q 40 78 26 68 q 65 93 53 89 q 100 103 78 97 q 126 111 122 108 q 124 129 126 115 q 124 224 108 203 q 142 236 131 233 q 219 183 171 240 q 278 406 275 268 q 263 551 281 481 q 207 667 244 622 q 207 654 211 660 q 196 649 203 650 q 190 649 193 649 q 157 657 169 649 q 153 667 153 661 q 164 681 153 674 q 126 719 136 701 q 92 724 110 724 q 42 751 60 724 q 25 813 25 779 q 42 875 25 847 q 92 903 60 903 q 141 899 117 903 q 199 883 165 896 q 263 851 233 871 q 324 796 293 832 q 377 713 354 760 q 415 594 400 665 q 433 438 431 524 q 449 435 442 436 q 467 419 463 429 q 438 347 478 397 m 190 683 q 247 728 247 708 q 239 742 247 735 q 235 746 238 744 q 226 751 231 749 l 226 749 q 225 740 225 744 q 219 725 222 733 q 211 711 217 719 l 207 704 l 203 699 q 200 698 201 697 q 200 700 199 699 l 204 706 l 208 713 q 214 726 213 722 q 218 742 217 735 q 219 749 219 746 l 219 751 l 219 753 q 218 754 218 754 l 218 756 q 189 763 204 761 q 189 761 189 761 q 188 757 188 758 q 187 756 188 757 q 186 754 186 754 q 186 752 186 754 q 186 750 186 750 q 185 735 185 743 q 188 718 186 728 l 189 711 l 190 703 q 190 701 192 701 q 189 703 189 701 l 186 710 l 183 718 q 181 733 181 728 q 179 750 179 743 q 180 753 179 751 q 181 754 181 754 q 181 758 181 758 q 182 763 181 760 q 163 758 172 761 q 163 757 163 758 q 161 753 161 754 q 161 749 161 753 q 161 746 161 746 q 163 731 161 739 q 165 715 163 724 l 168 707 l 171 700 q 171 698 172 699 q 169 699 169 697 l 165 706 l 163 714 q 157 729 158 722 q 154 746 156 738 q 154 750 154 746 q 154 751 154 750 q 154 754 154 753 q 154 756 154 754 q 138 743 143 750 q 133 731 132 738 q 178 685 139 711 q 179 679 182 682 q 178 676 179 678 q 175 675 176 676 q 164 667 164 668 l 164 665 q 183 660 169 663 q 197 661 196 658 q 192 668 199 663 q 189 672 190 671 q 188 679 188 675 q 190 683 188 682 m 303 71 q 349 135 357 124 q 294 136 344 140 q 238 139 247 131 q 211 167 229 146 q 144 219 165 222 q 136 214 139 218 q 140 133 126 199 q 144 110 143 115 q 142 101 144 104 q 134 96 140 99 q 122 91 128 93 q 104 86 117 89 q 43 56 43 71 q 46 51 43 53 q 89 36 56 42 q 154 32 122 31 q 156 32 154 32 q 165 28 161 32 q 153 -22 171 19 q 136 -85 129 -81 q 203 -36 147 -94 q 215 -24 211 -28 q 225 -13 218 -19 q 234 -6 232 -7 q 242 -1 236 -4 q 250 1 249 3 q 256 0 251 0 q 356 -35 346 -47 q 319 15 364 -24 q 290 51 290 42 q 293 61 290 57 q 303 71 296 64 m 408 324 q 427 326 415 322 q 440 332 439 329 q 432 338 440 335 q 428 339 429 339 q 424 346 425 342 q 424 350 422 347 q 457 414 465 397 q 444 424 454 421 q 439 425 442 425 q 429 428 435 426 l 429 426 l 429 425 q 432 417 431 421 q 433 400 433 408 q 432 385 433 394 l 431 376 l 429 368 q 428 367 429 367 q 426 369 426 368 l 428 376 l 428 385 q 428 400 428 394 q 425 415 428 408 q 424 422 425 418 l 422 424 l 421 425 q 421 426 421 426 l 419 428 q 390 421 404 426 q 390 419 390 419 q 392 417 390 418 q 392 413 392 417 q 393 408 393 408 q 399 394 394 401 q 407 381 401 389 l 411 375 l 417 368 q 416 367 417 368 q 415 367 415 365 l 408 372 l 404 379 q 394 392 397 388 q 386 407 389 400 q 385 411 386 407 q 385 415 385 415 q 383 418 383 415 q 368 407 375 414 q 368 406 368 407 q 369 401 369 403 q 370 400 369 401 q 371 398 371 399 q 371 396 371 397 q 372 394 371 394 q 379 381 375 388 q 389 368 383 376 l 394 363 l 400 357 q 401 356 401 357 q 399 356 400 354 l 393 360 l 386 365 q 375 378 379 374 q 367 392 369 385 q 365 393 365 392 q 364 396 364 394 q 363 399 363 399 q 363 401 363 400 q 351 382 354 392 q 353 369 350 375 q 413 346 365 354 q 417 342 417 346 q 415 339 417 340 q 414 336 415 338 q 408 324 407 326 z "},"*":{"ha":379,"x_min":19,"x_max":358,"o":"m 325 607 q 351 574 344 596 q 347 533 358 553 q 300 504 332 504 q 274 511 286 504 l 242 528 l 243 504 q 219 472 244 482 q 167 469 193 463 q 136 497 140 476 l 122 486 q 89 476 107 476 q 46 497 63 476 q 35 538 32 515 q 57 574 39 560 l 99 606 l 54 629 q 27 662 33 640 q 31 703 21 683 q 63 729 42 722 q 106 725 85 736 l 144 704 q 146 739 146 739 q 169 780 147 768 q 212 780 190 792 q 233 740 233 768 q 233 707 233 729 l 261 728 q 301 739 279 742 q 337 718 324 736 q 347 678 350 700 q 326 642 344 656 l 299 621 l 325 607 z "},"+":{"ha":399,"x_min":25,"x_max":382,"o":"m 321 431 q 367 397 354 431 q 367 331 381 364 q 321 299 354 299 l 261 300 l 265 242 q 232 197 265 210 q 166 197 199 183 q 133 242 133 210 l 135 304 l 79 307 q 41 322 57 307 q 25 360 25 338 q 41 399 25 383 q 79 415 57 415 l 139 418 l 140 485 q 156 523 140 507 q 195 539 172 539 q 234 523 218 539 q 250 485 250 507 l 253 426 l 321 431 z "},",":{"ha":176,"x_min":25,"x_max":151,"o":"m 43 113 q 52 122 43 113 q 88 132 61 132 q 132 113 114 132 q 150 65 150 93 q 141 35 150 60 q 124 -11 132 10 l 114 -33 q 75 -60 103 -60 q 60 -56 67 -60 q 37 -34 43 -50 q 38 -1 31 -18 l 44 17 q 25 65 25 36 q 43 113 25 93 z "},"-":{"ha":324,"x_min":25,"x_max":306,"o":"m 246 386 q 292 353 279 386 q 292 288 306 321 q 246 254 279 254 l 79 263 q 41 278 57 263 q 25 317 25 294 q 41 355 25 339 q 79 371 57 371 l 246 386 z "},".":{"ha":176,"x_min":25,"x_max":151,"o":"m 43 113 q 52 122 43 113 q 88 132 61 132 q 132 113 114 132 q 150 65 150 93 q 132 18 150 38 q 88 -1 114 -1 q 43 18 61 -1 q 25 65 25 38 q 43 113 25 93 z "},"/":{"ha":514,"x_min":17,"x_max":492,"o":"m 421 700 q 474 656 458 672 q 489 624 490 639 q 478 607 486 613 q 411 613 463 597 q 386 618 396 617 q 200 117 278 301 l 201 117 q 215 103 211 113 q 217 103 217 103 q 222 101 219 103 q 233 92 231 99 q 233 72 238 82 q 201 28 224 47 q 176 0 196 4 q 171 -1 174 -1 q 158 1 164 -1 q 150 7 154 3 q 95 -31 129 -28 q 39 -7 61 -35 q 28 65 17 21 q 176 625 64 210 q 97 642 101 622 q 113 669 96 653 q 183 722 131 686 q 208 740 200 735 l 215 767 q 231 793 219 782 q 228 815 231 800 q 231 881 218 872 q 263 876 246 889 q 304 833 279 863 q 328 807 321 814 q 347 801 338 806 q 443 817 424 836 q 450 803 450 811 q 414 749 450 785 q 417 707 422 729 q 415 704 417 706 q 421 700 417 703 m 111 35 q 126 26 114 29 q 111 47 118 35 q 111 49 111 49 q 111 35 108 40 m 118 51 q 132 32 124 39 q 126 117 114 78 q 122 119 125 119 q 107 113 111 124 q 107 86 104 104 q 118 51 110 68 m 138 32 q 153 115 138 85 q 147 119 150 118 q 135 115 139 122 q 138 32 122 81 m 144 29 q 179 107 169 67 q 172 116 178 114 q 160 114 165 118 q 144 29 142 78 m 157 15 q 175 10 167 8 q 188 24 183 13 q 157 15 172 14 m 211 88 q 158 22 197 43 q 198 41 181 22 q 222 76 215 60 q 222 86 225 82 q 219 90 221 89 q 211 88 215 92 m 206 93 q 197 106 207 103 q 186 104 190 108 q 153 28 176 65 q 206 93 193 47 m 468 622 q 471 628 469 624 q 455 650 472 635 q 411 685 438 665 q 369 725 371 715 q 374 735 369 731 l 375 738 q 432 804 435 793 q 346 782 419 815 q 324 788 336 778 q 290 822 311 797 q 240 865 250 868 q 246 818 239 858 q 249 751 254 765 q 194 708 244 744 q 117 646 124 658 q 231 646 132 639 q 257 649 251 649 q 266 645 263 649 q 272 634 269 642 q 277 619 275 626 q 282 597 279 613 q 314 522 299 525 q 335 576 322 521 q 353 632 344 622 q 417 629 365 644 q 468 622 460 617 m 317 697 q 315 694 317 697 q 306 692 313 692 q 295 697 300 692 q 290 708 290 701 q 295 719 290 714 q 306 724 300 724 q 317 719 313 724 q 322 708 322 714 q 317 697 322 701 m 243 694 q 244 701 243 694 q 256 706 244 707 q 267 692 268 704 q 254 681 267 681 q 243 694 242 682 m 208 680 q 208 684 208 680 q 217 688 208 689 q 226 678 226 688 q 216 670 225 669 q 208 680 207 671 m 167 666 q 168 669 167 666 q 174 672 168 672 q 180 665 181 671 q 173 659 179 658 q 167 666 167 660 m 358 745 q 359 739 358 745 q 347 731 360 733 q 333 741 335 729 q 343 755 331 753 q 358 745 356 757 m 388 769 q 389 764 388 769 q 381 758 390 760 q 370 766 372 757 q 377 776 368 775 q 388 769 386 778 m 295 671 q 298 676 295 671 q 311 678 300 682 q 318 663 322 674 q 302 656 314 651 q 295 671 290 660 m 301 628 q 302 633 301 628 q 313 634 304 638 q 317 622 321 631 q 306 617 314 614 q 301 628 297 619 m 305 583 q 306 586 305 583 q 313 586 307 589 q 316 578 318 583 q 308 574 314 572 q 305 583 303 576 m 335 680 q 332 684 335 680 q 338 697 328 689 q 355 695 347 704 q 353 678 363 686 q 335 680 343 671 m 376 664 q 373 667 376 664 q 376 676 369 671 q 390 675 383 682 q 389 663 396 668 q 376 664 382 657 m 418 645 q 416 648 418 645 q 419 654 414 650 q 427 653 424 658 q 426 644 431 649 q 418 645 422 640 m 292 758 q 298 757 292 758 q 303 745 304 757 q 291 733 303 733 q 280 746 279 733 q 292 758 281 758 m 276 793 q 280 793 276 793 q 285 783 285 793 q 275 774 285 774 q 266 784 265 775 q 276 793 267 793 m 265 826 q 265 823 265 826 q 259 819 265 819 q 253 826 253 819 q 260 832 254 832 q 265 826 265 832 z "},":":{"ha":176,"x_min":25,"x_max":151,"o":"m 43 296 q 52 306 43 296 q 88 315 61 315 q 132 296 114 315 q 150 249 150 276 q 132 201 150 221 q 88 182 114 182 q 43 201 61 182 q 25 249 25 221 q 43 296 25 276 m 132 411 q 123 401 132 411 q 88 392 114 392 q 43 411 61 392 q 25 458 25 431 q 43 506 25 486 q 88 525 61 525 q 132 506 114 525 q 150 458 150 486 q 132 411 150 431 z "},";":{"ha":176,"x_min":25,"x_max":151,"o":"m 43 296 q 52 306 43 296 q 88 315 61 315 q 132 296 114 315 q 150 249 150 276 q 141 218 150 243 q 124 171 132 193 l 114 150 q 75 124 103 124 q 60 126 67 124 q 37 149 43 133 q 38 182 31 165 l 44 200 q 25 249 25 219 q 43 296 25 276 m 132 411 q 123 401 132 411 q 88 392 114 392 q 43 411 61 392 q 25 458 25 431 q 43 506 25 486 q 88 525 61 525 q 132 506 114 525 q 150 458 150 486 q 132 411 150 431 z "},"<":{"ha":313,"x_min":25,"x_max":292,"o":"m 278 197 q 286 160 289 179 q 268 127 283 142 q 235 103 253 113 q 197 95 217 93 q 167 113 178 97 l 39 278 q 25 321 25 297 q 39 363 25 344 q 211 529 163 493 q 253 535 235 543 q 281 510 271 528 q 283 481 290 492 q 231 417 267 457 q 168 349 196 378 l 140 321 l 278 197 z "},"=":{"ha":399,"x_min":25,"x_max":382,"o":"m 79 394 q 41 410 57 394 q 25 449 25 426 q 41 487 25 471 q 79 503 57 503 l 321 518 q 367 485 354 518 q 367 419 381 453 q 321 386 354 386 l 79 394 m 321 339 q 367 306 354 339 q 367 240 381 272 q 321 207 354 207 l 79 214 q 41 230 57 214 q 25 268 25 246 q 41 306 25 290 q 79 322 57 322 l 321 339 z "},">":{"ha":313,"x_min":21,"x_max":288,"o":"m 272 356 q 288 313 288 338 q 272 271 288 289 q 101 104 149 140 q 60 98 78 90 q 32 124 42 106 q 29 153 22 142 q 81 216 44 176 q 144 285 117 256 l 172 313 l 35 436 q 26 473 24 454 q 44 507 29 492 q 78 531 60 522 q 115 538 96 540 q 146 522 135 536 l 272 356 z "},"?":{"ha":568,"x_min":18,"x_max":565,"o":"m 532 456 q 529 444 531 450 q 538 418 540 431 q 528 401 536 407 q 506 397 519 396 q 381 306 464 329 q 365 299 374 299 q 362 299 364 299 q 357 300 360 299 q 314 296 335 296 q 283 290 296 296 q 265 277 271 285 q 255 256 258 269 q 251 238 251 243 q 250 221 250 233 q 218 174 249 189 q 152 167 188 160 q 101 197 117 174 q 96 196 99 196 q 78 199 83 196 q 63 210 67 203 q 64 239 57 222 q 57 297 50 278 q 81 314 64 314 q 88 313 85 314 q 93 310 90 311 q 106 313 99 313 q 111 313 108 313 q 130 340 118 328 q 150 361 142 353 q 179 380 158 369 q 207 394 200 390 q 243 408 214 397 q 279 422 272 419 q 178 419 206 417 q 147 436 150 422 q 163 463 146 446 q 233 517 181 479 q 282 554 279 549 q 278 608 285 561 q 272 661 271 649 q 191 653 231 669 q 133 615 151 638 q 74 598 108 586 q 30 642 40 610 q 40 707 19 675 q 292 782 115 796 q 406 749 349 778 q 500 667 464 721 q 532 456 565 576 m 74 217 q 88 208 76 210 q 74 229 79 215 q 72 229 72 229 q 74 217 71 221 m 79 232 q 94 213 86 219 q 89 297 76 258 q 85 301 88 300 q 68 293 72 306 q 69 267 65 286 q 79 232 72 249 m 100 214 q 114 296 99 265 q 110 300 113 299 q 96 296 101 303 q 100 214 83 261 m 107 210 q 140 288 132 247 q 133 297 140 294 q 122 294 126 300 q 107 210 103 258 m 147 285 q 114 208 139 246 q 167 274 154 228 q 158 286 168 283 q 147 285 153 289 m 118 196 q 136 192 128 190 q 150 204 144 193 q 118 196 135 194 m 185 257 q 185 267 186 263 q 181 271 183 269 q 174 268 176 272 q 119 203 160 224 q 160 222 143 203 q 185 257 178 240 m 518 417 q 521 421 519 418 q 505 444 522 429 q 461 479 488 460 q 419 519 419 508 q 424 529 419 525 l 425 531 q 481 597 485 588 q 396 576 469 608 q 374 581 386 571 q 340 615 361 590 q 290 658 300 663 q 294 611 288 653 q 297 546 304 558 q 244 501 294 538 q 167 440 174 453 q 281 440 182 433 q 307 442 301 442 q 316 439 313 442 q 322 428 319 436 q 327 413 325 419 q 332 392 329 407 q 364 317 349 319 q 370 322 367 317 q 376 337 374 326 q 381 353 379 347 q 385 371 382 360 q 403 425 393 415 q 467 424 415 438 q 518 417 510 411 m 117 112 q 126 121 117 112 q 163 131 136 131 q 210 112 190 131 q 229 66 229 93 q 210 19 229 39 q 163 0 190 0 q 117 19 136 0 q 97 66 97 39 q 117 112 97 93 m 345 513 q 348 515 345 513 q 356 517 350 517 q 367 513 363 517 q 372 501 372 508 q 367 490 372 494 q 356 486 363 486 q 345 490 350 486 q 340 501 340 494 q 345 513 340 508 m 293 488 q 294 494 293 488 q 306 499 294 500 q 317 486 318 499 q 304 475 317 474 q 293 488 292 476 m 257 474 q 258 479 257 474 q 267 483 258 483 q 276 472 276 482 q 265 464 275 463 q 257 474 256 465 m 217 459 q 218 462 217 459 q 224 465 218 465 q 230 459 231 465 q 223 453 229 453 q 217 459 217 453 m 406 540 q 407 534 406 540 q 397 526 408 528 q 383 535 385 524 q 392 549 381 547 q 406 540 404 551 m 438 563 q 439 559 438 563 q 431 552 440 554 q 420 559 422 550 q 427 570 418 568 q 438 563 436 572 m 345 465 q 348 471 345 465 q 361 472 350 476 q 368 456 372 468 q 352 449 364 444 q 345 465 340 454 m 351 422 q 352 426 351 422 q 363 427 354 431 q 367 415 371 424 q 356 410 364 407 q 351 422 347 414 m 354 376 q 356 379 354 376 q 363 380 357 382 q 366 372 368 378 q 358 369 364 367 q 354 376 351 371 m 385 474 q 382 478 385 474 q 387 491 378 483 q 404 489 396 499 q 403 472 413 479 q 385 474 393 464 m 426 458 q 423 461 426 458 q 426 471 419 465 q 440 469 433 476 q 439 456 446 463 q 426 458 432 450 m 468 440 q 466 442 468 440 q 469 448 464 444 q 477 447 474 451 q 476 438 481 442 q 468 440 472 435 m 342 551 q 348 551 342 551 q 353 539 354 551 q 341 527 353 526 q 329 540 329 528 q 342 551 329 551 m 326 587 q 330 586 326 587 q 335 577 335 586 q 325 569 335 568 q 316 578 315 569 q 326 587 317 588 m 315 619 q 315 616 315 619 q 309 613 315 613 q 303 620 303 614 q 309 626 303 626 q 315 619 315 625 z "},"@":{"ha":903,"x_min":25,"x_max":879,"o":"m 571 297 q 573 299 571 297 q 582 301 575 301 q 593 297 589 301 q 597 285 597 292 q 593 274 597 279 q 582 269 589 269 q 571 274 575 269 q 567 285 567 279 q 571 297 567 292 m 518 273 q 519 279 518 273 q 531 283 519 285 q 542 270 543 282 q 529 260 542 258 q 518 273 517 261 m 483 258 q 483 262 483 258 q 492 266 483 267 q 501 256 501 265 q 491 248 500 247 q 483 258 482 249 m 442 244 q 443 247 442 244 q 449 249 443 250 q 455 242 456 249 q 448 237 454 236 q 442 244 442 238 m 633 323 q 634 317 633 323 q 622 309 635 311 q 608 319 610 307 q 618 333 606 331 q 633 323 631 335 m 663 347 q 664 342 663 347 q 656 336 665 338 q 645 344 647 335 q 652 354 643 353 q 663 347 661 356 m 571 249 q 573 255 571 249 q 586 256 575 261 q 593 240 597 251 q 578 233 589 229 q 571 249 567 238 m 576 207 q 577 211 576 207 q 588 212 579 215 q 592 200 596 208 q 581 195 589 192 q 576 207 572 199 m 580 161 q 581 164 580 161 q 588 165 582 167 q 591 156 593 163 q 583 153 589 150 q 580 161 578 156 m 610 258 q 607 262 610 258 q 613 274 603 267 q 630 273 622 282 q 628 256 638 264 q 610 258 618 249 m 651 242 q 648 245 651 242 q 652 255 644 249 q 665 253 660 261 q 664 240 671 246 q 651 242 657 235 m 693 223 q 691 225 693 223 q 694 232 689 228 q 702 231 699 236 q 701 222 706 226 q 693 223 697 218 m 567 335 q 573 335 567 335 q 578 323 579 335 q 566 311 578 311 q 555 324 554 311 q 567 335 556 336 m 551 371 q 555 371 551 371 q 560 362 560 371 q 551 353 560 353 q 542 362 542 353 q 551 371 542 371 m 540 403 q 540 400 540 403 q 534 397 540 397 q 528 403 528 397 q 535 410 529 410 q 540 403 540 410 m 875 578 q 875 560 879 569 q 843 515 865 533 q 839 503 842 508 q 844 392 849 451 q 763 197 839 258 q 753 185 760 189 q 738 181 747 182 q 628 153 690 154 q 628 151 628 153 q 619 117 622 129 q 609 94 617 106 q 590 83 601 83 q 586 83 589 83 q 558 108 568 86 q 540 167 549 129 q 467 204 507 178 q 410 203 431 201 q 386 201 397 201 q 260 237 311 201 q 208 324 208 272 q 260 412 208 376 q 386 447 311 447 q 492 424 444 447 q 474 476 497 463 q 421 488 453 490 q 360 478 389 486 q 310 460 331 471 q 261 479 279 442 q 268 553 240 521 q 278 563 272 558 q 341 585 297 578 q 431 588 385 592 q 622 381 613 571 q 706 401 683 407 q 706 403 706 401 q 706 404 706 404 q 664 557 715 501 q 435 635 593 635 q 194 564 265 635 q 201 554 199 560 q 194 496 208 533 q 196 467 203 479 q 181 456 192 460 q 163 453 176 453 q 157 453 161 453 l 156 454 l 156 453 q 142 440 147 443 q 140 406 140 422 q 160 301 140 347 q 208 229 179 256 q 278 185 238 203 q 357 161 319 168 q 436 151 394 154 q 472 135 457 151 q 490 96 486 118 q 490 51 493 74 q 473 14 488 29 q 435 0 458 -1 q 150 101 263 10 q 25 399 25 206 q 131 678 25 581 q 435 775 238 775 q 767 651 654 775 q 793 618 781 636 q 800 614 797 617 q 810 615 804 615 q 817 614 814 615 q 829 604 825 611 q 835 606 832 606 q 843 604 839 606 q 857 589 854 600 q 858 589 858 589 q 865 589 863 589 q 875 578 872 586 m 75 514 q 99 478 82 497 q 139 460 117 460 q 86 525 99 481 q 78 528 82 529 q 74 524 75 526 q 75 514 72 519 m 110 461 q 122 449 114 450 q 140 453 131 447 q 110 461 125 451 m 92 531 q 144 465 104 485 q 111 542 121 503 q 100 543 106 546 q 92 531 90 540 m 153 467 q 138 551 156 515 q 126 553 132 556 q 118 544 119 551 q 153 467 128 504 m 158 469 q 163 553 175 518 q 150 557 157 560 q 144 553 146 556 q 158 469 160 522 m 186 472 q 186 486 189 478 q 171 464 179 472 q 186 472 182 467 m 179 489 q 190 524 188 506 q 190 550 193 542 q 175 557 186 561 q 169 554 172 557 q 165 469 183 515 q 179 489 172 476 m 381 356 q 375 349 381 356 q 369 322 369 342 q 381 289 369 303 q 411 275 393 275 q 433 282 422 275 q 433 283 433 283 q 451 322 451 297 q 440 356 451 342 q 410 369 428 369 q 381 356 393 369 m 743 200 q 746 206 744 201 q 730 228 747 214 q 686 263 713 243 q 644 303 646 293 q 649 313 644 308 l 651 315 q 707 382 710 372 q 622 360 694 393 q 599 365 611 356 q 565 400 586 375 q 515 443 525 446 q 521 396 514 436 q 524 331 529 343 q 469 286 519 322 q 392 224 399 236 q 506 225 407 217 q 532 226 526 226 q 541 224 538 226 q 547 213 544 221 q 552 197 550 204 q 557 175 554 190 q 589 101 574 103 q 610 156 597 100 q 628 210 619 200 q 692 207 640 222 q 743 200 735 196 m 753 522 q 768 514 756 517 q 753 535 760 522 q 753 536 753 535 q 753 522 750 528 m 760 538 q 774 518 765 525 q 768 604 756 565 q 764 607 767 606 q 749 599 753 611 q 749 573 746 592 q 760 538 751 554 m 776 603 q 779 519 764 567 q 794 603 779 572 q 789 607 792 606 q 776 603 781 610 m 801 601 q 786 517 783 564 q 821 593 811 554 q 813 603 819 601 q 801 601 807 606 m 828 592 q 794 515 818 551 q 847 579 835 535 q 839 593 849 589 q 828 592 832 594 m 799 501 q 817 498 808 496 q 829 511 825 500 q 799 501 814 501 m 864 564 q 864 574 867 569 q 861 578 863 576 q 853 575 857 579 q 800 510 839 529 q 840 528 822 510 q 864 564 857 546 z "},"A":{"ha":776,"x_min":24,"x_max":751,"o":"m 676 254 q 750 199 750 235 q 740 178 750 188 q 672 153 722 161 q 656 26 667 83 q 590 -16 650 -7 q 475 -8 531 -25 q 425 42 419 10 q 433 94 429 68 q 304 68 326 42 q 302 109 289 88 q 347 157 315 131 l 197 151 q 238 54 214 101 q 199 -7 258 11 q 75 0 135 -25 q 32 44 38 17 q 26 144 26 69 q 32 321 25 218 q 72 533 39 424 q 161 706 106 642 q 356 793 235 788 q 618 618 536 800 q 624 617 621 618 q 638 603 633 614 q 639 603 639 603 q 646 601 643 603 q 656 592 653 600 q 656 574 660 583 q 643 550 651 563 q 676 254 679 426 m 633 589 q 581 524 619 543 q 620 541 603 522 q 644 578 638 560 q 644 588 647 583 q 642 590 643 590 q 633 589 638 592 m 610 524 q 579 515 594 515 q 597 512 589 510 q 610 524 606 514 m 619 607 q 608 606 613 608 q 575 528 599 565 q 628 593 615 549 q 619 607 629 603 m 601 607 q 594 617 600 614 q 582 614 588 619 q 567 531 564 578 q 601 607 592 568 m 557 617 q 560 533 544 581 q 575 617 560 586 q 569 621 572 619 q 557 617 561 624 m 529 613 q 529 587 526 606 q 540 551 532 568 q 554 532 546 539 q 549 618 536 579 q 544 621 547 619 q 529 613 533 625 m 549 528 q 533 549 540 536 q 533 550 533 549 q 533 536 531 540 q 549 528 536 531 m 143 289 q 164 290 150 285 q 136 303 150 293 q 135 304 135 303 q 143 289 138 293 m 140 311 q 168 299 156 301 q 110 386 119 338 q 103 388 107 388 q 90 369 89 385 q 108 342 93 360 q 140 311 122 324 m 118 390 q 174 303 126 344 q 138 401 140 358 q 131 403 133 403 q 118 390 119 400 m 183 304 q 172 407 186 360 q 158 414 167 415 q 147 403 150 413 q 183 304 150 353 m 192 307 q 208 408 222 353 q 192 418 204 419 q 181 410 183 417 q 192 307 194 361 m 204 296 q 226 302 218 294 q 232 324 233 310 q 204 296 222 304 m 201 304 q 233 349 225 318 q 238 403 240 379 q 231 413 236 410 q 225 414 228 415 q 218 407 219 414 q 201 304 231 350 m 250 404 q 243 339 256 371 l 454 347 q 308 576 447 583 q 215 533 250 574 q 167 426 179 493 q 174 424 171 425 q 189 431 181 429 q 194 431 192 431 q 214 424 206 431 q 222 428 218 426 q 226 428 224 428 q 239 424 233 428 q 250 404 249 417 m 725 193 q 729 199 729 197 q 649 239 729 219 q 626 245 633 243 q 610 251 619 247 q 599 260 601 256 q 597 269 597 264 q 603 300 599 278 q 607 406 619 386 q 596 413 603 411 q 567 402 585 414 q 539 378 550 390 q 510 344 528 367 q 476 308 486 318 q 401 304 464 297 q 331 301 336 310 q 390 219 321 289 q 403 206 399 211 q 407 194 407 201 q 368 147 406 181 q 322 82 310 96 q 451 128 335 67 q 458 129 454 129 q 521 81 474 129 q 608 17 593 4 q 586 99 617 22 q 571 164 563 153 q 583 169 575 169 q 669 174 626 167 q 725 193 713 181 m 512 203 q 509 200 512 203 q 499 197 507 197 q 486 203 492 197 q 481 216 481 208 q 486 228 481 224 q 499 233 492 233 q 512 228 507 233 q 517 216 517 224 q 512 203 517 208 m 533 249 q 531 247 533 249 q 523 244 529 244 q 513 249 517 244 q 508 259 508 253 q 513 269 508 265 q 523 274 517 274 q 533 269 529 274 q 538 259 538 265 q 533 249 538 253 m 553 293 q 553 287 553 293 q 540 281 553 281 q 528 293 528 281 q 540 306 528 306 q 553 293 553 306 m 547 326 q 547 331 547 326 q 558 336 547 336 q 568 326 568 336 q 558 315 568 315 q 547 326 547 315 m 586 363 q 586 359 586 363 q 577 354 586 354 q 568 363 568 354 q 577 372 568 372 q 586 363 586 372 m 529 205 q 526 211 529 205 q 537 224 524 218 q 556 217 550 231 q 548 198 561 204 q 529 205 535 192 m 569 203 q 566 208 569 203 q 575 219 564 214 q 592 213 586 225 q 585 197 597 201 q 569 203 574 192 m 608 201 q 606 206 608 201 q 614 215 604 211 q 628 210 624 219 q 622 196 632 200 q 608 201 613 192 m 651 199 q 649 203 651 199 q 656 210 647 207 q 668 206 664 214 q 664 194 672 197 q 651 199 656 190 m 505 181 q 509 187 505 181 q 525 184 514 193 q 527 163 536 175 q 507 160 518 151 q 505 181 496 169 m 522 146 q 525 151 522 146 q 539 148 529 156 q 541 131 549 140 q 524 128 533 121 q 522 146 514 136 m 538 110 q 541 114 538 110 q 553 111 544 118 q 555 97 561 104 q 540 95 549 89 q 538 110 532 101 m 558 58 q 555 61 558 58 q 557 71 551 64 q 569 72 563 78 q 571 60 576 67 q 558 58 565 53 m 444 191 q 448 198 444 191 q 464 197 451 204 q 470 178 476 190 q 451 172 464 165 q 444 191 438 178 m 415 169 q 418 175 415 169 q 432 174 421 181 q 437 157 443 168 q 420 152 431 146 q 415 169 410 158 m 385 147 q 388 151 385 147 q 399 151 390 156 q 403 137 408 146 q 390 133 399 128 q 385 147 381 138 m 352 123 q 355 127 352 123 q 365 126 357 131 q 368 114 372 122 q 356 110 364 106 q 352 123 347 115 m 442 235 q 443 243 442 235 q 458 249 443 250 q 472 234 472 249 q 456 220 471 219 q 442 235 442 221 m 437 253 q 436 247 437 253 q 424 241 436 240 q 412 254 411 242 q 425 266 413 267 q 437 253 438 265 m 381 273 q 382 278 381 273 q 392 283 382 283 q 402 272 403 282 q 391 262 401 261 q 381 273 381 263 m 353 288 q 353 293 353 288 q 362 297 353 297 q 371 287 371 296 q 362 278 371 278 q 353 288 353 279 z "},"À":{"ha":776,"x_min":24,"x_max":751,"o":"m 676 254 q 750 199 750 235 q 740 178 750 188 q 672 153 722 161 q 656 26 667 83 q 590 -16 650 -7 q 475 -8 531 -25 q 425 42 419 10 q 433 94 429 68 q 304 68 326 42 q 302 109 289 88 q 347 157 315 131 l 197 151 q 238 54 214 101 q 199 -7 258 11 q 75 0 135 -25 q 32 44 38 17 q 26 144 26 69 q 32 321 25 218 q 72 533 39 424 q 161 706 106 642 q 356 793 235 788 q 618 618 536 800 q 624 617 621 618 q 638 603 633 614 q 639 603 639 603 q 646 601 643 603 q 656 592 653 600 q 656 574 660 583 q 643 550 651 563 q 676 254 679 426 m 633 589 q 581 524 619 543 q 620 541 603 522 q 644 578 638 560 q 644 588 647 583 q 642 590 643 590 q 633 589 638 592 m 610 524 q 579 515 594 515 q 597 512 589 510 q 610 524 606 514 m 619 607 q 608 606 613 608 q 575 528 599 565 q 628 593 615 549 q 619 607 629 603 m 601 607 q 594 617 600 614 q 582 614 588 619 q 567 531 564 578 q 601 607 592 568 m 557 617 q 560 533 544 581 q 575 617 560 586 q 569 621 572 619 q 557 617 561 624 m 529 613 q 529 587 526 606 q 540 551 532 568 q 554 532 546 539 q 549 618 536 579 q 544 621 547 619 q 529 613 533 625 m 549 528 q 533 549 540 536 q 533 550 533 549 q 533 536 531 540 q 549 528 536 531 m 143 289 q 164 290 150 285 q 136 303 150 293 q 135 304 135 303 q 143 289 138 293 m 140 311 q 168 299 156 301 q 110 386 119 338 q 103 388 107 388 q 90 369 89 385 q 108 342 93 360 q 140 311 122 324 m 118 390 q 174 303 126 344 q 138 401 140 358 q 131 403 133 403 q 118 390 119 400 m 183 304 q 172 407 186 360 q 158 414 167 415 q 147 403 150 413 q 183 304 150 353 m 192 307 q 208 408 222 353 q 192 418 204 419 q 181 410 183 417 q 192 307 194 361 m 204 296 q 226 302 218 294 q 232 324 233 310 q 204 296 222 304 m 201 304 q 233 349 225 318 q 238 403 240 379 q 231 413 236 410 q 225 414 228 415 q 218 407 219 414 q 201 304 231 350 m 250 404 q 243 339 256 371 l 454 347 q 308 576 447 583 q 215 533 250 574 q 167 426 179 493 q 174 424 171 425 q 189 431 181 429 q 194 431 192 431 q 214 424 206 431 q 222 428 218 426 q 226 428 224 428 q 239 424 233 428 q 250 404 249 417 m 725 193 q 729 199 729 197 q 649 239 729 219 q 626 245 633 243 q 610 251 619 247 q 599 260 601 256 q 597 269 597 264 q 603 300 599 278 q 607 406 619 386 q 596 413 603 411 q 567 402 585 414 q 539 378 550 390 q 510 344 528 367 q 476 308 486 318 q 401 304 464 297 q 331 301 336 310 q 390 219 321 289 q 403 206 399 211 q 407 194 407 201 q 368 147 406 181 q 322 82 310 96 q 451 128 335 67 q 458 129 454 129 q 521 81 474 129 q 608 17 593 4 q 586 99 617 22 q 571 164 563 153 q 583 169 575 169 q 669 174 626 167 q 725 193 713 181 m 512 203 q 509 200 512 203 q 499 197 507 197 q 486 203 492 197 q 481 216 481 208 q 486 228 481 224 q 499 233 492 233 q 512 228 507 233 q 517 216 517 224 q 512 203 517 208 m 533 249 q 531 247 533 249 q 523 244 529 244 q 513 249 517 244 q 508 259 508 253 q 513 269 508 265 q 523 274 517 274 q 533 269 529 274 q 538 259 538 265 q 533 249 538 253 m 553 293 q 553 287 553 293 q 540 281 553 281 q 528 293 528 281 q 540 306 528 306 q 553 293 553 306 m 547 326 q 547 331 547 326 q 558 336 547 336 q 568 326 568 336 q 558 315 568 315 q 547 326 547 315 m 586 363 q 586 359 586 363 q 577 354 586 354 q 568 363 568 354 q 577 372 568 372 q 586 363 586 372 m 529 205 q 526 211 529 205 q 537 224 524 218 q 556 217 550 231 q 548 198 561 204 q 529 205 535 192 m 569 203 q 566 208 569 203 q 575 219 564 214 q 592 213 586 225 q 585 197 597 201 q 569 203 574 192 m 608 201 q 606 206 608 201 q 614 215 604 211 q 628 210 624 219 q 622 196 632 200 q 608 201 613 192 m 651 199 q 649 203 651 199 q 656 210 647 207 q 668 206 664 214 q 664 194 672 197 q 651 199 656 190 m 505 181 q 509 187 505 181 q 525 184 514 193 q 527 163 536 175 q 507 160 518 151 q 505 181 496 169 m 522 146 q 525 151 522 146 q 539 148 529 156 q 541 131 549 140 q 524 128 533 121 q 522 146 514 136 m 538 110 q 541 114 538 110 q 553 111 544 118 q 555 97 561 104 q 540 95 549 89 q 538 110 532 101 m 558 58 q 555 61 558 58 q 557 71 551 64 q 569 72 563 78 q 571 60 576 67 q 558 58 565 53 m 444 191 q 448 198 444 191 q 464 197 451 204 q 470 178 476 190 q 451 172 464 165 q 444 191 438 178 m 415 169 q 418 175 415 169 q 432 174 421 181 q 437 157 443 168 q 420 152 431 146 q 415 169 410 158 m 385 147 q 388 151 385 147 q 399 151 390 156 q 403 137 408 146 q 390 133 399 128 q 385 147 381 138 m 352 123 q 355 127 352 123 q 365 126 357 131 q 368 114 372 122 q 356 110 364 106 q 352 123 347 115 m 442 235 q 443 243 442 235 q 458 249 443 250 q 472 234 472 249 q 456 220 471 219 q 442 235 442 221 m 437 253 q 436 247 437 253 q 424 241 436 240 q 412 254 411 242 q 425 266 413 267 q 437 253 438 265 m 381 273 q 382 278 381 273 q 392 283 382 283 q 402 272 403 282 q 391 262 401 261 q 381 273 381 263 m 353 288 q 353 293 353 288 q 362 297 353 297 q 371 287 371 296 q 362 278 371 278 q 353 288 353 279 z "},"Á":{"ha":776,"x_min":24,"x_max":751,"o":"m 676 254 q 750 199 750 235 q 740 178 750 188 q 672 153 722 161 q 656 26 667 83 q 590 -16 650 -7 q 475 -8 531 -25 q 425 42 419 10 q 433 94 429 68 q 304 68 326 42 q 302 109 289 88 q 347 157 315 131 l 197 151 q 238 54 214 101 q 199 -7 258 11 q 75 0 135 -25 q 32 44 38 17 q 26 144 26 69 q 32 321 25 218 q 72 533 39 424 q 161 706 106 642 q 356 793 235 788 q 618 618 536 800 q 624 617 621 618 q 638 603 633 614 q 639 603 639 603 q 646 601 643 603 q 656 592 653 600 q 656 574 660 583 q 643 550 651 563 q 676 254 679 426 m 633 589 q 581 524 619 543 q 620 541 603 522 q 644 578 638 560 q 644 588 647 583 q 642 590 643 590 q 633 589 638 592 m 610 524 q 579 515 594 515 q 597 512 589 510 q 610 524 606 514 m 619 607 q 608 606 613 608 q 575 528 599 565 q 628 593 615 549 q 619 607 629 603 m 601 607 q 594 617 600 614 q 582 614 588 619 q 567 531 564 578 q 601 607 592 568 m 557 617 q 560 533 544 581 q 575 617 560 586 q 569 621 572 619 q 557 617 561 624 m 529 613 q 529 587 526 606 q 540 551 532 568 q 554 532 546 539 q 549 618 536 579 q 544 621 547 619 q 529 613 533 625 m 549 528 q 533 549 540 536 q 533 550 533 549 q 533 536 531 540 q 549 528 536 531 m 143 289 q 164 290 150 285 q 136 303 150 293 q 135 304 135 303 q 143 289 138 293 m 140 311 q 168 299 156 301 q 110 386 119 338 q 103 388 107 388 q 90 369 89 385 q 108 342 93 360 q 140 311 122 324 m 118 390 q 174 303 126 344 q 138 401 140 358 q 131 403 133 403 q 118 390 119 400 m 183 304 q 172 407 186 360 q 158 414 167 415 q 147 403 150 413 q 183 304 150 353 m 192 307 q 208 408 222 353 q 192 418 204 419 q 181 410 183 417 q 192 307 194 361 m 204 296 q 226 302 218 294 q 232 324 233 310 q 204 296 222 304 m 201 304 q 233 349 225 318 q 238 403 240 379 q 231 413 236 410 q 225 414 228 415 q 218 407 219 414 q 201 304 231 350 m 250 404 q 243 339 256 371 l 454 347 q 308 576 447 583 q 215 533 250 574 q 167 426 179 493 q 174 424 171 425 q 189 431 181 429 q 194 431 192 431 q 214 424 206 431 q 222 428 218 426 q 226 428 224 428 q 239 424 233 428 q 250 404 249 417 m 725 193 q 729 199 729 197 q 649 239 729 219 q 626 245 633 243 q 610 251 619 247 q 599 260 601 256 q 597 269 597 264 q 603 300 599 278 q 607 406 619 386 q 596 413 603 411 q 567 402 585 414 q 539 378 550 390 q 510 344 528 367 q 476 308 486 318 q 401 304 464 297 q 331 301 336 310 q 390 219 321 289 q 403 206 399 211 q 407 194 407 201 q 368 147 406 181 q 322 82 310 96 q 451 128 335 67 q 458 129 454 129 q 521 81 474 129 q 608 17 593 4 q 586 99 617 22 q 571 164 563 153 q 583 169 575 169 q 669 174 626 167 q 725 193 713 181 m 512 203 q 509 200 512 203 q 499 197 507 197 q 486 203 492 197 q 481 216 481 208 q 486 228 481 224 q 499 233 492 233 q 512 228 507 233 q 517 216 517 224 q 512 203 517 208 m 533 249 q 531 247 533 249 q 523 244 529 244 q 513 249 517 244 q 508 259 508 253 q 513 269 508 265 q 523 274 517 274 q 533 269 529 274 q 538 259 538 265 q 533 249 538 253 m 553 293 q 553 287 553 293 q 540 281 553 281 q 528 293 528 281 q 540 306 528 306 q 553 293 553 306 m 547 326 q 547 331 547 326 q 558 336 547 336 q 568 326 568 336 q 558 315 568 315 q 547 326 547 315 m 586 363 q 586 359 586 363 q 577 354 586 354 q 568 363 568 354 q 577 372 568 372 q 586 363 586 372 m 529 205 q 526 211 529 205 q 537 224 524 218 q 556 217 550 231 q 548 198 561 204 q 529 205 535 192 m 569 203 q 566 208 569 203 q 575 219 564 214 q 592 213 586 225 q 585 197 597 201 q 569 203 574 192 m 608 201 q 606 206 608 201 q 614 215 604 211 q 628 210 624 219 q 622 196 632 200 q 608 201 613 192 m 651 199 q 649 203 651 199 q 656 210 647 207 q 668 206 664 214 q 664 194 672 197 q 651 199 656 190 m 505 181 q 509 187 505 181 q 525 184 514 193 q 527 163 536 175 q 507 160 518 151 q 505 181 496 169 m 522 146 q 525 151 522 146 q 539 148 529 156 q 541 131 549 140 q 524 128 533 121 q 522 146 514 136 m 538 110 q 541 114 538 110 q 553 111 544 118 q 555 97 561 104 q 540 95 549 89 q 538 110 532 101 m 558 58 q 555 61 558 58 q 557 71 551 64 q 569 72 563 78 q 571 60 576 67 q 558 58 565 53 m 444 191 q 448 198 444 191 q 464 197 451 204 q 470 178 476 190 q 451 172 464 165 q 444 191 438 178 m 415 169 q 418 175 415 169 q 432 174 421 181 q 437 157 443 168 q 420 152 431 146 q 415 169 410 158 m 385 147 q 388 151 385 147 q 399 151 390 156 q 403 137 408 146 q 390 133 399 128 q 385 147 381 138 m 352 123 q 355 127 352 123 q 365 126 357 131 q 368 114 372 122 q 356 110 364 106 q 352 123 347 115 m 442 235 q 443 243 442 235 q 458 249 443 250 q 472 234 472 249 q 456 220 471 219 q 442 235 442 221 m 437 253 q 436 247 437 253 q 424 241 436 240 q 412 254 411 242 q 425 266 413 267 q 437 253 438 265 m 381 273 q 382 278 381 273 q 392 283 382 283 q 402 272 403 282 q 391 262 401 261 q 381 273 381 263 m 353 288 q 353 293 353 288 q 362 297 353 297 q 371 287 371 296 q 362 278 371 278 q 353 288 353 279 z "},"Â":{"ha":776,"x_min":24,"x_max":751,"o":"m 676 254 q 750 199 750 235 q 740 178 750 188 q 672 153 722 161 q 656 26 667 83 q 590 -16 650 -7 q 475 -8 531 -25 q 425 42 419 10 q 433 94 429 68 q 304 68 326 42 q 302 109 289 88 q 347 157 315 131 l 197 151 q 238 54 214 101 q 199 -7 258 11 q 75 0 135 -25 q 32 44 38 17 q 26 144 26 69 q 32 321 25 218 q 72 533 39 424 q 161 706 106 642 q 356 793 235 788 q 618 618 536 800 q 624 617 621 618 q 638 603 633 614 q 639 603 639 603 q 646 601 643 603 q 656 592 653 600 q 656 574 660 583 q 643 550 651 563 q 676 254 679 426 m 633 589 q 581 524 619 543 q 620 541 603 522 q 644 578 638 560 q 644 588 647 583 q 642 590 643 590 q 633 589 638 592 m 610 524 q 579 515 594 515 q 597 512 589 510 q 610 524 606 514 m 619 607 q 608 606 613 608 q 575 528 599 565 q 628 593 615 549 q 619 607 629 603 m 601 607 q 594 617 600 614 q 582 614 588 619 q 567 531 564 578 q 601 607 592 568 m 557 617 q 560 533 544 581 q 575 617 560 586 q 569 621 572 619 q 557 617 561 624 m 529 613 q 529 587 526 606 q 540 551 532 568 q 554 532 546 539 q 549 618 536 579 q 544 621 547 619 q 529 613 533 625 m 549 528 q 533 549 540 536 q 533 550 533 549 q 533 536 531 540 q 549 528 536 531 m 143 289 q 164 290 150 285 q 136 303 150 293 q 135 304 135 303 q 143 289 138 293 m 140 311 q 168 299 156 301 q 110 386 119 338 q 103 388 107 388 q 90 369 89 385 q 108 342 93 360 q 140 311 122 324 m 118 390 q 174 303 126 344 q 138 401 140 358 q 131 403 133 403 q 118 390 119 400 m 183 304 q 172 407 186 360 q 158 414 167 415 q 147 403 150 413 q 183 304 150 353 m 192 307 q 208 408 222 353 q 192 418 204 419 q 181 410 183 417 q 192 307 194 361 m 204 296 q 226 302 218 294 q 232 324 233 310 q 204 296 222 304 m 201 304 q 233 349 225 318 q 238 403 240 379 q 231 413 236 410 q 225 414 228 415 q 218 407 219 414 q 201 304 231 350 m 250 404 q 243 339 256 371 l 454 347 q 308 576 447 583 q 215 533 250 574 q 167 426 179 493 q 174 424 171 425 q 189 431 181 429 q 194 431 192 431 q 214 424 206 431 q 222 428 218 426 q 226 428 224 428 q 239 424 233 428 q 250 404 249 417 m 725 193 q 729 199 729 197 q 649 239 729 219 q 626 245 633 243 q 610 251 619 247 q 599 260 601 256 q 597 269 597 264 q 603 300 599 278 q 607 406 619 386 q 596 413 603 411 q 567 402 585 414 q 539 378 550 390 q 510 344 528 367 q 476 308 486 318 q 401 304 464 297 q 331 301 336 310 q 390 219 321 289 q 403 206 399 211 q 407 194 407 201 q 368 147 406 181 q 322 82 310 96 q 451 128 335 67 q 458 129 454 129 q 521 81 474 129 q 608 17 593 4 q 586 99 617 22 q 571 164 563 153 q 583 169 575 169 q 669 174 626 167 q 725 193 713 181 m 512 203 q 509 200 512 203 q 499 197 507 197 q 486 203 492 197 q 481 216 481 208 q 486 228 481 224 q 499 233 492 233 q 512 228 507 233 q 517 216 517 224 q 512 203 517 208 m 533 249 q 531 247 533 249 q 523 244 529 244 q 513 249 517 244 q 508 259 508 253 q 513 269 508 265 q 523 274 517 274 q 533 269 529 274 q 538 259 538 265 q 533 249 538 253 m 553 293 q 553 287 553 293 q 540 281 553 281 q 528 293 528 281 q 540 306 528 306 q 553 293 553 306 m 547 326 q 547 331 547 326 q 558 336 547 336 q 568 326 568 336 q 558 315 568 315 q 547 326 547 315 m 586 363 q 586 359 586 363 q 577 354 586 354 q 568 363 568 354 q 577 372 568 372 q 586 363 586 372 m 529 205 q 526 211 529 205 q 537 224 524 218 q 556 217 550 231 q 548 198 561 204 q 529 205 535 192 m 569 203 q 566 208 569 203 q 575 219 564 214 q 592 213 586 225 q 585 197 597 201 q 569 203 574 192 m 608 201 q 606 206 608 201 q 614 215 604 211 q 628 210 624 219 q 622 196 632 200 q 608 201 613 192 m 651 199 q 649 203 651 199 q 656 210 647 207 q 668 206 664 214 q 664 194 672 197 q 651 199 656 190 m 505 181 q 509 187 505 181 q 525 184 514 193 q 527 163 536 175 q 507 160 518 151 q 505 181 496 169 m 522 146 q 525 151 522 146 q 539 148 529 156 q 541 131 549 140 q 524 128 533 121 q 522 146 514 136 m 538 110 q 541 114 538 110 q 553 111 544 118 q 555 97 561 104 q 540 95 549 89 q 538 110 532 101 m 558 58 q 555 61 558 58 q 557 71 551 64 q 569 72 563 78 q 571 60 576 67 q 558 58 565 53 m 444 191 q 448 198 444 191 q 464 197 451 204 q 470 178 476 190 q 451 172 464 165 q 444 191 438 178 m 415 169 q 418 175 415 169 q 432 174 421 181 q 437 157 443 168 q 420 152 431 146 q 415 169 410 158 m 385 147 q 388 151 385 147 q 399 151 390 156 q 403 137 408 146 q 390 133 399 128 q 385 147 381 138 m 352 123 q 355 127 352 123 q 365 126 357 131 q 368 114 372 122 q 356 110 364 106 q 352 123 347 115 m 442 235 q 443 243 442 235 q 458 249 443 250 q 472 234 472 249 q 456 220 471 219 q 442 235 442 221 m 437 253 q 436 247 437 253 q 424 241 436 240 q 412 254 411 242 q 425 266 413 267 q 437 253 438 265 m 381 273 q 382 278 381 273 q 392 283 382 283 q 402 272 403 282 q 391 262 401 261 q 381 273 381 263 m 353 288 q 353 293 353 288 q 362 297 353 297 q 371 287 371 296 q 362 278 371 278 q 353 288 353 279 z "},"Ã":{"ha":776,"x_min":24,"x_max":751,"o":"m 676 254 q 750 199 750 235 q 740 178 750 188 q 672 153 722 161 q 656 26 667 83 q 590 -16 650 -7 q 475 -8 531 -25 q 425 42 419 10 q 433 94 429 68 q 304 68 326 42 q 302 109 289 88 q 347 157 315 131 l 197 151 q 238 54 214 101 q 199 -7 258 11 q 75 0 135 -25 q 32 44 38 17 q 26 144 26 69 q 32 321 25 218 q 72 533 39 424 q 161 706 106 642 q 356 793 235 788 q 618 618 536 800 q 624 617 621 618 q 638 603 633 614 q 639 603 639 603 q 646 601 643 603 q 656 592 653 600 q 656 574 660 583 q 643 550 651 563 q 676 254 679 426 m 633 589 q 581 524 619 543 q 620 541 603 522 q 644 578 638 560 q 644 588 647 583 q 642 590 643 590 q 633 589 638 592 m 610 524 q 579 515 594 515 q 597 512 589 510 q 610 524 606 514 m 619 607 q 608 606 613 608 q 575 528 599 565 q 628 593 615 549 q 619 607 629 603 m 601 607 q 594 617 600 614 q 582 614 588 619 q 567 531 564 578 q 601 607 592 568 m 557 617 q 560 533 544 581 q 575 617 560 586 q 569 621 572 619 q 557 617 561 624 m 529 613 q 529 587 526 606 q 540 551 532 568 q 554 532 546 539 q 549 618 536 579 q 544 621 547 619 q 529 613 533 625 m 549 528 q 533 549 540 536 q 533 550 533 549 q 533 536 531 540 q 549 528 536 531 m 143 289 q 164 290 150 285 q 136 303 150 293 q 135 304 135 303 q 143 289 138 293 m 140 311 q 168 299 156 301 q 110 386 119 338 q 103 388 107 388 q 90 369 89 385 q 108 342 93 360 q 140 311 122 324 m 118 390 q 174 303 126 344 q 138 401 140 358 q 131 403 133 403 q 118 390 119 400 m 183 304 q 172 407 186 360 q 158 414 167 415 q 147 403 150 413 q 183 304 150 353 m 192 307 q 208 408 222 353 q 192 418 204 419 q 181 410 183 417 q 192 307 194 361 m 204 296 q 226 302 218 294 q 232 324 233 310 q 204 296 222 304 m 201 304 q 233 349 225 318 q 238 403 240 379 q 231 413 236 410 q 225 414 228 415 q 218 407 219 414 q 201 304 231 350 m 250 404 q 243 339 256 371 l 454 347 q 308 576 447 583 q 215 533 250 574 q 167 426 179 493 q 174 424 171 425 q 189 431 181 429 q 194 431 192 431 q 214 424 206 431 q 222 428 218 426 q 226 428 224 428 q 239 424 233 428 q 250 404 249 417 m 725 193 q 729 199 729 197 q 649 239 729 219 q 626 245 633 243 q 610 251 619 247 q 599 260 601 256 q 597 269 597 264 q 603 300 599 278 q 607 406 619 386 q 596 413 603 411 q 567 402 585 414 q 539 378 550 390 q 510 344 528 367 q 476 308 486 318 q 401 304 464 297 q 331 301 336 310 q 390 219 321 289 q 403 206 399 211 q 407 194 407 201 q 368 147 406 181 q 322 82 310 96 q 451 128 335 67 q 458 129 454 129 q 521 81 474 129 q 608 17 593 4 q 586 99 617 22 q 571 164 563 153 q 583 169 575 169 q 669 174 626 167 q 725 193 713 181 m 512 203 q 509 200 512 203 q 499 197 507 197 q 486 203 492 197 q 481 216 481 208 q 486 228 481 224 q 499 233 492 233 q 512 228 507 233 q 517 216 517 224 q 512 203 517 208 m 533 249 q 531 247 533 249 q 523 244 529 244 q 513 249 517 244 q 508 259 508 253 q 513 269 508 265 q 523 274 517 274 q 533 269 529 274 q 538 259 538 265 q 533 249 538 253 m 553 293 q 553 287 553 293 q 540 281 553 281 q 528 293 528 281 q 540 306 528 306 q 553 293 553 306 m 547 326 q 547 331 547 326 q 558 336 547 336 q 568 326 568 336 q 558 315 568 315 q 547 326 547 315 m 586 363 q 586 359 586 363 q 577 354 586 354 q 568 363 568 354 q 577 372 568 372 q 586 363 586 372 m 529 205 q 526 211 529 205 q 537 224 524 218 q 556 217 550 231 q 548 198 561 204 q 529 205 535 192 m 569 203 q 566 208 569 203 q 575 219 564 214 q 592 213 586 225 q 585 197 597 201 q 569 203 574 192 m 608 201 q 606 206 608 201 q 614 215 604 211 q 628 210 624 219 q 622 196 632 200 q 608 201 613 192 m 651 199 q 649 203 651 199 q 656 210 647 207 q 668 206 664 214 q 664 194 672 197 q 651 199 656 190 m 505 181 q 509 187 505 181 q 525 184 514 193 q 527 163 536 175 q 507 160 518 151 q 505 181 496 169 m 522 146 q 525 151 522 146 q 539 148 529 156 q 541 131 549 140 q 524 128 533 121 q 522 146 514 136 m 538 110 q 541 114 538 110 q 553 111 544 118 q 555 97 561 104 q 540 95 549 89 q 538 110 532 101 m 558 58 q 555 61 558 58 q 557 71 551 64 q 569 72 563 78 q 571 60 576 67 q 558 58 565 53 m 444 191 q 448 198 444 191 q 464 197 451 204 q 470 178 476 190 q 451 172 464 165 q 444 191 438 178 m 415 169 q 418 175 415 169 q 432 174 421 181 q 437 157 443 168 q 420 152 431 146 q 415 169 410 158 m 385 147 q 388 151 385 147 q 399 151 390 156 q 403 137 408 146 q 390 133 399 128 q 385 147 381 138 m 352 123 q 355 127 352 123 q 365 126 357 131 q 368 114 372 122 q 356 110 364 106 q 352 123 347 115 m 442 235 q 443 243 442 235 q 458 249 443 250 q 472 234 472 249 q 456 220 471 219 q 442 235 442 221 m 437 253 q 436 247 437 253 q 424 241 436 240 q 412 254 411 242 q 425 266 413 267 q 437 253 438 265 m 381 273 q 382 278 381 273 q 392 283 382 283 q 402 272 403 282 q 391 262 401 261 q 381 273 381 263 m 353 288 q 353 293 353 288 q 362 297 353 297 q 371 287 371 296 q 362 278 371 278 q 353 288 353 279 z "},"Ä":{"ha":776,"x_min":24,"x_max":751,"o":"m 676 254 q 750 199 750 235 q 740 178 750 188 q 672 153 722 161 q 656 26 667 83 q 590 -16 650 -7 q 475 -8 531 -25 q 425 42 419 10 q 433 94 429 68 q 304 68 326 42 q 302 109 289 88 q 347 157 315 131 l 197 151 q 238 54 214 101 q 199 -7 258 11 q 75 0 135 -25 q 32 44 38 17 q 26 144 26 69 q 32 321 25 218 q 72 533 39 424 q 161 706 106 642 q 356 793 235 788 q 618 618 536 800 q 624 617 621 618 q 638 603 633 614 q 639 603 639 603 q 646 601 643 603 q 656 592 653 600 q 656 574 660 583 q 643 550 651 563 q 676 254 679 426 m 633 589 q 581 524 619 543 q 620 541 603 522 q 644 578 638 560 q 644 588 647 583 q 642 590 643 590 q 633 589 638 592 m 610 524 q 579 515 594 515 q 597 512 589 510 q 610 524 606 514 m 619 607 q 608 606 613 608 q 575 528 599 565 q 628 593 615 549 q 619 607 629 603 m 601 607 q 594 617 600 614 q 582 614 588 619 q 567 531 564 578 q 601 607 592 568 m 557 617 q 560 533 544 581 q 575 617 560 586 q 569 621 572 619 q 557 617 561 624 m 529 613 q 529 587 526 606 q 540 551 532 568 q 554 532 546 539 q 549 618 536 579 q 544 621 547 619 q 529 613 533 625 m 549 528 q 533 549 540 536 q 533 550 533 549 q 533 536 531 540 q 549 528 536 531 m 143 289 q 164 290 150 285 q 136 303 150 293 q 135 304 135 303 q 143 289 138 293 m 140 311 q 168 299 156 301 q 110 386 119 338 q 103 388 107 388 q 90 369 89 385 q 108 342 93 360 q 140 311 122 324 m 118 390 q 174 303 126 344 q 138 401 140 358 q 131 403 133 403 q 118 390 119 400 m 183 304 q 172 407 186 360 q 158 414 167 415 q 147 403 150 413 q 183 304 150 353 m 192 307 q 208 408 222 353 q 192 418 204 419 q 181 410 183 417 q 192 307 194 361 m 204 296 q 226 302 218 294 q 232 324 233 310 q 204 296 222 304 m 201 304 q 233 349 225 318 q 238 403 240 379 q 231 413 236 410 q 225 414 228 415 q 218 407 219 414 q 201 304 231 350 m 250 404 q 243 339 256 371 l 454 347 q 308 576 447 583 q 215 533 250 574 q 167 426 179 493 q 174 424 171 425 q 189 431 181 429 q 194 431 192 431 q 214 424 206 431 q 222 428 218 426 q 226 428 224 428 q 239 424 233 428 q 250 404 249 417 m 725 193 q 729 199 729 197 q 649 239 729 219 q 626 245 633 243 q 610 251 619 247 q 599 260 601 256 q 597 269 597 264 q 603 300 599 278 q 607 406 619 386 q 596 413 603 411 q 567 402 585 414 q 539 378 550 390 q 510 344 528 367 q 476 308 486 318 q 401 304 464 297 q 331 301 336 310 q 390 219 321 289 q 403 206 399 211 q 407 194 407 201 q 368 147 406 181 q 322 82 310 96 q 451 128 335 67 q 458 129 454 129 q 521 81 474 129 q 608 17 593 4 q 586 99 617 22 q 571 164 563 153 q 583 169 575 169 q 669 174 626 167 q 725 193 713 181 m 512 203 q 509 200 512 203 q 499 197 507 197 q 486 203 492 197 q 481 216 481 208 q 486 228 481 224 q 499 233 492 233 q 512 228 507 233 q 517 216 517 224 q 512 203 517 208 m 533 249 q 531 247 533 249 q 523 244 529 244 q 513 249 517 244 q 508 259 508 253 q 513 269 508 265 q 523 274 517 274 q 533 269 529 274 q 538 259 538 265 q 533 249 538 253 m 553 293 q 553 287 553 293 q 540 281 553 281 q 528 293 528 281 q 540 306 528 306 q 553 293 553 306 m 547 326 q 547 331 547 326 q 558 336 547 336 q 568 326 568 336 q 558 315 568 315 q 547 326 547 315 m 586 363 q 586 359 586 363 q 577 354 586 354 q 568 363 568 354 q 577 372 568 372 q 586 363 586 372 m 529 205 q 526 211 529 205 q 537 224 524 218 q 556 217 550 231 q 548 198 561 204 q 529 205 535 192 m 569 203 q 566 208 569 203 q 575 219 564 214 q 592 213 586 225 q 585 197 597 201 q 569 203 574 192 m 608 201 q 606 206 608 201 q 614 215 604 211 q 628 210 624 219 q 622 196 632 200 q 608 201 613 192 m 651 199 q 649 203 651 199 q 656 210 647 207 q 668 206 664 214 q 664 194 672 197 q 651 199 656 190 m 505 181 q 509 187 505 181 q 525 184 514 193 q 527 163 536 175 q 507 160 518 151 q 505 181 496 169 m 522 146 q 525 151 522 146 q 539 148 529 156 q 541 131 549 140 q 524 128 533 121 q 522 146 514 136 m 538 110 q 541 114 538 110 q 553 111 544 118 q 555 97 561 104 q 540 95 549 89 q 538 110 532 101 m 558 58 q 555 61 558 58 q 557 71 551 64 q 569 72 563 78 q 571 60 576 67 q 558 58 565 53 m 444 191 q 448 198 444 191 q 464 197 451 204 q 470 178 476 190 q 451 172 464 165 q 444 191 438 178 m 415 169 q 418 175 415 169 q 432 174 421 181 q 437 157 443 168 q 420 152 431 146 q 415 169 410 158 m 385 147 q 388 151 385 147 q 399 151 390 156 q 403 137 408 146 q 390 133 399 128 q 385 147 381 138 m 352 123 q 355 127 352 123 q 365 126 357 131 q 368 114 372 122 q 356 110 364 106 q 352 123 347 115 m 442 235 q 443 243 442 235 q 458 249 443 250 q 472 234 472 249 q 456 220 471 219 q 442 235 442 221 m 437 253 q 436 247 437 253 q 424 241 436 240 q 412 254 411 242 q 425 266 413 267 q 437 253 438 265 m 381 273 q 382 278 381 273 q 392 283 382 283 q 402 272 403 282 q 391 262 401 261 q 381 273 381 263 m 353 288 q 353 293 353 288 q 362 297 353 297 q 371 287 371 296 q 362 278 371 278 q 353 288 353 279 z "},"Å":{"ha":776,"x_min":24,"x_max":751,"o":"m 676 254 q 750 199 750 235 q 740 178 750 188 q 672 153 722 161 q 656 26 667 83 q 590 -16 650 -7 q 475 -8 531 -25 q 425 42 419 10 q 433 94 429 68 q 304 68 326 42 q 302 109 289 88 q 347 157 315 131 l 197 151 q 238 54 214 101 q 199 -7 258 11 q 75 0 135 -25 q 32 44 38 17 q 26 144 26 69 q 32 321 25 218 q 72 533 39 424 q 161 706 106 642 q 356 793 235 788 q 618 618 536 800 q 624 617 621 618 q 638 603 633 614 q 639 603 639 603 q 646 601 643 603 q 656 592 653 600 q 656 574 660 583 q 643 550 651 563 q 676 254 679 426 m 633 589 q 581 524 619 543 q 620 541 603 522 q 644 578 638 560 q 644 588 647 583 q 642 590 643 590 q 633 589 638 592 m 610 524 q 579 515 594 515 q 597 512 589 510 q 610 524 606 514 m 619 607 q 608 606 613 608 q 575 528 599 565 q 628 593 615 549 q 619 607 629 603 m 601 607 q 594 617 600 614 q 582 614 588 619 q 567 531 564 578 q 601 607 592 568 m 557 617 q 560 533 544 581 q 575 617 560 586 q 569 621 572 619 q 557 617 561 624 m 529 613 q 529 587 526 606 q 540 551 532 568 q 554 532 546 539 q 549 618 536 579 q 544 621 547 619 q 529 613 533 625 m 549 528 q 533 549 540 536 q 533 550 533 549 q 533 536 531 540 q 549 528 536 531 m 143 289 q 164 290 150 285 q 136 303 150 293 q 135 304 135 303 q 143 289 138 293 m 140 311 q 168 299 156 301 q 110 386 119 338 q 103 388 107 388 q 90 369 89 385 q 108 342 93 360 q 140 311 122 324 m 118 390 q 174 303 126 344 q 138 401 140 358 q 131 403 133 403 q 118 390 119 400 m 183 304 q 172 407 186 360 q 158 414 167 415 q 147 403 150 413 q 183 304 150 353 m 192 307 q 208 408 222 353 q 192 418 204 419 q 181 410 183 417 q 192 307 194 361 m 204 296 q 226 302 218 294 q 232 324 233 310 q 204 296 222 304 m 201 304 q 233 349 225 318 q 238 403 240 379 q 231 413 236 410 q 225 414 228 415 q 218 407 219 414 q 201 304 231 350 m 250 404 q 243 339 256 371 l 454 347 q 308 576 447 583 q 215 533 250 574 q 167 426 179 493 q 174 424 171 425 q 189 431 181 429 q 194 431 192 431 q 214 424 206 431 q 222 428 218 426 q 226 428 224 428 q 239 424 233 428 q 250 404 249 417 m 725 193 q 729 199 729 197 q 649 239 729 219 q 626 245 633 243 q 610 251 619 247 q 599 260 601 256 q 597 269 597 264 q 603 300 599 278 q 607 406 619 386 q 596 413 603 411 q 567 402 585 414 q 539 378 550 390 q 510 344 528 367 q 476 308 486 318 q 401 304 464 297 q 331 301 336 310 q 390 219 321 289 q 403 206 399 211 q 407 194 407 201 q 368 147 406 181 q 322 82 310 96 q 451 128 335 67 q 458 129 454 129 q 521 81 474 129 q 608 17 593 4 q 586 99 617 22 q 571 164 563 153 q 583 169 575 169 q 669 174 626 167 q 725 193 713 181 m 512 203 q 509 200 512 203 q 499 197 507 197 q 486 203 492 197 q 481 216 481 208 q 486 228 481 224 q 499 233 492 233 q 512 228 507 233 q 517 216 517 224 q 512 203 517 208 m 533 249 q 531 247 533 249 q 523 244 529 244 q 513 249 517 244 q 508 259 508 253 q 513 269 508 265 q 523 274 517 274 q 533 269 529 274 q 538 259 538 265 q 533 249 538 253 m 553 293 q 553 287 553 293 q 540 281 553 281 q 528 293 528 281 q 540 306 528 306 q 553 293 553 306 m 547 326 q 547 331 547 326 q 558 336 547 336 q 568 326 568 336 q 558 315 568 315 q 547 326 547 315 m 586 363 q 586 359 586 363 q 577 354 586 354 q 568 363 568 354 q 577 372 568 372 q 586 363 586 372 m 529 205 q 526 211 529 205 q 537 224 524 218 q 556 217 550 231 q 548 198 561 204 q 529 205 535 192 m 569 203 q 566 208 569 203 q 575 219 564 214 q 592 213 586 225 q 585 197 597 201 q 569 203 574 192 m 608 201 q 606 206 608 201 q 614 215 604 211 q 628 210 624 219 q 622 196 632 200 q 608 201 613 192 m 651 199 q 649 203 651 199 q 656 210 647 207 q 668 206 664 214 q 664 194 672 197 q 651 199 656 190 m 505 181 q 509 187 505 181 q 525 184 514 193 q 527 163 536 175 q 507 160 518 151 q 505 181 496 169 m 522 146 q 525 151 522 146 q 539 148 529 156 q 541 131 549 140 q 524 128 533 121 q 522 146 514 136 m 538 110 q 541 114 538 110 q 553 111 544 118 q 555 97 561 104 q 540 95 549 89 q 538 110 532 101 m 558 58 q 555 61 558 58 q 557 71 551 64 q 569 72 563 78 q 571 60 576 67 q 558 58 565 53 m 444 191 q 448 198 444 191 q 464 197 451 204 q 470 178 476 190 q 451 172 464 165 q 444 191 438 178 m 415 169 q 418 175 415 169 q 432 174 421 181 q 437 157 443 168 q 420 152 431 146 q 415 169 410 158 m 385 147 q 388 151 385 147 q 399 151 390 156 q 403 137 408 146 q 390 133 399 128 q 385 147 381 138 m 352 123 q 355 127 352 123 q 365 126 357 131 q 368 114 372 122 q 356 110 364 106 q 352 123 347 115 m 442 235 q 443 243 442 235 q 458 249 443 250 q 472 234 472 249 q 456 220 471 219 q 442 235 442 221 m 437 253 q 436 247 437 253 q 424 241 436 240 q 412 254 411 242 q 425 266 413 267 q 437 253 438 265 m 381 273 q 382 278 381 273 q 392 283 382 283 q 402 272 403 282 q 391 262 401 261 q 381 273 381 263 m 353 288 q 353 293 353 288 q 362 297 353 297 q 371 287 371 296 q 362 278 371 278 q 353 288 353 279 z "},"B":{"ha":789,"x_min":24,"x_max":764,"o":"m 753 129 q 632 99 724 103 q 608 82 621 90 q 618 58 613 74 q 633 23 628 35 q 642 -6 638 11 q 644 -33 646 -22 q 633 -49 642 -43 q 615 -56 625 -56 q 583 -43 601 -56 q 551 -18 564 -31 q 517 17 539 -6 q 503 32 510 25 q 283 1 406 1 q 160 4 196 1 q 111 30 131 8 q 90 81 92 51 l 88 215 q 25 278 25 249 q 39 306 25 292 q 85 331 56 322 l 75 713 q 93 765 74 743 q 143 792 113 788 q 189 796 161 794 q 271 797 217 797 q 376 788 325 797 q 476 760 426 778 q 560 707 526 743 q 601 619 593 671 q 531 433 615 517 q 664 389 617 436 q 706 253 711 342 q 699 204 704 228 q 763 151 763 185 q 753 129 763 139 m 186 282 q 182 297 189 289 q 160 314 175 307 q 160 312 160 313 q 160 311 160 311 q 160 306 160 311 q 160 303 160 306 q 160 300 160 301 q 157 279 160 290 q 150 258 154 271 l 146 249 l 140 239 q 139 238 140 238 q 138 240 138 239 l 142 250 l 144 260 q 150 281 149 272 q 151 300 151 292 q 151 303 151 301 q 151 306 151 306 q 150 310 150 310 q 150 315 150 313 q 149 317 149 317 l 149 318 q 125 322 136 321 q 125 318 125 319 q 126 314 126 317 q 126 313 126 313 q 126 310 126 313 q 128 307 126 308 q 126 286 128 297 q 122 264 125 278 l 119 254 l 115 244 q 114 244 115 243 q 113 246 113 244 l 115 256 l 117 265 q 119 286 119 278 q 118 306 119 297 q 118 311 118 306 q 117 313 118 311 q 117 315 117 315 q 115 321 117 318 q 114 322 115 322 q 76 313 94 321 q 76 310 76 311 l 76 307 l 76 306 q 76 296 76 300 q 82 276 78 286 q 90 258 85 269 l 96 249 l 100 240 q 100 238 101 239 q 97 239 99 238 l 92 247 l 86 256 q 76 274 79 267 q 68 294 71 283 q 67 304 67 300 l 67 307 l 67 308 q 56 301 60 304 q 49 296 51 299 q 39 278 39 286 q 114 219 39 253 q 117 215 117 218 q 115 204 118 208 q 111 200 114 203 q 104 190 103 192 q 124 189 107 186 q 147 197 140 192 q 133 208 147 200 q 131 211 131 210 q 126 214 128 213 q 129 221 125 218 q 186 282 181 256 m 260 490 q 308 485 279 469 q 364 535 338 500 q 389 593 390 571 q 340 650 386 635 q 256 642 293 665 q 236 570 232 622 q 260 490 240 518 m 292 108 q 336 108 306 93 q 389 154 367 124 q 386 156 388 156 q 329 222 346 196 q 325 267 313 249 q 399 279 338 285 q 360 317 386 301 q 316 333 335 332 q 290 325 297 335 q 279 214 279 300 q 292 108 279 128 m 596 121 q 682 126 639 118 q 738 146 725 133 q 742 151 742 149 q 661 192 742 171 q 638 198 646 196 q 622 203 631 200 q 612 211 614 207 q 610 222 610 215 q 615 253 611 229 q 619 358 632 339 q 608 364 615 363 q 580 355 597 367 q 551 331 563 343 q 522 297 540 319 q 489 261 499 269 q 414 256 476 250 q 343 254 349 263 q 401 171 333 240 q 414 158 411 163 q 419 146 419 153 q 381 100 418 132 q 333 33 322 49 q 464 79 347 18 q 471 82 467 82 q 533 32 486 82 q 621 -32 606 -43 q 597 50 629 -25 q 583 115 575 104 q 596 121 588 122 m 524 155 q 522 152 524 155 q 512 150 519 150 q 499 155 504 150 q 493 167 493 160 q 499 181 493 175 q 512 186 504 186 q 524 181 519 186 q 529 167 529 175 q 524 155 529 160 m 545 201 q 543 199 545 201 q 535 197 540 197 q 525 201 529 197 q 521 211 521 206 q 525 222 521 217 q 535 226 529 226 q 545 222 540 226 q 550 211 550 217 q 545 201 550 206 m 565 244 q 565 238 565 244 q 553 232 565 232 q 540 244 540 232 q 553 257 540 257 q 565 244 565 257 m 560 278 q 560 284 560 278 q 570 289 560 289 q 581 278 581 289 q 570 268 581 268 q 560 278 560 268 m 599 315 q 599 310 599 315 q 590 306 599 306 q 581 315 581 306 q 590 324 581 324 q 599 315 599 324 m 542 158 q 539 164 542 158 q 549 176 536 171 q 568 169 563 182 q 560 150 574 156 q 542 158 547 144 m 581 156 q 579 161 581 156 q 588 172 576 167 q 603 165 599 176 q 597 149 608 154 q 581 156 586 144 m 621 153 q 619 158 621 153 q 626 167 617 163 q 640 161 636 171 q 635 147 644 151 q 621 153 625 143 m 664 151 q 662 156 664 151 q 668 163 660 160 q 680 158 676 167 q 676 147 683 150 q 664 151 668 143 m 517 133 q 521 139 517 133 q 537 135 525 144 q 540 115 549 126 q 519 113 531 104 q 517 133 508 122 m 534 97 q 538 102 534 97 q 551 99 542 107 q 553 82 561 92 q 536 80 546 72 q 534 97 526 88 m 551 61 q 554 65 551 61 q 565 63 557 69 q 567 49 574 57 q 553 47 561 40 q 551 61 544 53 m 571 10 q 567 13 571 10 q 569 22 564 15 q 582 24 575 29 q 583 11 589 18 q 571 10 578 4 m 457 143 q 460 149 457 143 q 476 149 464 156 q 483 130 489 143 q 463 124 476 117 q 457 143 450 131 m 428 121 q 431 126 428 121 q 444 126 433 132 q 449 110 456 121 q 433 104 443 99 q 428 121 422 110 m 398 99 q 400 104 398 99 q 412 103 403 108 q 416 90 421 99 q 402 85 411 81 q 398 99 393 90 m 365 75 q 367 79 365 75 q 377 78 369 83 q 381 66 385 74 q 368 63 376 58 q 365 75 360 67 m 455 187 q 455 194 455 187 q 470 201 456 201 q 484 186 485 200 q 469 172 483 172 q 455 187 454 172 m 449 206 q 449 199 449 206 q 436 193 449 193 q 424 206 424 193 q 438 218 425 218 q 449 206 450 218 m 394 224 q 394 230 394 224 q 405 235 394 235 q 415 224 415 235 q 403 214 414 214 q 394 224 393 214 m 365 240 q 365 244 365 240 q 374 249 365 249 q 383 240 383 249 q 374 231 383 231 q 365 240 365 231 z "},"C":{"ha":633,"x_min":24,"x_max":613,"o":"m 504 158 q 582 122 556 149 q 608 67 608 96 q 584 13 607 38 q 522 -19 561 -12 q 326 -6 425 -36 q 167 90 228 24 q 79 351 79 188 q 79 353 79 353 q 79 354 79 354 q 25 397 28 374 q 33 421 24 408 q 90 450 53 444 q 100 485 94 468 q 35 501 39 483 q 51 529 33 513 q 121 583 69 546 q 169 621 167 615 q 165 675 174 628 q 168 740 156 733 q 200 735 183 749 q 242 693 217 722 q 247 688 246 689 q 322 736 282 714 q 382 764 350 751 q 378 811 372 796 q 401 828 385 828 q 408 826 406 828 q 414 824 411 825 q 426 828 419 828 q 434 826 431 828 q 442 822 438 825 q 450 824 446 824 q 458 822 454 824 q 469 813 465 819 q 475 814 472 814 q 483 813 479 814 q 496 803 492 810 q 551 813 543 814 q 597 733 582 808 q 608 582 613 657 q 583 507 603 507 q 513 506 571 506 q 422 501 456 506 q 426 485 428 493 q 415 467 424 472 q 349 472 400 458 q 324 479 332 478 q 297 465 310 472 q 290 433 294 456 q 282 399 285 411 q 272 376 279 388 q 253 365 264 365 q 249 365 251 365 q 236 371 243 365 q 235 351 235 360 q 302 235 229 288 q 504 158 375 183 m 439 710 q 457 706 449 704 q 471 719 465 708 q 439 710 456 710 m 494 783 q 440 718 481 739 q 481 736 464 718 q 506 772 499 754 q 506 782 507 778 q 501 786 504 785 q 494 783 499 788 m 468 800 q 435 724 460 760 q 488 788 475 743 q 479 801 489 797 q 468 800 474 803 m 443 810 q 428 725 424 772 q 461 801 453 763 q 454 812 461 810 q 443 810 447 814 m 417 811 q 421 728 404 775 q 435 811 421 781 q 431 815 433 814 q 417 811 422 818 m 389 807 q 390 781 386 800 q 400 747 393 763 q 415 726 407 733 q 410 813 397 774 q 406 815 408 814 q 389 807 394 819 m 408 722 q 394 743 400 731 q 393 744 394 743 q 394 731 392 736 q 408 722 397 725 m 110 363 q 149 414 146 393 q 143 425 149 419 q 125 435 138 431 q 126 433 125 433 q 126 429 126 433 q 126 425 126 425 q 125 408 126 418 q 122 393 125 403 l 119 385 l 117 378 q 115 377 117 376 q 115 378 114 378 l 117 386 l 118 393 q 121 410 121 404 q 121 425 121 418 q 119 426 119 425 q 119 428 119 428 q 119 431 119 429 q 118 432 119 432 q 118 436 118 433 q 117 438 117 436 q 99 439 107 439 q 99 436 99 438 q 101 432 100 436 q 101 428 101 428 q 103 411 103 421 q 101 394 103 406 l 100 388 l 97 379 q 96 378 97 378 q 94 379 94 379 l 96 388 l 97 396 q 97 411 97 406 q 94 426 97 419 q 94 429 94 428 q 94 431 94 431 q 94 432 94 431 q 93 433 93 433 q 92 438 92 435 q 90 438 90 438 q 63 428 76 436 q 63 426 63 426 l 63 424 l 63 422 q 64 415 63 418 q 69 401 65 408 q 78 388 72 396 l 82 382 l 86 375 q 86 373 88 374 q 85 374 85 372 l 79 379 l 74 385 q 65 399 68 393 q 58 413 61 406 q 56 421 57 417 l 56 424 q 47 417 50 421 q 43 413 44 415 q 38 399 36 406 q 99 360 39 379 q 101 357 100 360 q 100 349 101 353 q 97 346 100 349 q 93 338 92 339 q 108 338 96 335 q 125 346 121 342 q 114 353 125 349 q 111 356 111 354 q 108 357 110 356 q 110 363 107 360 m 168 507 q 194 508 189 508 q 203 506 200 508 q 210 494 207 503 q 215 479 213 486 q 219 457 217 472 q 251 383 236 385 q 272 438 261 382 q 290 492 282 482 q 354 489 303 504 q 406 482 397 478 q 408 488 407 483 q 392 510 410 496 q 349 544 375 525 q 307 585 308 575 q 311 594 307 590 l 314 597 q 369 664 372 654 q 285 642 357 675 q 261 647 274 638 q 228 682 249 657 q 178 725 188 728 q 183 678 176 718 q 186 613 192 625 q 132 568 182 604 q 54 506 63 518 q 168 507 69 499 m 256 556 q 253 554 256 556 q 244 551 251 551 q 233 556 238 551 q 229 567 229 561 q 233 578 229 574 q 244 583 238 583 q 256 578 251 583 q 260 567 260 574 q 256 556 260 561 m 181 554 q 181 560 181 554 q 194 565 182 567 q 205 552 206 564 q 192 541 204 540 q 181 554 179 542 m 145 540 q 145 544 145 540 q 155 548 146 549 q 163 538 164 547 q 153 530 163 529 q 145 540 144 531 m 105 526 q 105 529 105 526 q 112 531 106 532 q 117 524 118 531 q 110 519 117 518 q 105 526 104 519 m 295 605 q 296 599 295 605 q 285 591 297 593 q 271 601 274 589 q 281 615 268 613 q 295 605 293 617 m 326 628 q 327 624 326 628 q 319 618 328 619 q 308 626 310 617 q 315 636 306 635 q 326 628 324 638 m 249 538 q 254 536 249 538 q 256 522 260 533 q 240 515 251 511 q 233 531 229 519 q 249 538 238 543 m 250 494 q 254 492 250 494 q 255 482 258 490 q 243 477 251 474 q 238 489 235 481 q 250 494 242 497 m 250 447 q 253 445 250 447 q 253 438 256 444 q 246 435 251 432 q 242 443 240 438 q 250 447 244 449 m 292 555 q 296 550 292 555 q 290 538 300 546 q 273 540 281 531 q 275 556 265 549 q 292 555 285 564 m 328 535 q 331 532 328 535 q 326 522 333 528 q 313 524 319 517 q 315 537 307 531 q 328 535 322 543 m 365 513 q 366 511 365 513 q 364 504 368 508 q 356 505 360 500 q 356 514 351 510 q 365 513 361 518 m 230 617 q 236 617 230 617 q 241 605 242 617 q 228 593 240 593 q 217 606 217 593 q 230 617 218 618 m 213 653 q 218 653 213 653 q 222 644 222 653 q 213 635 222 635 q 204 644 204 635 q 213 653 204 653 m 203 685 q 203 682 203 685 q 197 679 203 679 q 191 685 190 679 q 198 692 192 692 q 203 685 204 692 z "},"Ç":{"ha":633,"x_min":24,"x_max":613,"o":"m 504 158 q 582 122 556 149 q 608 67 608 96 q 584 13 607 38 q 522 -19 561 -12 q 326 -6 425 -36 q 167 90 228 24 q 79 351 79 188 q 79 353 79 353 q 79 354 79 354 q 25 397 28 374 q 33 421 24 408 q 90 450 53 444 q 100 485 94 468 q 35 501 39 483 q 51 529 33 513 q 121 583 69 546 q 169 621 167 615 q 165 675 174 628 q 168 740 156 733 q 200 735 183 749 q 242 693 217 722 q 247 688 246 689 q 322 736 282 714 q 382 764 350 751 q 378 811 372 796 q 401 828 385 828 q 408 826 406 828 q 414 824 411 825 q 426 828 419 828 q 434 826 431 828 q 442 822 438 825 q 450 824 446 824 q 458 822 454 824 q 469 813 465 819 q 475 814 472 814 q 483 813 479 814 q 496 803 492 810 q 551 813 543 814 q 597 733 582 808 q 608 582 613 657 q 583 507 603 507 q 513 506 571 506 q 422 501 456 506 q 426 485 428 493 q 415 467 424 472 q 349 472 400 458 q 324 479 332 478 q 297 465 310 472 q 290 433 294 456 q 282 399 285 411 q 272 376 279 388 q 253 365 264 365 q 249 365 251 365 q 236 371 243 365 q 235 351 235 360 q 302 235 229 288 q 504 158 375 183 m 439 710 q 457 706 449 704 q 471 719 465 708 q 439 710 456 710 m 494 783 q 440 718 481 739 q 481 736 464 718 q 506 772 499 754 q 506 782 507 778 q 501 786 504 785 q 494 783 499 788 m 468 800 q 435 724 460 760 q 488 788 475 743 q 479 801 489 797 q 468 800 474 803 m 443 810 q 428 725 424 772 q 461 801 453 763 q 454 812 461 810 q 443 810 447 814 m 417 811 q 421 728 404 775 q 435 811 421 781 q 431 815 433 814 q 417 811 422 818 m 389 807 q 390 781 386 800 q 400 747 393 763 q 415 726 407 733 q 410 813 397 774 q 406 815 408 814 q 389 807 394 819 m 408 722 q 394 743 400 731 q 393 744 394 743 q 394 731 392 736 q 408 722 397 725 m 110 363 q 149 414 146 393 q 143 425 149 419 q 125 435 138 431 q 126 433 125 433 q 126 429 126 433 q 126 425 126 425 q 125 408 126 418 q 122 393 125 403 l 119 385 l 117 378 q 115 377 117 376 q 115 378 114 378 l 117 386 l 118 393 q 121 410 121 404 q 121 425 121 418 q 119 426 119 425 q 119 428 119 428 q 119 431 119 429 q 118 432 119 432 q 118 436 118 433 q 117 438 117 436 q 99 439 107 439 q 99 436 99 438 q 101 432 100 436 q 101 428 101 428 q 103 411 103 421 q 101 394 103 406 l 100 388 l 97 379 q 96 378 97 378 q 94 379 94 379 l 96 388 l 97 396 q 97 411 97 406 q 94 426 97 419 q 94 429 94 428 q 94 431 94 431 q 94 432 94 431 q 93 433 93 433 q 92 438 92 435 q 90 438 90 438 q 63 428 76 436 q 63 426 63 426 l 63 424 l 63 422 q 64 415 63 418 q 69 401 65 408 q 78 388 72 396 l 82 382 l 86 375 q 86 373 88 374 q 85 374 85 372 l 79 379 l 74 385 q 65 399 68 393 q 58 413 61 406 q 56 421 57 417 l 56 424 q 47 417 50 421 q 43 413 44 415 q 38 399 36 406 q 99 360 39 379 q 101 357 100 360 q 100 349 101 353 q 97 346 100 349 q 93 338 92 339 q 108 338 96 335 q 125 346 121 342 q 114 353 125 349 q 111 356 111 354 q 108 357 110 356 q 110 363 107 360 m 168 507 q 194 508 189 508 q 203 506 200 508 q 210 494 207 503 q 215 479 213 486 q 219 457 217 472 q 251 383 236 385 q 272 438 261 382 q 290 492 282 482 q 354 489 303 504 q 406 482 397 478 q 408 488 407 483 q 392 510 410 496 q 349 544 375 525 q 307 585 308 575 q 311 594 307 590 l 314 597 q 369 664 372 654 q 285 642 357 675 q 261 647 274 638 q 228 682 249 657 q 178 725 188 728 q 183 678 176 718 q 186 613 192 625 q 132 568 182 604 q 54 506 63 518 q 168 507 69 499 m 256 556 q 253 554 256 556 q 244 551 251 551 q 233 556 238 551 q 229 567 229 561 q 233 578 229 574 q 244 583 238 583 q 256 578 251 583 q 260 567 260 574 q 256 556 260 561 m 181 554 q 181 560 181 554 q 194 565 182 567 q 205 552 206 564 q 192 541 204 540 q 181 554 179 542 m 145 540 q 145 544 145 540 q 155 548 146 549 q 163 538 164 547 q 153 530 163 529 q 145 540 144 531 m 105 526 q 105 529 105 526 q 112 531 106 532 q 117 524 118 531 q 110 519 117 518 q 105 526 104 519 m 295 605 q 296 599 295 605 q 285 591 297 593 q 271 601 274 589 q 281 615 268 613 q 295 605 293 617 m 326 628 q 327 624 326 628 q 319 618 328 619 q 308 626 310 617 q 315 636 306 635 q 326 628 324 638 m 249 538 q 254 536 249 538 q 256 522 260 533 q 240 515 251 511 q 233 531 229 519 q 249 538 238 543 m 250 494 q 254 492 250 494 q 255 482 258 490 q 243 477 251 474 q 238 489 235 481 q 250 494 242 497 m 250 447 q 253 445 250 447 q 253 438 256 444 q 246 435 251 432 q 242 443 240 438 q 250 447 244 449 m 292 555 q 296 550 292 555 q 290 538 300 546 q 273 540 281 531 q 275 556 265 549 q 292 555 285 564 m 328 535 q 331 532 328 535 q 326 522 333 528 q 313 524 319 517 q 315 537 307 531 q 328 535 322 543 m 365 513 q 366 511 365 513 q 364 504 368 508 q 356 505 360 500 q 356 514 351 510 q 365 513 361 518 m 230 617 q 236 617 230 617 q 241 605 242 617 q 228 593 240 593 q 217 606 217 593 q 230 617 218 618 m 213 653 q 218 653 213 653 q 222 644 222 653 q 213 635 222 635 q 204 644 204 635 q 213 653 204 653 m 203 685 q 203 682 203 685 q 197 679 203 679 q 191 685 190 679 q 198 692 192 692 q 203 685 204 692 z "},"D":{"ha":696,"x_min":24,"x_max":674,"o":"m 669 464 q 637 314 668 383 q 554 195 606 244 q 453 112 503 146 q 346 51 403 78 l 357 15 q 350 -1 358 6 q 333 -3 342 -7 q 288 26 311 14 q 253 14 271 19 q 226 6 236 8 q 217 1 217 3 q 135 -4 171 -17 q 76 31 99 8 q 54 67 54 53 q 76 400 57 158 l 75 400 q 61 428 64 407 q 25 476 29 454 q 29 495 24 486 q 46 506 35 504 q 50 506 47 506 q 51 506 50 506 q 68 518 57 517 q 73 518 71 518 q 76 518 75 518 q 86 525 81 524 l 103 707 q 123 763 101 739 q 176 788 144 786 q 217 788 196 788 q 294 785 238 789 q 397 772 350 782 q 497 740 443 763 q 585 685 551 718 q 669 464 674 599 m 151 517 q 146 510 147 515 q 131 424 157 463 q 158 460 151 435 q 161 507 164 486 q 157 515 161 513 q 151 517 154 517 m 133 415 q 152 422 146 415 q 157 439 158 428 q 133 415 149 424 m 124 519 q 114 513 117 518 q 124 425 125 471 q 138 511 149 464 q 124 519 133 521 m 106 511 q 94 515 101 517 q 85 507 88 514 q 115 422 88 464 q 106 511 118 469 m 71 506 q 61 496 61 504 q 107 422 68 457 q 78 506 79 469 q 71 506 74 507 m 82 410 q 100 411 88 407 q 75 422 88 414 q 74 422 75 422 q 82 410 76 414 m 79 428 q 103 418 92 421 q 53 493 61 451 q 47 493 50 494 q 38 478 35 492 q 51 454 39 469 q 79 428 64 439 m 331 65 q 323 85 331 65 q 319 116 315 106 q 359 150 322 126 q 392 186 396 174 q 347 197 388 199 q 292 200 306 194 q 272 249 283 207 q 247 290 261 290 q 223 249 233 290 q 203 200 213 207 q 170 196 190 193 q 128 197 150 199 q 104 186 107 196 q 136 150 100 174 q 176 116 172 126 q 163 65 179 106 q 158 17 147 25 q 203 37 169 10 q 247 64 236 64 q 292 37 258 64 q 336 17 325 10 q 331 65 347 25 m 410 346 q 349 564 432 465 q 272 619 303 618 q 258 608 260 619 q 265 294 254 551 q 304 219 288 231 q 344 208 314 211 q 410 346 393 265 m 356 178 q 358 177 357 179 q 357 175 358 175 l 249 131 l 328 35 q 327 31 329 33 q 324 32 325 29 l 242 124 l 172 32 q 169 31 171 29 q 168 35 167 33 l 233 131 l 132 175 q 131 178 129 175 q 135 179 132 181 l 236 140 l 244 264 q 247 267 244 268 q 250 264 250 267 l 246 140 l 356 178 m 275 115 q 271 114 275 115 q 267 123 267 114 q 275 132 267 132 q 283 124 283 132 q 275 115 283 115 m 308 144 q 311 144 308 144 q 314 138 314 144 q 308 131 314 132 q 301 138 301 131 q 308 144 301 144 m 335 153 q 335 155 335 153 q 339 158 335 157 q 343 153 343 158 q 339 149 343 149 q 335 153 335 149 m 295 90 q 292 90 295 90 q 288 95 289 89 q 294 103 288 101 q 301 98 300 104 q 295 90 301 92 m 310 67 q 310 69 310 67 q 314 72 310 71 q 319 68 318 72 q 315 63 319 64 q 310 67 311 63 m 235 101 q 233 106 235 101 q 240 112 232 110 q 251 106 249 114 q 245 96 253 99 q 235 101 238 93 m 261 74 q 260 77 261 74 q 266 83 260 81 q 274 78 272 85 q 269 70 275 72 q 261 74 263 68 m 290 49 q 290 52 290 49 q 293 55 289 54 q 299 51 297 56 q 296 46 300 47 q 290 49 292 44 m 215 76 q 214 79 215 76 q 218 85 213 82 q 226 81 224 88 q 223 72 229 75 q 215 76 217 69 m 195 50 q 194 52 195 50 q 197 56 193 54 q 203 53 201 57 q 201 47 206 49 q 195 50 197 46 m 271 159 q 269 155 271 159 q 260 154 268 151 q 254 165 251 157 q 265 169 257 172 q 271 159 274 167 m 267 195 q 266 192 267 195 q 259 191 265 189 q 255 199 253 193 q 263 203 257 206 q 267 195 269 201 m 264 231 q 263 228 264 231 q 258 228 263 226 q 256 233 254 229 q 261 236 257 238 q 264 231 265 235 m 301 170 q 300 167 301 170 q 293 165 300 164 q 288 172 286 165 q 295 178 289 179 q 301 170 301 176 m 333 179 q 332 177 333 179 q 328 176 332 175 q 324 181 324 176 q 329 184 325 185 q 333 179 333 183 m 214 132 q 218 132 214 132 q 222 123 222 132 q 214 115 222 114 q 206 124 206 115 q 214 132 206 132 m 188 138 q 188 134 188 138 q 181 131 188 131 q 175 138 175 132 q 182 144 175 144 q 188 138 189 144 m 146 153 q 146 156 146 153 q 150 158 146 158 q 154 153 154 157 q 150 149 154 149 q 146 153 146 149 m 197 103 q 201 102 197 103 q 203 95 204 101 q 195 90 201 89 q 190 98 189 92 q 197 103 190 104 m 183 67 q 182 65 183 67 q 177 63 182 63 q 173 68 172 64 q 178 72 174 72 q 183 67 183 71 m 231 165 q 232 161 231 165 q 226 154 233 157 q 215 159 218 151 q 221 169 213 167 q 231 165 229 172 m 233 199 q 234 196 233 199 q 229 191 235 193 q 222 195 224 189 q 225 203 219 201 q 233 199 231 206 m 235 233 q 235 231 235 233 q 232 228 236 229 q 226 231 228 226 q 229 236 225 235 q 235 233 233 238 m 198 172 q 198 169 198 172 q 192 165 199 165 q 185 170 186 164 q 191 178 185 176 q 198 172 197 179 m 162 181 q 162 178 162 181 q 158 176 163 176 q 153 179 154 175 q 157 184 153 183 q 162 181 161 185 z "},"E":{"ha":776,"x_min":25,"x_max":765,"o":"m 683 314 q 739 258 719 325 q 740 89 764 174 q 689 19 725 31 q 552 -6 638 1 q 360 -1 467 -14 q 350 -29 361 -21 q 331 -36 342 -36 q 299 -24 318 -36 q 268 1 281 -11 q 233 36 256 13 q 178 74 201 51 q 33 40 56 11 q 25 59 25 49 q 29 78 25 69 q 44 99 33 86 q 61 117 54 111 q 82 136 68 124 q 113 165 108 158 q 103 175 110 167 q 45 243 63 217 q 40 286 28 269 q 113 299 53 304 q 207 429 132 376 q 203 429 204 429 q 182 440 189 432 q 178 475 172 453 q 168 493 172 485 q 136 615 132 539 q 201 738 140 696 q 307 776 243 765 q 431 783 371 788 q 526 774 490 779 q 574 767 561 769 q 630 713 621 754 q 613 640 639 672 q 549 618 588 608 q 374 583 397 657 q 379 547 367 560 q 418 533 392 533 q 458 533 444 532 q 481 535 471 533 q 544 506 522 542 q 552 431 565 471 q 496 388 539 392 q 361 368 411 381 q 353 268 367 339 q 347 243 349 250 q 382 232 354 240 q 422 221 410 226 q 525 254 463 231 q 515 276 515 265 q 529 306 515 292 q 606 336 557 333 q 608 336 607 336 q 610 336 608 336 l 611 336 q 678 311 651 336 q 680 312 678 311 q 683 314 682 313 m 311 540 q 301 536 306 542 q 253 444 296 478 q 297 476 281 449 q 318 525 314 503 q 317 538 319 532 q 311 540 314 540 m 288 453 q 253 435 272 438 q 275 434 265 429 q 288 453 285 439 m 281 554 q 267 550 272 556 q 244 450 265 500 q 293 540 289 483 q 281 554 293 553 m 233 556 q 235 450 219 507 q 258 551 256 501 q 247 561 256 560 q 233 556 239 563 m 201 551 q 226 451 194 506 q 224 556 213 515 q 217 560 221 560 q 201 551 207 561 m 169 542 q 176 510 168 532 q 197 469 183 488 q 219 449 208 456 q 193 551 186 501 q 186 554 190 554 q 169 542 172 557 m 193 449 q 213 443 197 443 q 190 464 201 450 q 189 465 190 464 q 193 449 188 454 m 454 165 q 457 171 457 168 q 376 211 457 192 q 354 217 361 215 q 339 223 347 219 q 328 231 331 226 q 325 242 325 236 q 331 272 326 249 q 335 378 349 358 q 324 383 331 383 q 295 374 313 386 q 267 351 278 363 q 238 317 256 339 q 204 281 214 289 q 129 275 192 269 q 58 274 64 282 q 118 190 49 261 q 131 178 126 182 q 135 165 135 172 q 97 119 135 153 q 50 54 38 68 q 179 99 63 39 q 188 101 183 101 q 249 51 201 101 q 336 -12 321 -24 q 314 69 344 -6 q 299 135 290 125 q 311 142 303 142 q 397 146 354 139 q 454 165 440 153 m 676 281 q 672 297 679 289 q 650 313 665 306 q 650 311 650 313 q 650 306 650 311 q 650 302 650 304 q 650 300 650 300 q 647 278 650 290 q 640 258 644 271 l 636 249 l 631 239 q 629 238 631 238 q 628 240 628 239 l 632 250 l 635 260 q 640 279 639 272 q 642 300 642 290 q 642 303 642 301 q 642 304 642 304 q 640 310 640 310 q 640 314 640 311 q 639 317 639 317 q 615 321 626 321 q 615 318 615 318 q 617 314 617 317 q 617 312 617 313 q 617 309 617 311 q 618 307 617 307 q 617 285 618 296 q 613 264 615 276 l 610 254 l 606 243 q 604 242 606 242 q 603 244 603 243 l 606 254 l 607 265 q 610 285 610 278 q 608 306 610 296 q 608 311 608 306 q 608 313 608 311 q 607 315 607 314 q 606 319 607 317 q 606 320 606 319 q 604 321 606 321 q 567 313 585 319 q 567 312 567 313 q 567 310 567 311 l 567 307 l 567 304 q 567 294 567 300 q 572 276 568 286 q 581 257 575 268 l 586 249 l 590 240 q 590 238 592 239 q 588 238 589 236 l 582 246 l 576 256 q 567 274 569 267 q 558 293 561 283 q 557 304 557 299 l 557 307 q 546 300 550 304 q 539 294 542 297 q 529 276 529 286 q 604 218 529 253 q 607 214 607 217 q 606 204 608 208 q 601 200 604 203 q 594 189 593 192 q 614 189 597 186 q 638 196 631 192 l 638 197 q 624 208 638 200 q 621 210 621 210 q 617 214 618 211 q 619 221 615 218 q 676 281 671 254 m 240 175 q 238 172 240 175 q 227 169 235 169 q 214 175 219 169 q 208 188 208 181 q 214 200 208 194 q 227 206 219 206 q 240 200 235 206 q 246 188 246 194 q 240 175 246 181 m 261 221 q 259 219 261 221 q 251 217 257 217 q 240 221 244 217 q 236 231 236 225 q 240 242 236 238 q 251 246 244 246 q 261 242 257 246 q 265 231 265 238 q 261 221 265 225 m 281 265 q 281 259 281 265 q 268 253 281 253 q 256 265 256 253 q 268 276 256 276 q 281 265 281 276 m 276 298 q 276 303 276 298 q 286 308 276 308 q 296 298 296 308 q 286 288 296 288 q 276 298 276 288 m 315 335 q 315 331 315 335 q 306 326 315 326 q 296 335 296 326 q 306 344 296 344 q 315 335 315 344 m 257 177 q 254 184 257 177 q 265 196 251 190 q 283 188 278 201 q 276 169 289 175 q 257 177 263 164 m 297 175 q 294 181 297 175 q 303 191 292 186 q 319 185 314 196 q 313 169 325 174 q 297 175 301 164 m 336 173 q 334 177 336 173 q 342 186 332 182 q 356 181 351 190 q 350 168 360 172 q 336 173 340 164 m 379 171 q 377 175 379 171 q 383 183 375 179 q 396 178 392 186 q 392 166 400 169 q 379 171 383 163 m 233 153 q 237 158 233 153 q 253 156 242 164 q 255 135 264 147 q 235 133 246 124 q 233 153 224 142 m 249 117 q 253 122 249 117 q 267 119 257 126 q 269 101 276 111 q 251 99 261 92 q 249 117 242 107 m 266 81 q 269 85 266 81 q 281 83 272 89 q 283 68 289 76 q 268 67 276 60 q 266 81 260 74 m 286 29 q 283 32 286 29 q 285 42 279 35 q 297 44 290 50 q 299 31 304 39 q 286 29 293 24 m 172 163 q 176 170 172 163 q 192 169 179 176 q 198 150 204 163 q 178 144 192 138 q 172 163 165 150 m 143 141 q 146 146 143 141 q 160 146 149 151 q 165 129 171 140 q 148 124 158 118 q 143 141 138 131 m 113 119 q 116 123 113 119 q 127 123 118 128 q 131 109 136 118 q 117 105 126 100 q 113 119 108 110 m 81 94 q 83 99 81 94 q 92 99 85 103 q 96 86 100 94 q 84 82 92 78 q 81 94 76 86 m 171 207 q 171 214 171 207 q 185 221 171 221 q 199 206 200 221 q 185 192 199 192 q 171 207 171 193 m 165 225 q 164 219 165 225 q 152 213 164 213 q 140 226 140 214 q 153 238 140 238 q 165 225 165 238 m 109 244 q 109 249 109 244 q 120 254 110 254 q 130 244 131 254 q 119 234 129 233 q 109 244 108 235 m 81 259 q 81 264 81 259 q 90 268 81 268 q 99 259 99 268 q 90 250 99 250 q 81 259 81 250 z "},"È":{"ha":776,"x_min":25,"x_max":765,"o":"m 683 314 q 739 258 719 325 q 740 89 764 174 q 689 19 725 31 q 552 -6 638 1 q 360 -1 467 -14 q 350 -29 361 -21 q 331 -36 342 -36 q 299 -24 318 -36 q 268 1 281 -11 q 233 36 256 13 q 178 74 201 51 q 33 40 56 11 q 25 59 25 49 q 29 78 25 69 q 44 99 33 86 q 61 117 54 111 q 82 136 68 124 q 113 165 108 158 q 103 175 110 167 q 45 243 63 217 q 40 286 28 269 q 113 299 53 304 q 207 429 132 376 q 203 429 204 429 q 182 440 189 432 q 178 475 172 453 q 168 493 172 485 q 136 615 132 539 q 201 738 140 696 q 307 776 243 765 q 431 783 371 788 q 526 774 490 779 q 574 767 561 769 q 630 713 621 754 q 613 640 639 672 q 549 618 588 608 q 374 583 397 657 q 379 547 367 560 q 418 533 392 533 q 458 533 444 532 q 481 535 471 533 q 544 506 522 542 q 552 431 565 471 q 496 388 539 392 q 361 368 411 381 q 353 268 367 339 q 347 243 349 250 q 382 232 354 240 q 422 221 410 226 q 525 254 463 231 q 515 276 515 265 q 529 306 515 292 q 606 336 557 333 q 608 336 607 336 q 610 336 608 336 l 611 336 q 678 311 651 336 q 680 312 678 311 q 683 314 682 313 m 311 540 q 301 536 306 542 q 253 444 296 478 q 297 476 281 449 q 318 525 314 503 q 317 538 319 532 q 311 540 314 540 m 288 453 q 253 435 272 438 q 275 434 265 429 q 288 453 285 439 m 281 554 q 267 550 272 556 q 244 450 265 500 q 293 540 289 483 q 281 554 293 553 m 233 556 q 235 450 219 507 q 258 551 256 501 q 247 561 256 560 q 233 556 239 563 m 201 551 q 226 451 194 506 q 224 556 213 515 q 217 560 221 560 q 201 551 207 561 m 169 542 q 176 510 168 532 q 197 469 183 488 q 219 449 208 456 q 193 551 186 501 q 186 554 190 554 q 169 542 172 557 m 193 449 q 213 443 197 443 q 190 464 201 450 q 189 465 190 464 q 193 449 188 454 m 454 165 q 457 171 457 168 q 376 211 457 192 q 354 217 361 215 q 339 223 347 219 q 328 231 331 226 q 325 242 325 236 q 331 272 326 249 q 335 378 349 358 q 324 383 331 383 q 295 374 313 386 q 267 351 278 363 q 238 317 256 339 q 204 281 214 289 q 129 275 192 269 q 58 274 64 282 q 118 190 49 261 q 131 178 126 182 q 135 165 135 172 q 97 119 135 153 q 50 54 38 68 q 179 99 63 39 q 188 101 183 101 q 249 51 201 101 q 336 -12 321 -24 q 314 69 344 -6 q 299 135 290 125 q 311 142 303 142 q 397 146 354 139 q 454 165 440 153 m 676 281 q 672 297 679 289 q 650 313 665 306 q 650 311 650 313 q 650 306 650 311 q 650 302 650 304 q 650 300 650 300 q 647 278 650 290 q 640 258 644 271 l 636 249 l 631 239 q 629 238 631 238 q 628 240 628 239 l 632 250 l 635 260 q 640 279 639 272 q 642 300 642 290 q 642 303 642 301 q 642 304 642 304 q 640 310 640 310 q 640 314 640 311 q 639 317 639 317 q 615 321 626 321 q 615 318 615 318 q 617 314 617 317 q 617 312 617 313 q 617 309 617 311 q 618 307 617 307 q 617 285 618 296 q 613 264 615 276 l 610 254 l 606 243 q 604 242 606 242 q 603 244 603 243 l 606 254 l 607 265 q 610 285 610 278 q 608 306 610 296 q 608 311 608 306 q 608 313 608 311 q 607 315 607 314 q 606 319 607 317 q 606 320 606 319 q 604 321 606 321 q 567 313 585 319 q 567 312 567 313 q 567 310 567 311 l 567 307 l 567 304 q 567 294 567 300 q 572 276 568 286 q 581 257 575 268 l 586 249 l 590 240 q 590 238 592 239 q 588 238 589 236 l 582 246 l 576 256 q 567 274 569 267 q 558 293 561 283 q 557 304 557 299 l 557 307 q 546 300 550 304 q 539 294 542 297 q 529 276 529 286 q 604 218 529 253 q 607 214 607 217 q 606 204 608 208 q 601 200 604 203 q 594 189 593 192 q 614 189 597 186 q 638 196 631 192 l 638 197 q 624 208 638 200 q 621 210 621 210 q 617 214 618 211 q 619 221 615 218 q 676 281 671 254 m 240 175 q 238 172 240 175 q 227 169 235 169 q 214 175 219 169 q 208 188 208 181 q 214 200 208 194 q 227 206 219 206 q 240 200 235 206 q 246 188 246 194 q 240 175 246 181 m 261 221 q 259 219 261 221 q 251 217 257 217 q 240 221 244 217 q 236 231 236 225 q 240 242 236 238 q 251 246 244 246 q 261 242 257 246 q 265 231 265 238 q 261 221 265 225 m 281 265 q 281 259 281 265 q 268 253 281 253 q 256 265 256 253 q 268 276 256 276 q 281 265 281 276 m 276 298 q 276 303 276 298 q 286 308 276 308 q 296 298 296 308 q 286 288 296 288 q 276 298 276 288 m 315 335 q 315 331 315 335 q 306 326 315 326 q 296 335 296 326 q 306 344 296 344 q 315 335 315 344 m 257 177 q 254 184 257 177 q 265 196 251 190 q 283 188 278 201 q 276 169 289 175 q 257 177 263 164 m 297 175 q 294 181 297 175 q 303 191 292 186 q 319 185 314 196 q 313 169 325 174 q 297 175 301 164 m 336 173 q 334 177 336 173 q 342 186 332 182 q 356 181 351 190 q 350 168 360 172 q 336 173 340 164 m 379 171 q 377 175 379 171 q 383 183 375 179 q 396 178 392 186 q 392 166 400 169 q 379 171 383 163 m 233 153 q 237 158 233 153 q 253 156 242 164 q 255 135 264 147 q 235 133 246 124 q 233 153 224 142 m 249 117 q 253 122 249 117 q 267 119 257 126 q 269 101 276 111 q 251 99 261 92 q 249 117 242 107 m 266 81 q 269 85 266 81 q 281 83 272 89 q 283 68 289 76 q 268 67 276 60 q 266 81 260 74 m 286 29 q 283 32 286 29 q 285 42 279 35 q 297 44 290 50 q 299 31 304 39 q 286 29 293 24 m 172 163 q 176 170 172 163 q 192 169 179 176 q 198 150 204 163 q 178 144 192 138 q 172 163 165 150 m 143 141 q 146 146 143 141 q 160 146 149 151 q 165 129 171 140 q 148 124 158 118 q 143 141 138 131 m 113 119 q 116 123 113 119 q 127 123 118 128 q 131 109 136 118 q 117 105 126 100 q 113 119 108 110 m 81 94 q 83 99 81 94 q 92 99 85 103 q 96 86 100 94 q 84 82 92 78 q 81 94 76 86 m 171 207 q 171 214 171 207 q 185 221 171 221 q 199 206 200 221 q 185 192 199 192 q 171 207 171 193 m 165 225 q 164 219 165 225 q 152 213 164 213 q 140 226 140 214 q 153 238 140 238 q 165 225 165 238 m 109 244 q 109 249 109 244 q 120 254 110 254 q 130 244 131 254 q 119 234 129 233 q 109 244 108 235 m 81 259 q 81 264 81 259 q 90 268 81 268 q 99 259 99 268 q 90 250 99 250 q 81 259 81 250 z "},"É":{"ha":776,"x_min":25,"x_max":765,"o":"m 683 314 q 739 258 719 325 q 740 89 764 174 q 689 19 725 31 q 552 -6 638 1 q 360 -1 467 -14 q 350 -29 361 -21 q 331 -36 342 -36 q 299 -24 318 -36 q 268 1 281 -11 q 233 36 256 13 q 178 74 201 51 q 33 40 56 11 q 25 59 25 49 q 29 78 25 69 q 44 99 33 86 q 61 117 54 111 q 82 136 68 124 q 113 165 108 158 q 103 175 110 167 q 45 243 63 217 q 40 286 28 269 q 113 299 53 304 q 207 429 132 376 q 203 429 204 429 q 182 440 189 432 q 178 475 172 453 q 168 493 172 485 q 136 615 132 539 q 201 738 140 696 q 307 776 243 765 q 431 783 371 788 q 526 774 490 779 q 574 767 561 769 q 630 713 621 754 q 613 640 639 672 q 549 618 588 608 q 374 583 397 657 q 379 547 367 560 q 418 533 392 533 q 458 533 444 532 q 481 535 471 533 q 544 506 522 542 q 552 431 565 471 q 496 388 539 392 q 361 368 411 381 q 353 268 367 339 q 347 243 349 250 q 382 232 354 240 q 422 221 410 226 q 525 254 463 231 q 515 276 515 265 q 529 306 515 292 q 606 336 557 333 q 608 336 607 336 q 610 336 608 336 l 611 336 q 678 311 651 336 q 680 312 678 311 q 683 314 682 313 m 311 540 q 301 536 306 542 q 253 444 296 478 q 297 476 281 449 q 318 525 314 503 q 317 538 319 532 q 311 540 314 540 m 288 453 q 253 435 272 438 q 275 434 265 429 q 288 453 285 439 m 281 554 q 267 550 272 556 q 244 450 265 500 q 293 540 289 483 q 281 554 293 553 m 233 556 q 235 450 219 507 q 258 551 256 501 q 247 561 256 560 q 233 556 239 563 m 201 551 q 226 451 194 506 q 224 556 213 515 q 217 560 221 560 q 201 551 207 561 m 169 542 q 176 510 168 532 q 197 469 183 488 q 219 449 208 456 q 193 551 186 501 q 186 554 190 554 q 169 542 172 557 m 193 449 q 213 443 197 443 q 190 464 201 450 q 189 465 190 464 q 193 449 188 454 m 454 165 q 457 171 457 168 q 376 211 457 192 q 354 217 361 215 q 339 223 347 219 q 328 231 331 226 q 325 242 325 236 q 331 272 326 249 q 335 378 349 358 q 324 383 331 383 q 295 374 313 386 q 267 351 278 363 q 238 317 256 339 q 204 281 214 289 q 129 275 192 269 q 58 274 64 282 q 118 190 49 261 q 131 178 126 182 q 135 165 135 172 q 97 119 135 153 q 50 54 38 68 q 179 99 63 39 q 188 101 183 101 q 249 51 201 101 q 336 -12 321 -24 q 314 69 344 -6 q 299 135 290 125 q 311 142 303 142 q 397 146 354 139 q 454 165 440 153 m 676 281 q 672 297 679 289 q 650 313 665 306 q 650 311 650 313 q 650 306 650 311 q 650 302 650 304 q 650 300 650 300 q 647 278 650 290 q 640 258 644 271 l 636 249 l 631 239 q 629 238 631 238 q 628 240 628 239 l 632 250 l 635 260 q 640 279 639 272 q 642 300 642 290 q 642 303 642 301 q 642 304 642 304 q 640 310 640 310 q 640 314 640 311 q 639 317 639 317 q 615 321 626 321 q 615 318 615 318 q 617 314 617 317 q 617 312 617 313 q 617 309 617 311 q 618 307 617 307 q 617 285 618 296 q 613 264 615 276 l 610 254 l 606 243 q 604 242 606 242 q 603 244 603 243 l 606 254 l 607 265 q 610 285 610 278 q 608 306 610 296 q 608 311 608 306 q 608 313 608 311 q 607 315 607 314 q 606 319 607 317 q 606 320 606 319 q 604 321 606 321 q 567 313 585 319 q 567 312 567 313 q 567 310 567 311 l 567 307 l 567 304 q 567 294 567 300 q 572 276 568 286 q 581 257 575 268 l 586 249 l 590 240 q 590 238 592 239 q 588 238 589 236 l 582 246 l 576 256 q 567 274 569 267 q 558 293 561 283 q 557 304 557 299 l 557 307 q 546 300 550 304 q 539 294 542 297 q 529 276 529 286 q 604 218 529 253 q 607 214 607 217 q 606 204 608 208 q 601 200 604 203 q 594 189 593 192 q 614 189 597 186 q 638 196 631 192 l 638 197 q 624 208 638 200 q 621 210 621 210 q 617 214 618 211 q 619 221 615 218 q 676 281 671 254 m 240 175 q 238 172 240 175 q 227 169 235 169 q 214 175 219 169 q 208 188 208 181 q 214 200 208 194 q 227 206 219 206 q 240 200 235 206 q 246 188 246 194 q 240 175 246 181 m 261 221 q 259 219 261 221 q 251 217 257 217 q 240 221 244 217 q 236 231 236 225 q 240 242 236 238 q 251 246 244 246 q 261 242 257 246 q 265 231 265 238 q 261 221 265 225 m 281 265 q 281 259 281 265 q 268 253 281 253 q 256 265 256 253 q 268 276 256 276 q 281 265 281 276 m 276 298 q 276 303 276 298 q 286 308 276 308 q 296 298 296 308 q 286 288 296 288 q 276 298 276 288 m 315 335 q 315 331 315 335 q 306 326 315 326 q 296 335 296 326 q 306 344 296 344 q 315 335 315 344 m 257 177 q 254 184 257 177 q 265 196 251 190 q 283 188 278 201 q 276 169 289 175 q 257 177 263 164 m 297 175 q 294 181 297 175 q 303 191 292 186 q 319 185 314 196 q 313 169 325 174 q 297 175 301 164 m 336 173 q 334 177 336 173 q 342 186 332 182 q 356 181 351 190 q 350 168 360 172 q 336 173 340 164 m 379 171 q 377 175 379 171 q 383 183 375 179 q 396 178 392 186 q 392 166 400 169 q 379 171 383 163 m 233 153 q 237 158 233 153 q 253 156 242 164 q 255 135 264 147 q 235 133 246 124 q 233 153 224 142 m 249 117 q 253 122 249 117 q 267 119 257 126 q 269 101 276 111 q 251 99 261 92 q 249 117 242 107 m 266 81 q 269 85 266 81 q 281 83 272 89 q 283 68 289 76 q 268 67 276 60 q 266 81 260 74 m 286 29 q 283 32 286 29 q 285 42 279 35 q 297 44 290 50 q 299 31 304 39 q 286 29 293 24 m 172 163 q 176 170 172 163 q 192 169 179 176 q 198 150 204 163 q 178 144 192 138 q 172 163 165 150 m 143 141 q 146 146 143 141 q 160 146 149 151 q 165 129 171 140 q 148 124 158 118 q 143 141 138 131 m 113 119 q 116 123 113 119 q 127 123 118 128 q 131 109 136 118 q 117 105 126 100 q 113 119 108 110 m 81 94 q 83 99 81 94 q 92 99 85 103 q 96 86 100 94 q 84 82 92 78 q 81 94 76 86 m 171 207 q 171 214 171 207 q 185 221 171 221 q 199 206 200 221 q 185 192 199 192 q 171 207 171 193 m 165 225 q 164 219 165 225 q 152 213 164 213 q 140 226 140 214 q 153 238 140 238 q 165 225 165 238 m 109 244 q 109 249 109 244 q 120 254 110 254 q 130 244 131 254 q 119 234 129 233 q 109 244 108 235 m 81 259 q 81 264 81 259 q 90 268 81 268 q 99 259 99 268 q 90 250 99 250 q 81 259 81 250 z "},"Ê":{"ha":776,"x_min":25,"x_max":765,"o":"m 683 314 q 739 258 719 325 q 740 89 764 174 q 689 19 725 31 q 552 -6 638 1 q 360 -1 467 -14 q 350 -29 361 -21 q 331 -36 342 -36 q 299 -24 318 -36 q 268 1 281 -11 q 233 36 256 13 q 178 74 201 51 q 33 40 56 11 q 25 59 25 49 q 29 78 25 69 q 44 99 33 86 q 61 117 54 111 q 82 136 68 124 q 113 165 108 158 q 103 175 110 167 q 45 243 63 217 q 40 286 28 269 q 113 299 53 304 q 207 429 132 376 q 203 429 204 429 q 182 440 189 432 q 178 475 172 453 q 168 493 172 485 q 136 615 132 539 q 201 738 140 696 q 307 776 243 765 q 431 783 371 788 q 526 774 490 779 q 574 767 561 769 q 630 713 621 754 q 613 640 639 672 q 549 618 588 608 q 374 583 397 657 q 379 547 367 560 q 418 533 392 533 q 458 533 444 532 q 481 535 471 533 q 544 506 522 542 q 552 431 565 471 q 496 388 539 392 q 361 368 411 381 q 353 268 367 339 q 347 243 349 250 q 382 232 354 240 q 422 221 410 226 q 525 254 463 231 q 515 276 515 265 q 529 306 515 292 q 606 336 557 333 q 608 336 607 336 q 610 336 608 336 l 611 336 q 678 311 651 336 q 680 312 678 311 q 683 314 682 313 m 311 540 q 301 536 306 542 q 253 444 296 478 q 297 476 281 449 q 318 525 314 503 q 317 538 319 532 q 311 540 314 540 m 288 453 q 253 435 272 438 q 275 434 265 429 q 288 453 285 439 m 281 554 q 267 550 272 556 q 244 450 265 500 q 293 540 289 483 q 281 554 293 553 m 233 556 q 235 450 219 507 q 258 551 256 501 q 247 561 256 560 q 233 556 239 563 m 201 551 q 226 451 194 506 q 224 556 213 515 q 217 560 221 560 q 201 551 207 561 m 169 542 q 176 510 168 532 q 197 469 183 488 q 219 449 208 456 q 193 551 186 501 q 186 554 190 554 q 169 542 172 557 m 193 449 q 213 443 197 443 q 190 464 201 450 q 189 465 190 464 q 193 449 188 454 m 454 165 q 457 171 457 168 q 376 211 457 192 q 354 217 361 215 q 339 223 347 219 q 328 231 331 226 q 325 242 325 236 q 331 272 326 249 q 335 378 349 358 q 324 383 331 383 q 295 374 313 386 q 267 351 278 363 q 238 317 256 339 q 204 281 214 289 q 129 275 192 269 q 58 274 64 282 q 118 190 49 261 q 131 178 126 182 q 135 165 135 172 q 97 119 135 153 q 50 54 38 68 q 179 99 63 39 q 188 101 183 101 q 249 51 201 101 q 336 -12 321 -24 q 314 69 344 -6 q 299 135 290 125 q 311 142 303 142 q 397 146 354 139 q 454 165 440 153 m 676 281 q 672 297 679 289 q 650 313 665 306 q 650 311 650 313 q 650 306 650 311 q 650 302 650 304 q 650 300 650 300 q 647 278 650 290 q 640 258 644 271 l 636 249 l 631 239 q 629 238 631 238 q 628 240 628 239 l 632 250 l 635 260 q 640 279 639 272 q 642 300 642 290 q 642 303 642 301 q 642 304 642 304 q 640 310 640 310 q 640 314 640 311 q 639 317 639 317 q 615 321 626 321 q 615 318 615 318 q 617 314 617 317 q 617 312 617 313 q 617 309 617 311 q 618 307 617 307 q 617 285 618 296 q 613 264 615 276 l 610 254 l 606 243 q 604 242 606 242 q 603 244 603 243 l 606 254 l 607 265 q 610 285 610 278 q 608 306 610 296 q 608 311 608 306 q 608 313 608 311 q 607 315 607 314 q 606 319 607 317 q 606 320 606 319 q 604 321 606 321 q 567 313 585 319 q 567 312 567 313 q 567 310 567 311 l 567 307 l 567 304 q 567 294 567 300 q 572 276 568 286 q 581 257 575 268 l 586 249 l 590 240 q 590 238 592 239 q 588 238 589 236 l 582 246 l 576 256 q 567 274 569 267 q 558 293 561 283 q 557 304 557 299 l 557 307 q 546 300 550 304 q 539 294 542 297 q 529 276 529 286 q 604 218 529 253 q 607 214 607 217 q 606 204 608 208 q 601 200 604 203 q 594 189 593 192 q 614 189 597 186 q 638 196 631 192 l 638 197 q 624 208 638 200 q 621 210 621 210 q 617 214 618 211 q 619 221 615 218 q 676 281 671 254 m 240 175 q 238 172 240 175 q 227 169 235 169 q 214 175 219 169 q 208 188 208 181 q 214 200 208 194 q 227 206 219 206 q 240 200 235 206 q 246 188 246 194 q 240 175 246 181 m 261 221 q 259 219 261 221 q 251 217 257 217 q 240 221 244 217 q 236 231 236 225 q 240 242 236 238 q 251 246 244 246 q 261 242 257 246 q 265 231 265 238 q 261 221 265 225 m 281 265 q 281 259 281 265 q 268 253 281 253 q 256 265 256 253 q 268 276 256 276 q 281 265 281 276 m 276 298 q 276 303 276 298 q 286 308 276 308 q 296 298 296 308 q 286 288 296 288 q 276 298 276 288 m 315 335 q 315 331 315 335 q 306 326 315 326 q 296 335 296 326 q 306 344 296 344 q 315 335 315 344 m 257 177 q 254 184 257 177 q 265 196 251 190 q 283 188 278 201 q 276 169 289 175 q 257 177 263 164 m 297 175 q 294 181 297 175 q 303 191 292 186 q 319 185 314 196 q 313 169 325 174 q 297 175 301 164 m 336 173 q 334 177 336 173 q 342 186 332 182 q 356 181 351 190 q 350 168 360 172 q 336 173 340 164 m 379 171 q 377 175 379 171 q 383 183 375 179 q 396 178 392 186 q 392 166 400 169 q 379 171 383 163 m 233 153 q 237 158 233 153 q 253 156 242 164 q 255 135 264 147 q 235 133 246 124 q 233 153 224 142 m 249 117 q 253 122 249 117 q 267 119 257 126 q 269 101 276 111 q 251 99 261 92 q 249 117 242 107 m 266 81 q 269 85 266 81 q 281 83 272 89 q 283 68 289 76 q 268 67 276 60 q 266 81 260 74 m 286 29 q 283 32 286 29 q 285 42 279 35 q 297 44 290 50 q 299 31 304 39 q 286 29 293 24 m 172 163 q 176 170 172 163 q 192 169 179 176 q 198 150 204 163 q 178 144 192 138 q 172 163 165 150 m 143 141 q 146 146 143 141 q 160 146 149 151 q 165 129 171 140 q 148 124 158 118 q 143 141 138 131 m 113 119 q 116 123 113 119 q 127 123 118 128 q 131 109 136 118 q 117 105 126 100 q 113 119 108 110 m 81 94 q 83 99 81 94 q 92 99 85 103 q 96 86 100 94 q 84 82 92 78 q 81 94 76 86 m 171 207 q 171 214 171 207 q 185 221 171 221 q 199 206 200 221 q 185 192 199 192 q 171 207 171 193 m 165 225 q 164 219 165 225 q 152 213 164 213 q 140 226 140 214 q 153 238 140 238 q 165 225 165 238 m 109 244 q 109 249 109 244 q 120 254 110 254 q 130 244 131 254 q 119 234 129 233 q 109 244 108 235 m 81 259 q 81 264 81 259 q 90 268 81 268 q 99 259 99 268 q 90 250 99 250 q 81 259 81 250 z "},"Ë":{"ha":776,"x_min":25,"x_max":765,"o":"m 683 314 q 739 258 719 325 q 740 89 764 174 q 689 19 725 31 q 552 -6 638 1 q 360 -1 467 -14 q 350 -29 361 -21 q 331 -36 342 -36 q 299 -24 318 -36 q 268 1 281 -11 q 233 36 256 13 q 178 74 201 51 q 33 40 56 11 q 25 59 25 49 q 29 78 25 69 q 44 99 33 86 q 61 117 54 111 q 82 136 68 124 q 113 165 108 158 q 103 175 110 167 q 45 243 63 217 q 40 286 28 269 q 113 299 53 304 q 207 429 132 376 q 203 429 204 429 q 182 440 189 432 q 178 475 172 453 q 168 493 172 485 q 136 615 132 539 q 201 738 140 696 q 307 776 243 765 q 431 783 371 788 q 526 774 490 779 q 574 767 561 769 q 630 713 621 754 q 613 640 639 672 q 549 618 588 608 q 374 583 397 657 q 379 547 367 560 q 418 533 392 533 q 458 533 444 532 q 481 535 471 533 q 544 506 522 542 q 552 431 565 471 q 496 388 539 392 q 361 368 411 381 q 353 268 367 339 q 347 243 349 250 q 382 232 354 240 q 422 221 410 226 q 525 254 463 231 q 515 276 515 265 q 529 306 515 292 q 606 336 557 333 q 608 336 607 336 q 610 336 608 336 l 611 336 q 678 311 651 336 q 680 312 678 311 q 683 314 682 313 m 311 540 q 301 536 306 542 q 253 444 296 478 q 297 476 281 449 q 318 525 314 503 q 317 538 319 532 q 311 540 314 540 m 288 453 q 253 435 272 438 q 275 434 265 429 q 288 453 285 439 m 281 554 q 267 550 272 556 q 244 450 265 500 q 293 540 289 483 q 281 554 293 553 m 233 556 q 235 450 219 507 q 258 551 256 501 q 247 561 256 560 q 233 556 239 563 m 201 551 q 226 451 194 506 q 224 556 213 515 q 217 560 221 560 q 201 551 207 561 m 169 542 q 176 510 168 532 q 197 469 183 488 q 219 449 208 456 q 193 551 186 501 q 186 554 190 554 q 169 542 172 557 m 193 449 q 213 443 197 443 q 190 464 201 450 q 189 465 190 464 q 193 449 188 454 m 454 165 q 457 171 457 168 q 376 211 457 192 q 354 217 361 215 q 339 223 347 219 q 328 231 331 226 q 325 242 325 236 q 331 272 326 249 q 335 378 349 358 q 324 383 331 383 q 295 374 313 386 q 267 351 278 363 q 238 317 256 339 q 204 281 214 289 q 129 275 192 269 q 58 274 64 282 q 118 190 49 261 q 131 178 126 182 q 135 165 135 172 q 97 119 135 153 q 50 54 38 68 q 179 99 63 39 q 188 101 183 101 q 249 51 201 101 q 336 -12 321 -24 q 314 69 344 -6 q 299 135 290 125 q 311 142 303 142 q 397 146 354 139 q 454 165 440 153 m 676 281 q 672 297 679 289 q 650 313 665 306 q 650 311 650 313 q 650 306 650 311 q 650 302 650 304 q 650 300 650 300 q 647 278 650 290 q 640 258 644 271 l 636 249 l 631 239 q 629 238 631 238 q 628 240 628 239 l 632 250 l 635 260 q 640 279 639 272 q 642 300 642 290 q 642 303 642 301 q 642 304 642 304 q 640 310 640 310 q 640 314 640 311 q 639 317 639 317 q 615 321 626 321 q 615 318 615 318 q 617 314 617 317 q 617 312 617 313 q 617 309 617 311 q 618 307 617 307 q 617 285 618 296 q 613 264 615 276 l 610 254 l 606 243 q 604 242 606 242 q 603 244 603 243 l 606 254 l 607 265 q 610 285 610 278 q 608 306 610 296 q 608 311 608 306 q 608 313 608 311 q 607 315 607 314 q 606 319 607 317 q 606 320 606 319 q 604 321 606 321 q 567 313 585 319 q 567 312 567 313 q 567 310 567 311 l 567 307 l 567 304 q 567 294 567 300 q 572 276 568 286 q 581 257 575 268 l 586 249 l 590 240 q 590 238 592 239 q 588 238 589 236 l 582 246 l 576 256 q 567 274 569 267 q 558 293 561 283 q 557 304 557 299 l 557 307 q 546 300 550 304 q 539 294 542 297 q 529 276 529 286 q 604 218 529 253 q 607 214 607 217 q 606 204 608 208 q 601 200 604 203 q 594 189 593 192 q 614 189 597 186 q 638 196 631 192 l 638 197 q 624 208 638 200 q 621 210 621 210 q 617 214 618 211 q 619 221 615 218 q 676 281 671 254 m 240 175 q 238 172 240 175 q 227 169 235 169 q 214 175 219 169 q 208 188 208 181 q 214 200 208 194 q 227 206 219 206 q 240 200 235 206 q 246 188 246 194 q 240 175 246 181 m 261 221 q 259 219 261 221 q 251 217 257 217 q 240 221 244 217 q 236 231 236 225 q 240 242 236 238 q 251 246 244 246 q 261 242 257 246 q 265 231 265 238 q 261 221 265 225 m 281 265 q 281 259 281 265 q 268 253 281 253 q 256 265 256 253 q 268 276 256 276 q 281 265 281 276 m 276 298 q 276 303 276 298 q 286 308 276 308 q 296 298 296 308 q 286 288 296 288 q 276 298 276 288 m 315 335 q 315 331 315 335 q 306 326 315 326 q 296 335 296 326 q 306 344 296 344 q 315 335 315 344 m 257 177 q 254 184 257 177 q 265 196 251 190 q 283 188 278 201 q 276 169 289 175 q 257 177 263 164 m 297 175 q 294 181 297 175 q 303 191 292 186 q 319 185 314 196 q 313 169 325 174 q 297 175 301 164 m 336 173 q 334 177 336 173 q 342 186 332 182 q 356 181 351 190 q 350 168 360 172 q 336 173 340 164 m 379 171 q 377 175 379 171 q 383 183 375 179 q 396 178 392 186 q 392 166 400 169 q 379 171 383 163 m 233 153 q 237 158 233 153 q 253 156 242 164 q 255 135 264 147 q 235 133 246 124 q 233 153 224 142 m 249 117 q 253 122 249 117 q 267 119 257 126 q 269 101 276 111 q 251 99 261 92 q 249 117 242 107 m 266 81 q 269 85 266 81 q 281 83 272 89 q 283 68 289 76 q 268 67 276 60 q 266 81 260 74 m 286 29 q 283 32 286 29 q 285 42 279 35 q 297 44 290 50 q 299 31 304 39 q 286 29 293 24 m 172 163 q 176 170 172 163 q 192 169 179 176 q 198 150 204 163 q 178 144 192 138 q 172 163 165 150 m 143 141 q 146 146 143 141 q 160 146 149 151 q 165 129 171 140 q 148 124 158 118 q 143 141 138 131 m 113 119 q 116 123 113 119 q 127 123 118 128 q 131 109 136 118 q 117 105 126 100 q 113 119 108 110 m 81 94 q 83 99 81 94 q 92 99 85 103 q 96 86 100 94 q 84 82 92 78 q 81 94 76 86 m 171 207 q 171 214 171 207 q 185 221 171 221 q 199 206 200 221 q 185 192 199 192 q 171 207 171 193 m 165 225 q 164 219 165 225 q 152 213 164 213 q 140 226 140 214 q 153 238 140 238 q 165 225 165 238 m 109 244 q 109 249 109 244 q 120 254 110 254 q 130 244 131 254 q 119 234 129 233 q 109 244 108 235 m 81 259 q 81 264 81 259 q 90 268 81 268 q 99 259 99 268 q 90 250 99 250 q 81 259 81 250 z "},"F":{"ha":700,"x_min":22,"x_max":678,"o":"m 606 771 q 658 738 640 764 q 674 681 676 711 q 653 624 672 651 q 604 586 635 596 q 542 581 588 581 q 461 576 497 581 q 415 556 425 572 q 374 431 390 507 q 458 443 424 439 q 503 408 490 447 q 503 328 517 369 q 458 289 490 288 q 397 293 439 289 q 392 286 394 289 q 350 274 379 275 q 343 151 344 214 q 343 56 342 89 l 343 24 q 298 -12 343 1 q 207 -16 253 -26 q 157 33 161 -6 q 129 478 135 353 l 121 472 q 101 474 110 467 q 93 492 92 481 q 101 516 96 501 q 111 561 106 531 q 113 604 117 592 q 88 636 108 617 q 49 669 68 656 l 31 683 q 26 703 22 692 q 42 715 29 714 q 129 724 94 715 q 183 778 139 761 l 204 835 q 222 844 210 844 q 238 835 233 844 q 256 786 246 811 q 606 771 522 786 m 378 339 q 364 353 372 347 q 363 351 364 351 q 361 347 363 350 q 361 346 361 347 q 358 343 358 343 q 347 329 354 336 q 335 318 343 324 l 326 313 l 319 308 q 317 308 318 307 q 318 310 317 310 l 325 315 l 332 321 q 343 333 339 328 q 353 346 349 339 q 353 349 353 347 q 354 350 354 350 q 355 351 354 350 q 356 353 356 353 q 357 357 357 356 q 358 358 357 357 q 329 372 344 367 q 328 371 329 372 q 326 369 328 371 l 325 368 l 325 367 q 321 360 322 364 q 314 346 317 353 q 310 329 313 339 l 308 321 l 308 313 q 307 311 308 311 q 306 313 306 311 l 306 321 l 306 329 q 308 347 307 340 q 314 364 311 356 q 318 371 317 368 l 319 374 q 308 375 314 375 q 303 374 306 375 q 288 367 292 372 q 306 292 275 351 q 306 288 307 290 q 299 282 303 283 q 294 282 299 282 q 285 278 285 281 q 297 268 285 275 q 317 261 310 261 q 314 275 318 264 q 313 279 313 278 q 313 282 313 281 q 317 286 313 286 q 385 296 368 282 q 389 308 389 300 q 382 331 389 318 q 382 329 382 331 q 381 326 381 328 q 379 325 379 325 q 378 324 379 325 q 376 322 376 322 q 364 310 371 315 q 349 300 358 306 l 342 296 l 333 292 q 331 292 332 292 q 332 294 331 293 l 340 299 l 347 303 q 360 314 356 310 q 371 326 367 319 q 372 328 371 326 q 374 329 374 329 q 374 331 374 329 q 375 333 375 332 q 376 336 376 335 q 378 338 378 336 l 378 339 m 314 558 q 306 581 314 558 q 301 614 297 603 q 344 651 304 625 q 379 692 383 678 q 330 703 375 706 q 269 707 285 700 q 248 760 260 714 q 221 807 236 807 q 194 760 206 807 q 172 707 182 714 q 136 701 158 699 q 90 703 114 704 q 63 692 67 703 q 99 651 58 678 q 142 614 139 625 q 128 558 146 603 q 124 506 111 514 q 173 527 136 497 q 222 557 210 557 q 270 527 233 557 q 319 506 307 497 q 314 558 331 514 m 206 647 q 208 649 206 647 q 217 651 210 651 q 228 647 224 651 q 233 635 233 642 q 228 624 233 628 q 217 619 224 619 q 206 624 210 619 q 201 635 201 628 q 206 647 201 642 m 160 654 q 163 660 160 654 q 176 660 165 665 q 181 644 186 654 q 166 638 176 633 q 160 654 156 643 m 126 669 q 127 673 126 669 q 137 673 129 676 q 141 661 144 669 q 130 657 138 653 q 126 669 122 661 m 92 682 q 94 685 92 682 q 102 685 96 689 q 106 676 108 682 q 96 672 103 669 q 92 682 89 675 m 257 658 q 263 660 257 658 q 272 651 268 663 q 265 637 276 640 q 250 644 254 633 q 257 658 246 654 m 290 660 q 289 664 290 660 q 296 672 288 668 q 307 667 304 675 q 301 656 310 658 q 290 660 293 653 m 326 675 q 325 678 326 675 q 331 685 324 682 q 340 681 338 688 q 335 671 342 674 q 326 675 328 668 m 235 593 q 231 598 235 593 q 238 609 228 603 q 254 606 247 615 q 251 590 261 597 q 235 593 242 583 m 263 563 q 261 566 263 563 q 265 575 258 569 q 277 574 272 581 q 275 561 282 567 q 263 563 268 556 m 288 535 q 285 538 288 535 q 289 544 283 540 q 299 543 294 549 q 297 533 303 538 q 288 535 292 529 m 185 588 q 181 592 185 588 q 183 604 176 596 q 199 606 190 613 q 201 590 208 599 q 185 588 193 581 m 162 558 q 159 561 162 558 q 161 570 156 564 q 173 571 167 576 q 174 559 179 565 q 162 558 168 553 m 140 529 q 138 531 140 529 q 140 539 135 533 q 150 540 144 544 q 151 531 156 536 q 140 529 146 525 m 228 680 q 227 674 228 680 q 215 669 226 668 q 205 683 204 671 q 217 693 206 694 q 228 680 229 692 m 227 721 q 227 717 227 721 q 218 713 226 713 q 210 723 210 714 q 219 731 211 732 q 227 721 228 729 m 227 758 q 227 755 227 758 q 219 752 226 751 q 213 760 213 753 q 221 766 214 767 q 227 758 228 765 z "},"G":{"ha":838,"x_min":24,"x_max":813,"o":"m 801 142 q 742 119 783 126 q 657 111 700 111 q 653 106 656 108 q 667 71 656 96 q 681 36 676 49 q 690 7 685 24 q 692 -20 694 -10 q 682 -37 690 -31 q 664 -43 674 -43 q 631 -31 650 -43 q 600 -6 613 -18 q 565 29 588 7 q 563 32 565 31 q 561 35 561 33 q 376 -7 476 -7 q 260 14 319 -7 q 147 75 200 35 q 59 183 93 115 q 25 335 25 251 q 149 642 25 524 q 365 761 239 728 q 364 781 364 774 q 374 799 367 792 q 393 806 382 806 q 397 804 394 806 q 404 803 400 804 q 424 811 413 811 q 428 810 425 811 q 438 807 432 810 q 453 813 444 813 q 457 811 456 813 q 474 803 468 810 q 486 806 481 806 q 492 804 489 806 q 511 790 506 803 q 518 792 515 792 q 521 792 519 792 q 536 782 531 790 q 594 775 571 781 q 638 732 619 769 q 660 650 656 694 q 644 565 664 606 q 582 513 625 524 q 523 510 557 506 q 451 517 489 514 q 376 526 414 521 q 307 523 339 531 q 252 498 275 515 q 220 440 229 481 q 219 336 211 399 q 242 319 233 328 q 249 290 253 306 q 236 267 246 279 q 281 194 253 222 q 332 158 310 165 q 376 149 354 150 q 439 164 414 146 q 435 168 439 164 q 368 264 368 236 q 367 264 367 264 q 301 302 325 260 q 286 390 278 344 q 331 442 294 436 q 654 399 565 476 q 660 399 658 399 q 685 383 676 396 q 696 338 696 368 q 706 238 711 296 q 704 228 704 235 q 715 225 708 226 q 749 216 738 219 q 778 205 761 213 q 803 187 796 197 q 811 164 811 176 q 801 142 811 151 m 401 686 q 421 679 407 679 q 399 701 410 688 q 397 703 397 703 q 401 686 396 692 m 461 672 q 483 671 474 667 q 497 690 493 675 q 461 672 481 675 m 510 774 q 461 681 504 715 q 506 713 489 686 q 526 763 522 739 q 525 774 528 769 q 519 778 522 778 q 510 774 514 779 m 475 788 q 453 686 474 738 q 501 778 497 719 q 489 792 501 789 q 475 788 481 793 m 442 793 q 443 686 428 744 q 467 789 465 739 q 456 799 464 797 q 442 793 447 800 m 411 789 q 435 689 404 743 q 432 793 421 753 q 425 797 429 796 q 411 789 415 799 m 378 778 q 384 747 376 768 q 406 707 392 725 q 428 686 417 693 q 401 789 394 739 q 394 792 399 790 q 378 778 381 794 m 235 294 q 231 310 236 301 q 208 326 222 319 q 208 324 208 325 q 208 324 208 324 q 208 318 208 324 q 208 316 208 318 q 208 313 208 314 q 204 292 207 303 q 199 271 203 283 l 194 261 l 189 251 q 188 251 189 250 q 186 253 186 251 l 190 263 l 193 272 q 199 293 197 285 q 200 313 200 304 q 200 316 200 314 q 200 318 200 318 q 199 322 199 322 q 197 328 199 325 q 197 329 197 329 q 174 335 185 333 q 174 331 174 332 q 175 325 174 331 q 175 319 175 319 q 175 299 176 310 q 171 276 174 290 l 168 267 l 164 257 q 162 256 164 256 q 161 258 160 257 l 164 268 l 165 278 q 168 299 168 290 q 167 318 168 310 q 167 324 167 318 q 166 326 167 324 q 165 328 165 328 q 164 333 164 331 q 163 334 164 333 q 163 335 163 335 q 125 325 143 333 q 124 322 125 324 l 124 319 l 124 318 q 125 308 124 313 q 131 289 126 299 q 139 271 133 282 l 143 261 l 149 253 q 149 251 150 251 q 146 251 147 250 l 140 260 l 135 268 q 124 286 128 279 q 117 307 119 296 q 115 317 115 313 l 115 319 l 115 321 q 103 314 108 317 q 97 308 100 311 q 88 290 88 299 q 163 232 88 265 q 165 228 165 231 q 163 217 165 221 q 158 213 163 215 q 153 203 150 204 q 172 201 154 199 q 196 210 189 204 q 182 221 194 213 q 178 224 179 222 q 175 226 176 225 q 176 233 174 231 q 235 294 229 268 m 646 63 q 631 128 624 117 q 644 133 636 135 q 729 138 686 131 q 786 158 772 146 q 789 164 789 161 q 710 204 789 185 q 686 210 693 208 q 671 216 679 213 q 660 224 663 219 q 658 235 657 228 q 664 265 658 242 q 668 371 681 351 q 657 376 664 376 q 628 367 644 379 q 600 344 611 356 q 569 310 589 332 q 536 274 546 282 q 461 268 524 263 q 390 267 397 275 q 450 183 381 253 q 463 171 458 175 q 468 158 468 165 q 429 113 467 144 q 382 46 371 61 q 511 92 396 31 q 519 94 515 94 q 582 44 535 94 q 669 -19 653 -31 q 646 63 678 -12 m 572 167 q 569 165 572 167 q 560 163 567 163 q 547 167 553 163 q 542 180 542 172 q 547 193 542 188 q 560 199 553 199 q 572 193 567 199 q 578 180 578 188 q 572 167 578 172 m 593 214 q 591 212 593 214 q 583 210 589 210 q 574 214 578 210 q 569 224 569 218 q 574 234 569 229 q 583 239 578 239 q 593 234 589 239 q 597 224 597 229 q 593 214 597 218 m 614 257 q 614 251 614 257 q 601 244 614 244 q 589 257 589 244 q 601 269 589 269 q 614 257 614 269 m 608 291 q 608 296 608 291 q 619 301 608 301 q 629 291 629 301 q 619 281 629 281 q 608 291 608 281 m 647 327 q 647 323 647 327 q 638 318 647 318 q 629 327 629 318 q 638 336 629 336 q 647 327 647 336 m 590 170 q 588 177 590 170 q 598 189 585 183 q 617 181 611 194 q 609 163 622 168 q 590 170 596 157 m 652 178 q 655 172 652 178 q 646 162 657 167 q 630 168 635 157 q 636 184 625 179 q 652 178 647 189 m 688 174 q 690 169 688 174 q 683 160 692 164 q 669 165 674 156 q 674 179 665 175 q 688 174 683 183 m 728 171 q 730 167 728 171 q 724 159 732 163 q 712 164 715 156 q 717 176 708 172 q 728 171 725 179 m 565 146 q 569 151 565 146 q 585 148 574 157 q 588 128 597 139 q 567 126 579 117 q 565 146 556 135 m 583 110 q 586 115 583 110 q 600 112 590 119 q 602 94 610 104 q 585 92 594 85 q 583 110 575 100 m 599 74 q 602 78 599 74 q 614 76 606 82 q 615 61 622 69 q 601 59 608 53 q 599 74 593 65 m 619 22 q 615 25 619 22 q 617 35 611 28 q 630 36 622 42 q 632 24 638 31 q 619 22 626 17 m 506 156 q 509 162 506 156 q 525 162 513 168 q 531 142 538 156 q 511 136 524 129 q 506 156 499 143 m 476 133 q 479 139 476 133 q 492 139 482 144 q 497 122 503 133 q 481 117 492 111 q 476 133 469 122 m 447 112 q 449 116 447 112 q 460 116 451 121 q 465 102 469 111 q 451 98 460 93 q 447 112 442 103 m 413 88 q 415 92 413 88 q 425 91 417 96 q 429 78 433 86 q 417 75 425 71 q 413 88 408 79 m 503 199 q 504 207 503 199 q 519 213 504 214 q 533 199 533 213 q 517 185 532 185 q 503 199 503 185 m 497 218 q 497 212 497 218 q 485 206 497 206 q 473 218 472 206 q 485 231 474 231 q 497 218 497 231 m 442 237 q 442 242 442 237 q 452 247 442 247 q 463 237 463 247 q 452 226 463 226 q 442 237 442 226 m 414 252 q 414 257 414 252 q 423 261 414 261 q 432 252 432 261 q 423 243 432 243 q 414 252 414 243 z "},"H":{"ha":882,"x_min":22,"x_max":864,"o":"m 853 721 q 846 426 864 622 q 804 88 828 229 q 775 48 800 63 q 722 33 750 33 q 672 49 694 33 q 649 93 649 65 q 629 229 640 150 q 538 236 588 238 q 542 219 542 226 q 532 196 542 204 q 474 181 515 182 q 456 47 471 108 q 433 14 451 29 q 423 -1 431 4 q 403 -6 415 -6 q 293 -31 356 -28 q 292 -37 293 -33 q 284 -73 288 -61 q 273 -97 281 -85 q 254 -110 265 -110 q 250 -110 251 -110 q 226 -92 236 -107 q 212 -62 217 -76 q 201 -19 207 -47 q 165 7 175 -10 q 160 18 164 10 q 56 15 85 13 q 25 32 28 18 q 42 60 24 43 q 114 118 60 78 q 119 121 115 118 q 125 125 122 124 q 124 412 99 256 q 201 664 150 568 q 251 723 222 703 q 306 742 279 743 q 354 724 332 742 q 388 678 376 707 q 456 418 432 554 q 608 417 538 422 q 601 700 589 617 q 631 749 604 728 q 692 779 657 771 q 763 787 728 788 q 824 768 799 786 q 853 721 850 750 m 413 15 q 415 19 415 17 q 410 32 417 25 q 392 49 404 39 q 373 65 381 58 q 353 81 365 71 q 319 106 328 99 q 308 122 310 114 q 313 132 308 128 l 315 135 q 374 204 376 194 q 285 181 360 215 q 261 186 274 176 q 225 222 249 196 q 172 267 183 269 q 178 218 171 260 q 182 149 189 163 q 125 103 178 140 q 44 36 53 50 q 164 38 61 29 q 192 40 188 40 q 207 28 201 40 q 218 -12 213 17 q 253 -90 236 -89 q 274 -33 263 -90 q 293 24 283 14 q 360 22 306 36 q 413 15 404 10 m 524 206 q 528 219 529 210 q 521 242 528 229 q 521 240 521 242 q 519 238 519 239 q 518 236 518 236 q 517 235 518 236 q 515 232 515 233 q 501 219 510 226 q 486 210 496 215 l 479 204 l 471 200 q 469 201 469 200 q 469 203 468 203 l 476 208 l 485 213 q 497 224 493 219 q 510 236 504 231 q 510 239 510 238 q 511 240 511 240 q 513 242 511 240 q 514 244 514 243 q 515 247 515 246 q 516 248 515 247 q 517 249 517 249 l 517 250 q 503 265 510 258 q 501 263 501 263 q 499 258 501 261 q 498 256 499 257 q 496 254 497 254 q 485 239 492 247 q 471 228 479 235 l 464 222 l 456 217 q 453 217 454 217 q 454 219 453 218 l 461 225 l 468 231 q 481 243 476 239 q 490 257 486 250 q 491 260 490 258 q 492 261 492 261 q 492 263 492 261 q 493 265 493 264 q 494 269 494 267 q 496 271 494 269 q 465 285 482 279 q 464 283 464 283 q 463 282 464 283 l 461 281 l 460 279 q 456 272 458 276 q 450 257 453 265 q 446 239 447 250 l 444 231 l 443 222 q 442 221 443 221 q 440 222 440 221 l 440 231 l 442 240 q 444 258 443 251 q 450 275 446 267 q 454 283 451 279 l 456 286 q 444 288 449 288 q 438 286 440 288 q 421 279 426 285 q 442 200 408 263 q 442 196 443 199 q 435 190 439 192 q 429 190 433 190 q 419 186 419 189 q 432 175 419 182 q 453 168 444 168 q 450 183 454 171 q 449 186 449 186 q 449 190 447 189 q 453 194 449 194 q 524 206 506 190 m 231 115 q 234 117 231 115 q 243 119 236 119 q 255 115 250 119 q 260 103 260 110 q 255 91 260 96 q 243 86 250 86 q 231 91 236 86 q 226 103 226 96 q 231 115 226 110 m 177 89 q 177 95 177 89 q 190 100 178 101 q 202 86 203 99 q 189 75 201 74 q 177 89 176 76 m 140 73 q 140 77 140 73 q 150 81 140 82 q 159 72 160 81 q 149 63 158 63 q 140 73 139 64 m 98 58 q 98 61 98 58 q 105 63 99 64 q 111 56 111 63 q 104 51 111 50 q 98 58 97 51 m 296 143 q 297 137 296 143 q 286 128 299 131 q 271 138 274 125 q 281 153 268 150 q 296 143 293 156 m 328 167 q 330 163 328 167 q 321 156 331 158 q 309 164 311 154 q 317 175 307 174 q 328 167 326 176 m 232 65 q 234 70 232 65 q 248 72 236 76 q 256 55 260 67 q 240 48 251 43 q 232 65 228 53 m 238 20 q 240 25 238 20 q 250 26 242 29 q 256 13 258 22 q 244 8 253 4 q 238 20 235 11 m 242 -28 q 243 -25 242 -28 q 251 -24 244 -22 q 254 -33 257 -26 q 246 -36 251 -39 q 242 -28 240 -33 m 274 74 q 269 78 274 74 q 275 92 265 83 q 293 90 285 100 q 292 72 301 81 q 274 74 282 64 m 316 58 q 313 61 316 58 q 317 71 310 65 q 331 69 325 76 q 330 56 338 63 q 316 58 322 50 m 360 38 q 358 41 360 38 q 360 47 356 43 q 369 47 365 51 q 369 38 374 42 q 360 38 364 33 m 228 155 q 234 155 228 155 q 240 142 240 154 q 227 129 240 129 q 215 142 214 129 q 228 155 215 156 m 210 192 q 215 192 210 192 q 219 182 219 192 q 210 172 219 172 q 201 182 200 172 q 210 192 201 192 m 200 226 q 200 223 200 226 q 193 219 200 219 q 187 226 186 219 q 194 232 188 232 q 200 226 200 232 z "}}}
